<svg preserveAspectRatio="none" width="100%" height="100%" overflow="visible" style="display: block;" viewBox="0 0 158 47" fill="none" xmlns="http://www.w3.org/2000/svg">
<g id="Apple">
<rect x="0.5" y="0.5" width="157" height="46" rx="12" stroke="var(--stroke-0, #233965)" stroke-opacity="0.3"/>
<g id="Vector">
<path d="M37.5424 22.4249C37.5127 18.8873 40.4488 17.1629 40.5855 17.0859C38.9213 14.6682 36.3418 14.3364 35.4324 14.3127C33.2631 14.0875 31.165 15.6045 30.0595 15.6045C28.9362 15.6045 27.2363 14.3364 25.3998 14.3719C23.0401 14.4075 20.8351 15.7704 19.6286 17.8799C17.1323 22.1879 18.9926 28.5165 21.3879 32.0008C22.5825 33.7074 23.9793 35.6096 25.8099 35.5443C27.5988 35.4732 28.2705 34.4066 30.428 34.4066C32.5677 34.4066 33.1977 35.5443 35.064 35.5029C36.9837 35.4732 38.1962 33.7903 39.3492 32.0719C40.7341 30.1165 41.2869 28.1906 41.3106 28.0958C41.2631 28.0661 37.5781 26.6618 37.5424 22.4249ZM34.0179 12.0194C34.9807 10.8165 35.6404 9.18697 35.4562 7.52778C34.0654 7.587 32.318 8.48771 31.3195 9.66103C30.4339 10.698 29.6375 12.3927 29.8455 13.9868C31.4027 14.0993 33.0134 13.1986 34.0179 12.0194Z" fill="var(--fill-0, #233965)"/>
<path d="M63.468 35.2895H60.9658L59.5928 30.9993H54.832L53.5244 35.2895H51.0876L55.8067 20.6768H58.7191L63.468 35.2895ZM59.1827 29.1979L57.9405 25.3818C57.8097 24.9907 57.5601 24.0723 57.2035 22.6264H57.1619C57.0192 23.2486 56.7815 24.1671 56.4665 25.3818L55.2481 29.1979H59.1827ZM75.5813 29.8913C75.5813 31.6808 75.0936 33.0971 74.1189 34.14C73.2448 35.0644 72.1574 35.5266 70.8616 35.5266C69.4589 35.5266 68.4547 35.0288 67.8427 34.0333V39.562H65.4948V28.2143C65.4948 27.0884 65.4653 25.9329 65.4057 24.7537H67.4736L67.605 26.4248H67.646C68.431 25.1685 69.6197 24.5344 71.2122 24.5344C72.4605 24.5344 73.5005 25.0263 74.3329 26.0099C75.1647 26.9936 75.5813 28.2913 75.5813 29.8913ZM73.1916 29.9801C73.1916 28.955 72.9597 28.1077 72.4964 27.444C71.9908 26.7507 71.3076 26.4069 70.4515 26.4069C69.8754 26.4069 69.3461 26.6025 68.8764 26.9818C68.4073 27.3669 68.0978 27.8706 67.9555 28.4868C67.8902 28.718 67.8543 28.9609 67.8485 29.1979V30.9579C67.8485 31.7223 68.0863 32.3682 68.556 32.9015C69.0251 33.4289 69.6377 33.6955 70.3919 33.6955C71.2775 33.6955 71.967 33.3519 72.4605 32.6764C72.9417 31.989 73.1916 31.0942 73.1916 29.9801ZM87.7414 29.8913C87.7414 31.6808 87.2544 33.0971 86.279 34.14C85.4056 35.0644 84.3181 35.5266 83.0224 35.5266C81.6197 35.5266 80.6149 35.0288 80.0029 34.0333V39.562H77.6549V28.2143C77.6549 27.0884 77.6255 25.9329 77.5659 24.7537H79.6344L79.7651 26.4248H79.8068C80.5912 25.1685 81.7799 24.5344 83.3729 24.5344C84.6213 24.5344 85.6613 25.0263 86.4931 26.0099C87.3197 26.9936 87.7414 28.2913 87.7414 29.8913ZM85.346 29.9801C85.346 28.955 85.1147 28.1077 84.6507 27.444C84.1458 26.7507 83.462 26.4069 82.6065 26.4069C82.0298 26.4069 81.5005 26.6025 81.025 26.9818C80.5559 27.3669 80.2464 27.8706 80.1041 28.4868C80.0324 28.7772 79.9913 29.0142 79.9913 29.1979V30.9579C79.9913 31.7223 80.2291 32.3682 80.6982 32.9015C81.1679 33.4289 81.7799 33.6955 82.5412 33.6955C83.4261 33.6955 84.1156 33.3519 84.6091 32.6764C85.1025 31.989 85.346 31.0942 85.346 29.9801ZM101.334 31.1949C101.334 32.4393 100.901 33.4526 100.033 34.2289C99.0819 35.0822 97.7445 35.5088 96.0387 35.5088C94.4635 35.5088 93.1979 35.2066 92.2406 34.5962L92.7814 32.6467C93.8099 33.257 94.9448 33.5592 96.1752 33.5592C97.0608 33.5592 97.7503 33.3578 98.2437 32.9607C98.7371 32.5637 98.9864 32.0304 98.9864 31.3668C98.9864 30.7742 98.7788 30.2764 98.3744 29.8675C97.9701 29.4646 97.2985 29.0854 96.3539 28.7417C93.7862 27.7876 92.502 26.3892 92.502 24.5582C92.502 23.3612 92.9538 22.3775 93.8631 21.6131C94.7667 20.8487 95.9675 20.4636 97.4651 20.4636C98.7967 20.4636 99.9079 20.6946 100.794 21.1568L100.205 23.0649C99.3728 22.6146 98.4398 22.3953 97.3876 22.3953C96.5616 22.3953 95.9079 22.5967 95.444 22.9997C95.0518 23.3612 94.8557 23.7997 94.8557 24.3212C94.8557 24.8959 95.0819 25.3759 95.5337 25.7492C95.9259 26.0929 96.6327 26.4722 97.6612 26.8751C98.9211 27.3847 99.8483 27.9713 100.443 28.6528C101.037 29.3343 101.334 30.1816 101.334 31.1949ZM109.12 26.5136H106.529V31.6275C106.529 32.9311 106.986 33.577 107.902 33.577C108.324 33.577 108.669 33.5415 108.948 33.4704L109.013 35.2481C108.55 35.4199 107.944 35.5088 107.189 35.5088C106.262 35.5088 105.536 35.2244 105.013 34.6615C104.49 34.0985 104.229 33.1504 104.229 31.8231V26.5136H102.69V24.7596H104.229V22.8279L106.535 22.1346V24.7596H109.126L109.12 26.5136ZM120.775 29.9387C120.775 31.5564 120.312 32.8897 119.385 33.9267C118.416 34.9992 117.127 35.5325 115.516 35.5325C113.964 35.5325 112.728 35.017 111.807 33.9978C110.886 32.9726 110.428 31.6749 110.428 30.1165C110.428 28.481 110.904 27.1477 111.855 26.1047C112.806 25.0618 114.083 24.5463 115.694 24.5463C117.245 24.5463 118.494 25.0618 119.432 26.087C120.324 27.0766 120.775 28.3625 120.775 29.9387ZM118.339 29.992C118.339 29.0261 118.131 28.1965 117.709 27.5092C117.216 26.6736 116.514 26.2529 115.599 26.2529C114.66 26.2529 113.935 26.6736 113.447 27.5092C113.025 28.2024 112.817 29.0439 112.817 30.0394C112.817 31.0053 113.025 31.8349 113.447 32.5282C113.953 33.3637 114.666 33.7845 115.581 33.7845C116.479 33.7845 117.18 33.3578 117.691 32.5104C118.125 31.7934 118.339 30.9579 118.339 29.992ZM128.413 26.8158C128.169 26.7744 127.92 26.7507 127.67 26.7507C126.844 26.7507 126.208 27.0588 125.757 27.681C125.364 28.2321 125.168 28.9254 125.168 29.7609V35.2895H122.82V28.0721C122.82 26.964 122.802 25.8618 122.755 24.7537H124.8L124.882 26.7684H124.948C125.198 26.0751 125.584 25.5181 126.125 25.0974C126.612 24.73 127.212 24.5344 127.824 24.5344C128.045 24.5344 128.235 24.5523 128.413 24.576V26.8158ZM138.916 29.5239C138.921 29.8794 138.891 30.235 138.832 30.5846H131.783C131.807 31.6275 132.152 32.4215 132.806 32.9726C133.4 33.4644 134.167 33.7074 135.112 33.7074C136.158 33.7074 137.109 33.5415 137.965 33.2096L138.333 34.8332C137.334 35.2658 136.152 35.4851 134.791 35.4851C133.15 35.4851 131.866 35.0051 130.927 34.0452C129.994 33.0852 129.525 31.7934 129.525 30.1757C129.525 28.5876 129.958 27.2662 130.832 26.2114C131.742 25.0855 132.978 24.5226 134.529 24.5226C136.051 24.5226 137.203 25.0855 137.988 26.2114C138.6 27.1062 138.916 28.2084 138.916 29.5239ZM136.675 28.9194C136.693 28.2262 136.538 27.6277 136.217 27.118C135.813 26.4662 135.183 26.1403 134.345 26.1403C133.578 26.1403 132.954 26.4603 132.472 27.0943C132.08 27.598 131.849 28.2084 131.777 28.9136L136.675 28.9194Z" fill="var(--fill-0, #233965)"/>
<path d="M54.1545 15.5156C53.5007 15.5156 52.9361 15.486 52.4665 15.4326V8.36332C53.1263 8.26256 53.792 8.20922 54.4576 8.21516C57.15 8.21516 58.3922 9.53657 58.3922 11.6876C58.3863 14.1704 56.9242 15.5156 54.1545 15.5156ZM54.5527 9.12181C54.1902 9.12181 53.8811 9.14551 53.6255 9.19879V14.5675C53.7622 14.5912 54.0297 14.5971 54.4041 14.5971C56.1693 14.5971 57.1738 13.5957 57.1738 11.7232C57.1678 10.0462 56.2585 9.12181 54.5527 9.12181ZM62.2555 15.5689C60.7399 15.5689 59.7533 14.4371 59.7533 12.9024C59.7533 11.3024 60.7578 10.1647 62.3388 10.1647C63.8365 10.1647 64.8412 11.2432 64.8412 12.8194C64.8412 14.4371 63.8068 15.5689 62.2555 15.5689ZM62.2971 11.0061C61.465 11.0061 60.9301 11.7824 60.9301 12.8727C60.9301 13.9393 61.4769 14.7156 62.2853 14.7156C63.0996 14.7156 63.6404 13.886 63.6404 12.849C63.6463 11.7943 63.1114 11.0061 62.2971 11.0061ZM73.4947 10.2714L71.8722 15.4504H70.8142L70.1426 13.2046C69.976 12.6535 69.8338 12.0965 69.7267 11.5335H69.703C69.6197 12.0965 69.4589 12.6653 69.2865 13.2046L68.5733 15.4504H67.5038L65.976 10.2714H67.1648L67.753 12.7305C67.8902 13.3171 68.0087 13.8682 68.1042 14.3956H68.1279C68.2112 13.9571 68.3535 13.4179 68.556 12.7424L69.2929 10.2714H70.2317L70.9392 12.689C71.1115 13.2757 71.248 13.8505 71.3551 14.3956H71.3845C71.4621 13.8623 71.5749 13.2994 71.7357 12.689L72.3656 10.2714H73.4947ZM79.48 15.4504H78.3271V12.4757C78.3271 11.5573 77.976 11.101 77.2807 11.101C76.5976 11.101 76.1279 11.6876 76.1279 12.369V15.4504H74.975V11.7528C74.975 11.2965 74.9629 10.8047 74.9334 10.2714H75.9497L76.0029 11.0713H76.0324C76.3419 10.5203 76.9718 10.1647 77.6793 10.1647C78.7667 10.1647 79.4857 10.9943 79.4857 12.3513L79.48 15.4504ZM82.6597 15.4504H81.5069V7.89514H82.6597V15.4504ZM86.8737 15.5689C85.3582 15.5689 84.3713 14.4371 84.3713 12.9024C84.3713 11.3024 85.3761 10.1647 86.957 10.1647C88.4546 10.1647 89.4594 11.2432 89.4594 12.8194C89.4594 14.4371 88.4194 15.5689 86.8737 15.5689ZM86.9154 11.0061C86.0829 11.0061 85.5485 11.7824 85.5485 12.8727C85.5485 13.9393 86.0951 14.7156 86.9032 14.7156C87.7177 14.7156 88.2585 13.886 88.2585 12.849C88.2585 11.7943 87.7298 11.0061 86.9154 11.0061ZM94.0118 15.4504L93.9285 14.8519H93.899C93.5484 15.3319 93.0313 15.563 92.3777 15.563C91.444 15.563 90.7846 14.9112 90.7846 14.0401C90.7846 12.7601 91.8958 12.1024 93.8214 12.1024V12.0076C93.8214 11.3261 93.4594 10.9824 92.7461 10.9824C92.2348 10.9824 91.783 11.1128 91.3908 11.3676L91.1588 10.6091C91.6407 10.3128 92.2405 10.1588 92.9422 10.1588C94.2969 10.1588 94.9864 10.8699 94.9864 12.2979V14.206C94.9864 14.7275 95.0101 15.1363 95.064 15.4444L94.0118 15.4504ZM93.8515 12.8727C92.5674 12.8727 91.9259 13.1809 91.9259 13.9156C91.9259 14.4608 92.2585 14.7275 92.716 14.7275C93.3049 14.7275 93.8515 14.283 93.8515 13.6727V12.8727ZM100.579 15.4504L100.526 14.6208H100.496C100.164 15.2489 99.6048 15.5689 98.8262 15.5689C97.5721 15.5689 96.6449 14.4727 96.6449 12.9261C96.6449 11.3083 97.608 10.1647 98.9211 10.1647C99.617 10.1647 100.11 10.3958 100.383 10.8699H100.407V7.89514H101.56V14.0519C101.56 14.5497 101.572 15.0237 101.602 15.4444H100.579V15.4504ZM100.413 12.4046C100.413 11.6816 99.9316 11.0595 99.1947 11.0595C98.3386 11.0595 97.8156 11.818 97.8156 12.8787C97.8156 13.9216 98.3565 14.6386 99.171 14.6386C99.8957 14.6386 100.413 14.0105 100.413 13.2639V12.4046ZM108.895 15.5689C107.379 15.5689 106.392 14.4371 106.392 12.9024C106.392 11.3024 107.396 10.1647 108.978 10.1647C110.476 10.1647 111.48 11.2432 111.48 12.8194C111.48 14.4371 110.446 15.5689 108.895 15.5689ZM108.936 11.0061C108.104 11.0061 107.569 11.7824 107.569 12.8727C107.569 13.9393 108.116 14.7156 108.924 14.7156C109.739 14.7156 110.28 13.886 110.28 12.849C110.285 11.7943 109.75 11.0061 108.936 11.0061ZM116.538 15.4504V12.4757C116.538 11.5573 116.187 11.101 115.492 11.101C114.808 11.101 114.339 11.6876 114.339 12.369V15.4504H113.186V11.7528C113.186 11.2965 113.174 10.8047 113.144 10.2714H114.16L114.214 11.0713H114.244C114.553 10.5203 115.183 10.1647 115.89 10.1647C116.978 10.1647 117.697 10.9943 117.697 12.3513V15.4504H116.538ZM125.453 11.1365H124.181V13.649C124.181 14.2889 124.401 14.609 124.853 14.609C125.055 14.609 125.227 14.5853 125.364 14.5556L125.394 15.4267C125.168 15.5097 124.871 15.5571 124.497 15.5571C123.587 15.5571 123.04 15.0593 123.04 13.7438V11.1306H122.279V10.2654H123.04V9.31731L124.176 8.97365V10.2654H125.448L125.453 11.1365ZM131.569 15.4504H130.416V12.4994C130.416 11.575 130.065 11.1069 129.37 11.1069C128.77 11.1069 128.217 11.5098 128.217 12.3335V15.4563H127.064V7.89514H128.217V11.0061H128.241C128.604 10.4432 129.132 10.1647 129.804 10.1647C130.904 10.1647 131.575 11.018 131.575 12.369L131.569 15.4504ZM137.828 13.1394H134.363C134.386 14.1171 135.034 14.6741 135.997 14.6741C136.508 14.6741 136.984 14.5912 137.399 14.4312L137.578 15.2311C137.085 15.4444 136.508 15.5511 135.837 15.5511C134.214 15.5511 133.252 14.526 133.252 12.9438C133.252 11.3557 134.238 10.1647 135.706 10.1647C137.031 10.1647 137.863 11.1424 137.863 12.6239C137.875 12.7898 137.863 12.9675 137.828 13.1394ZM136.77 12.3157C136.77 11.5157 136.366 10.9528 135.629 10.9528C134.963 10.9528 134.44 11.5276 134.368 12.3157H136.77Z" fill="var(--fill-0, #233965)"/>
</g>
</g>
</svg>
