<svg preserveAspectRatio="none" width="100%" height="100%" overflow="visible" style="display: block;" viewBox="0 0 158 47" fill="none" xmlns="http://www.w3.org/2000/svg">
<g id="Google">
<rect x="0.5" y="0.5" width="157" height="46" rx="12" stroke="var(--stroke-0, #233965)" stroke-opacity="0.3"/>
<g id="Vector">
<path d="M56.6461 12.5466C56.6461 13.4268 56.4254 14.1971 55.8736 14.7472C55.2114 15.4074 54.4389 15.7375 53.4456 15.7375C52.4523 15.7375 51.6798 15.4074 51.0176 14.7472C50.3554 14.087 50.0243 13.3168 50.0243 12.3265C50.0243 11.3363 50.3554 10.5661 51.0176 9.90585C51.6798 9.24569 52.4523 8.91557 53.4456 8.91557C53.887 8.91557 54.3285 9.02559 54.7699 9.24569C55.2114 9.46572 55.5425 9.68582 55.7632 10.0159L55.2114 10.566C54.7699 10.0159 54.2181 9.79583 53.4456 9.79583C52.7834 9.79583 52.1212 10.0159 51.6798 10.566C51.128 11.0061 50.9073 11.6664 50.9073 12.4366C50.9073 13.2068 51.128 13.867 51.6798 14.3071C52.2316 14.7472 52.7834 15.0773 53.4456 15.0773C54.2181 15.0773 54.7699 14.8572 55.3218 14.3071C55.6528 13.977 55.8736 13.5368 55.8736 12.9867H53.4456V12.2165H56.6461C56.6461 12.2165 56.6461 12.3265 56.6461 12.5466Z" fill="var(--fill-0, #233965)"/>
<path d="M61.7233 9.79583H58.7435V11.8864H61.5025V12.6567H58.7435V14.7472H61.7233V15.5174H57.8606V8.91557H61.7233V9.79583Z" fill="var(--fill-0, #233965)"/>
<path d="M65.3654 15.5174H64.4822V9.68582H62.606V8.91557H67.241V9.68582H65.3654V15.5174Z" fill="var(--fill-0, #233965)"/>
<path d="M70.4419 15.5174V8.91557H71.3243V15.5174H70.4419Z" fill="var(--fill-0, #233965)"/>
<path d="M75.0769 15.5174H74.1945V9.68582H72.3182V8.91557H76.843V9.68582H74.9667V15.5174H75.0769Z" fill="var(--fill-0, #233965)"/>
<path d="M85.5613 14.7472C84.8994 15.4074 84.1265 15.7375 83.1333 15.7375C82.14 15.7375 81.3678 15.4074 80.7052 14.7472C80.0433 14.087 79.712 13.3168 79.712 12.3265C79.712 11.3363 80.0433 10.5661 80.7052 9.90585C81.3678 9.24569 82.14 8.91557 83.1333 8.91557C84.1265 8.91557 84.8994 9.24569 85.5613 9.90585C86.2233 10.5661 86.5546 11.3363 86.5546 12.3265C86.5546 13.2068 86.2233 14.087 85.5613 14.7472ZM81.3678 14.1971C81.8093 14.6372 82.4713 14.9673 83.1333 14.9673C83.7959 14.9673 84.4578 14.7472 84.8994 14.1971C85.3409 13.7569 85.6715 13.0968 85.6715 12.3265C85.6715 11.5563 85.4511 10.8961 84.8994 10.456C84.4578 10.0159 83.7959 9.68582 83.1333 9.68582C82.4713 9.68582 81.8093 9.90585 81.3678 10.456C80.9263 10.8961 80.595 11.5563 80.595 12.3265C80.595 12.9867 80.8161 13.6469 81.3678 14.1971Z" fill="var(--fill-0, #233965)"/>
<path d="M87.7689 15.5174V8.91557H88.7622L91.9624 14.087V8.91557H92.8455V15.5174H91.9624L88.5411 10.1259V15.5174H87.7689Z" fill="var(--fill-0, #233965)"/>
<path d="M79.4909 25.2001C76.8424 25.2001 74.7456 27.1806 74.7456 29.9314C74.7456 32.5722 76.8424 34.6627 79.4909 34.6627C82.1394 34.6627 84.2368 32.6822 84.2368 29.9314C84.2368 27.1806 82.1394 25.2001 79.4909 25.2001ZM79.4909 32.6822C78.0561 32.6822 76.8424 31.4719 76.8424 29.8214C76.8424 28.1709 78.0561 26.9606 79.4909 26.9606C80.9257 26.9606 82.1394 28.0609 82.1394 29.8214C82.1394 31.5819 80.9257 32.6822 79.4909 32.6822ZM69.2269 25.2001C66.5784 25.2001 64.4816 27.1806 64.4816 29.9314C64.4816 32.5722 66.5784 34.6627 69.2269 34.6627C71.876 34.6627 73.9728 32.6822 73.9728 29.9314C73.9728 27.1806 71.876 25.2001 69.2269 25.2001ZM69.2269 32.6822C67.7928 32.6822 66.5784 31.4719 66.5784 29.8214C66.5784 28.1709 67.7928 26.9606 69.2269 26.9606C70.6617 26.9606 71.876 28.0609 71.876 29.8214C71.876 31.5819 70.6617 32.6822 69.2269 32.6822ZM56.9769 26.6305V28.611H61.7225C61.6122 29.7114 61.1707 30.5916 60.6189 31.1417C59.9567 31.8019 58.8531 32.5722 56.9769 32.5722C53.9971 32.5722 51.7899 30.2615 51.7899 27.2907C51.7899 24.3199 54.1075 22.0092 56.9769 22.0092C58.522 22.0092 59.736 22.6694 60.6189 23.4396L62.0536 22.0092C60.8396 20.9089 59.2945 20.0287 57.0873 20.0287C53.1142 20.0287 49.693 23.3296 49.693 27.2907C49.693 31.2518 53.1142 34.5527 57.0873 34.5527C59.2945 34.5527 60.8396 33.8925 62.164 32.4621C63.4883 31.1417 63.9297 29.2712 63.9297 27.8409C63.9297 27.4007 63.9297 26.9606 63.8194 26.6305H56.9769ZM107.082 28.1709C106.64 27.0706 105.536 25.2001 103.109 25.2001C100.681 25.2001 98.6942 27.0706 98.6942 29.9314C98.6942 32.5722 100.681 34.6627 103.329 34.6627C105.426 34.6627 106.751 33.3424 107.192 32.5722L105.647 31.4719C105.095 32.242 104.433 32.7922 103.329 32.7922C102.226 32.7922 101.563 32.3521 101.011 31.3618L107.302 28.7211L107.082 28.1709ZM100.681 29.7114C100.681 27.9509 102.116 26.9606 103.109 26.9606C103.881 26.9606 104.654 27.4007 104.874 27.9509L100.681 29.7114ZM95.4933 34.2226H97.5901V20.4688H95.4933V34.2226ZM92.1829 26.1904C91.6305 25.6402 90.7481 25.0901 89.644 25.0901C87.3268 25.0901 85.1192 27.1806 85.1192 29.8214C85.1192 32.4621 87.2165 34.4427 89.644 34.4427C90.7481 34.4427 91.6305 33.8925 92.072 33.3424H92.1829V34.0026C92.1829 35.763 91.1896 36.7533 89.644 36.7533C88.4303 36.7533 87.5472 35.8731 87.3268 35.1029L85.5607 35.8731C86.1124 37.0834 87.437 38.6238 89.7548 38.6238C92.1829 38.6238 94.1694 37.1934 94.1694 33.7825V25.4202H92.1829V26.1904ZM89.7548 32.6822C88.32 32.6822 87.1057 31.4719 87.1057 29.8214C87.1057 28.1709 88.32 26.9606 89.7548 26.9606C91.1896 26.9606 92.2931 28.1709 92.2931 29.8214C92.2931 31.4719 91.1896 32.6822 89.7548 32.6822ZM116.683 20.4688H111.717V34.2226H113.814V29.0512H116.683C119 29.0512 121.208 27.4007 121.208 24.76C121.208 22.1192 119 20.4688 116.683 20.4688ZM116.793 27.1806H113.814V22.4493H116.793C118.338 22.4493 119.221 23.7697 119.221 24.76C119.111 25.8603 118.228 27.1806 116.793 27.1806ZM129.485 25.2001C127.94 25.2001 126.395 25.8603 125.843 27.2907L127.719 28.0609C128.161 27.2907 128.823 27.0706 129.596 27.0706C130.699 27.0706 131.692 27.7308 131.803 28.8311V28.9412C131.472 28.7211 130.589 28.391 129.706 28.391C127.719 28.391 125.733 29.4913 125.733 31.4719C125.733 33.3424 127.388 34.5527 129.154 34.5527C130.589 34.5527 131.251 33.8925 131.803 33.2324H131.913V34.3327H133.899V29.0512C133.679 26.5205 131.803 25.2001 129.485 25.2001ZM129.264 32.6822C128.602 32.6822 127.609 32.3521 127.609 31.4719C127.609 30.3716 128.823 30.0415 129.816 30.0415C130.699 30.0415 131.141 30.2616 131.692 30.4816C131.472 31.802 130.368 32.6822 129.264 32.6822ZM140.852 25.4202L138.535 31.3618H138.425L135.997 25.4202H133.789L137.432 33.7825L135.334 38.4038H137.432L143.06 25.4202H140.852ZM122.311 34.2226H124.408V20.4688H122.311V34.2226Z" fill="var(--fill-0, #233965)"/>
<path d="M15.2601 36.9734C14.8187 36.7534 14.598 36.2032 14.598 35.6531C14.598 35.543 14.598 35.323 14.598 35.2129C14.598 27.0707 14.598 18.9284 14.598 10.8961C14.598 10.456 14.7083 10.1259 14.8187 9.68582C14.9291 9.46572 15.1498 9.24569 15.3705 9.02565C20.1161 13.7569 24.7513 18.4882 29.3865 23.2196C24.641 27.6208 20.0057 32.2421 15.2601 36.9734Z" fill="var(--fill-0, #233965)"/>
<path d="M34.0216 18.3782C32.6972 19.6986 31.2625 21.0189 29.9381 22.4493C25.5236 17.9381 20.9988 13.4268 16.5842 8.91557C16.5842 8.91557 16.5842 8.80556 16.6946 8.80556C22.4335 11.9964 28.1723 15.1874 34.0216 18.3782Z" fill="var(--fill-0, #233965)"/>
<path d="M16.5842 36.9734C20.9988 32.5722 25.5236 28.171 29.9381 23.7697C31.1521 24.9801 32.4765 26.1904 33.9112 27.5108C28.1723 30.7017 22.4335 33.8926 16.6946 36.9734H16.5842Z" fill="var(--fill-0, #233965)"/>
<path d="M34.6842 27.0706C33.2494 25.7503 31.9251 24.4299 30.4904 23.1096C31.9251 21.6792 33.3598 20.2488 34.7945 18.8183C35.236 19.0384 35.6774 19.2585 36.1189 19.5885C37.2225 20.2488 38.4365 20.7989 39.5401 21.4591C39.8712 21.5691 40.0919 21.7892 40.3126 22.1192C40.7541 22.6694 40.7541 23.2196 40.3126 23.7697C40.0919 23.9898 39.8712 24.2099 39.5401 24.3199C37.9951 25.3102 36.3396 26.1904 34.6842 27.0706Z" fill="var(--fill-0, #233965)"/>
</g>
</g>
</svg>
