<svg preserveAspectRatio="none" width="100%" height="100%" overflow="visible" style="display: block;" viewBox="0 0 48 32" fill="none" xmlns="http://www.w3.org/2000/svg">
<g id="&#236;&#149;&#132;&#235;&#148;&#148;&#235;&#139;&#164;&#236;&#138;&#164;">
<g id="Vector">
<path d="M45.6671 26.0013C45.6023 25.6538 45.5011 25.4077 45.3635 25.2698C45.1395 25.0454 44.7576 24.9291 44.2301 24.9291C43.7025 24.9291 43.349 25.0157 43.1479 25.1901C42.9954 25.3199 42.9158 25.501 42.9158 25.7255C42.9158 26.0432 43.3571 26.2973 44.2301 26.492C45.2272 26.7083 45.9423 26.8976 46.3822 27.049C46.4982 27.0923 46.5994 27.1288 46.6709 27.1653C47.5601 27.5858 48 28.2226 48 29.0757C48 30.118 47.5669 30.8779 46.7074 31.3551C46.5994 31.4132 46.4982 31.4633 46.3822 31.5146C45.8263 31.7539 45.1759 31.8756 44.4473 31.8756C43.3571 31.8756 42.4746 31.6796 41.804 31.297C41.3817 31.0509 41.0659 30.7413 40.8555 30.3682C40.645 29.995 40.5397 29.5597 40.5397 29.0608H42.735C42.735 29.4366 42.8727 29.7341 43.1398 29.9369C43.407 30.1464 43.863 30.2559 44.5053 30.2559C44.9897 30.2559 45.35 30.1545 45.5888 29.9517C45.7764 29.7922 45.8627 29.6178 45.8627 29.4164C45.8627 29.0757 45.4296 28.8093 44.5701 28.6201C43.2842 28.3442 42.476 28.1198 42.144 27.9603C41.2629 27.5479 40.8298 26.9111 40.8298 26.0283C40.8298 25.3199 41.0538 24.7196 41.5153 24.2275C42.0928 23.6123 42.959 23.3081 44.1086 23.3081C45.0545 23.3081 45.8128 23.446 46.3835 23.7137C46.4335 23.7353 46.478 23.757 46.5212 23.7867C46.9327 24.0098 47.243 24.3072 47.4508 24.6777C47.6586 25.0454 47.7625 25.4875 47.7625 26.0013H45.6671Z" fill="var(--fill-0, white)"/>
<path d="M46.6413 20.8773C46.6413 20.834 46.6345 20.7975 46.6129 20.7691C46.5913 20.7326 46.563 20.711 46.5198 20.6975C46.4915 20.6893 46.447 20.6826 46.3822 20.6745H46.0503V21.0801H46.3822C46.4766 21.0733 46.5414 21.0584 46.5778 21.0219C46.621 20.9854 46.6426 20.934 46.6426 20.8773H46.6413ZM46.8153 20.6596C46.8585 20.7177 46.8801 20.7826 46.8801 20.8556C46.8801 20.957 46.8437 21.0436 46.7721 21.1166C46.7006 21.1896 46.6062 21.2328 46.4915 21.2396C46.5414 21.2612 46.5778 21.2829 46.6075 21.3113L46.8099 21.5789L46.9691 21.8466H46.7087L46.5859 21.6303C46.5077 21.4938 46.4429 21.391 46.3835 21.341C46.3768 21.3342 46.3687 21.3261 46.3552 21.3194L46.1825 21.2693H46.053V21.848H45.8357V20.4879H46.3053C46.335 20.4879 46.3633 20.4947 46.3849 20.4947C46.5009 20.4947 46.5873 20.5095 46.6453 20.5312C46.7168 20.5528 46.7748 20.5961 46.8194 20.6609L46.8153 20.6596Z" fill="var(--fill-0, white)"/>
<path d="M47.4292 21.1531C47.4292 20.9651 47.3861 20.7907 47.2916 20.6244C47.1972 20.4582 47.0676 20.3284 46.9017 20.2337C46.7357 20.1472 46.5616 20.0958 46.3889 20.0958H46.3822C46.2081 20.0958 46.0354 20.1472 45.8708 20.2337C45.7035 20.3284 45.574 20.4582 45.4795 20.6244C45.3864 20.7907 45.3351 20.9651 45.3351 21.1531C45.3351 21.341 45.3851 21.5073 45.4795 21.6736C45.5672 21.8318 45.6967 21.9629 45.8627 22.0562C46.0287 22.1508 46.2027 22.1941 46.3822 22.1941H46.3889C46.5697 22.1941 46.7425 22.1508 46.9098 22.0562C47.0757 21.9629 47.2053 21.8318 47.2916 21.6736C47.3861 21.5059 47.4292 21.3329 47.4292 21.1531ZM47.6384 21.1531C47.6384 21.3626 47.5871 21.5735 47.4711 21.775C47.3631 21.9778 47.2107 22.1292 47.0096 22.2374C46.8072 22.3536 46.6048 22.405 46.3876 22.405H46.3808C46.1649 22.405 45.9626 22.355 45.7602 22.2374C45.5578 22.1292 45.4066 21.9764 45.2974 21.775C45.1813 21.5722 45.1314 21.3626 45.1314 21.1531C45.1314 20.9286 45.1813 20.7191 45.2974 20.5163C45.4134 20.3135 45.5645 20.1621 45.7669 20.0539C45.9693 19.9458 46.1717 19.8944 46.3808 19.8876H46.3876C46.5967 19.8876 46.8005 19.9458 47.0015 20.0539C47.2039 20.1634 47.3631 20.3148 47.4711 20.5163C47.5871 20.7191 47.6384 20.9286 47.6384 21.1531Z" fill="var(--fill-0, white)"/>
<path d="M41.2832 20.8272H31.7558L21.8047 4.21142L28.7954 0L41.2832 20.8272Z" fill="var(--fill-0, white)"/>
<path d="M39.6573 31.7607H37.6846V31.3118C37.0194 31.7458 36.226 32 35.3733 32H35.3517C32.9971 31.9851 31.0838 30.0599 31.0838 27.7007C31.0838 25.3415 32.9985 23.4176 35.3517 23.4028H35.3733C36.2247 23.4028 37.0194 23.6569 37.6846 24.0896V23.6191H39.6573V31.7607ZM37.6859 27.2532C37.4768 26.1676 36.5161 25.3429 35.3746 25.3429H35.353C34.0604 25.351 33.0133 26.4069 33.0133 27.7021C33.0133 28.9973 34.0604 30.0545 35.353 30.0694H35.3746C36.5161 30.0694 37.4755 29.2379 37.6859 28.1523V27.2532Z" fill="var(--fill-0, white)"/>
<path d="M30.3984 31.7607H28.4271V31.3118C27.7551 31.7458 26.9685 32 26.1157 32H26.0941C23.7396 31.9851 21.8263 30.0599 21.8263 27.7007C21.8263 25.3415 23.7396 23.4176 26.0941 23.4028H26.1157C26.9685 23.4028 27.7551 23.6569 28.4271 24.0896V20.8272H30.3984V31.7607ZM28.4271 27.2532C28.2179 26.1676 27.2559 25.3429 26.1157 25.3429H26.0941C24.8015 25.351 23.7544 26.4069 23.7544 27.7021C23.7544 28.9973 24.8015 30.0545 26.0941 30.0694H26.1157C27.2559 30.0694 28.2179 29.2379 28.4271 28.1523V27.2532Z" fill="var(--fill-0, white)"/>
<path d="M26.0941 16.9335L28.419 20.8272H18.8996L13.3837 11.6284L13.6144 11.4918L20.3812 7.4102L26.0941 16.9335Z" fill="var(--fill-0, white)"/>
<path d="M21.0531 23.4028H18.9077V31.7607H21.0531V23.4028Z" fill="var(--fill-0, white)"/>
<path d="M21.0531 20.8705H18.9077V22.7592H21.0531V20.8705Z" fill="var(--fill-0, white)"/>
<path d="M17.9255 31.7607H15.9541V31.3118C15.2822 31.7458 14.4888 32 13.636 32H13.6144C11.2599 31.9851 9.3466 30.0599 9.3466 27.7007C9.3466 25.3415 11.2613 23.4176 13.6144 23.4028H13.636C14.4888 23.4028 15.2835 23.6569 15.9541 24.0896V20.8272H17.9255V31.7607ZM15.9541 27.2532C15.745 26.1676 14.7843 25.3429 13.636 25.3429H13.6144C12.3218 25.351 11.2748 26.4069 11.2748 27.7021C11.2748 28.9973 12.3218 30.0545 13.6144 30.0694H13.636C14.7843 30.0694 15.745 29.2379 15.9541 28.1523V27.2532Z" fill="var(--fill-0, white)"/>
<path d="M13.6144 17.5703L15.5642 20.8272H6.03812L4.96812 19.0399L11.9669 14.8272L13.6144 17.5703Z" fill="var(--fill-0, white)"/>
<path d="M8.5721 31.7607H6.60078V31.3118C5.92882 31.7458 5.13409 32 4.28268 32H4.26109C1.91466 31.9851 0 30.0599 0 27.7007C0 25.3415 1.91331 23.4176 4.26109 23.4028H4.28268C5.13409 23.4028 5.92882 23.6569 6.60078 24.0896V23.6191H8.5721V31.7607ZM6.60078 27.2532C6.39163 26.1676 5.43093 25.3429 4.28268 25.3429H4.26109C2.97521 25.351 1.9295 26.4069 1.9295 27.7021C1.9295 28.9973 2.97656 30.0545 4.26109 30.0694H4.28268C5.43093 30.0694 6.39163 29.2379 6.60078 28.1523V27.2532Z" fill="var(--fill-0, white)"/>
</g>
</g>
</svg>
