<svg preserveAspectRatio="none" width="100%" height="100%" overflow="visible" style="display: block;" viewBox="0 0 109 18" fill="none" xmlns="http://www.w3.org/2000/svg">
<g id="alipay+">
<g id="Vector">
<path d="M25.9369 15.8653H26.7332V3.20107C26.7332 2.61305 26.2551 2.13557 25.6647 2.13557H24.8948V14.8261C24.8948 15.3998 25.3616 15.8653 25.9369 15.8653Z" fill="var(--fill-0, white)"/>
<path d="M53.0229 3.39727C54.0604 3.39727 54.8047 2.71376 54.8047 1.69864C54.8001 0.703068 54.0559 0 53.0183 0C51.9808 0 51.2418 0.702316 51.2418 1.69864C51.2418 2.69496 51.9853 3.39727 53.0236 3.39727H53.0229Z" fill="var(--fill-0, white)"/>
<path d="M49.3574 0.430136H46.2643V14.6809H49.3574V0.430136Z" fill="var(--fill-0, white)"/>
<path d="M59.7323 14.5824C60.319 14.7419 60.9252 14.8208 61.5338 14.817C64.2936 14.817 66.7796 12.7876 66.7796 9.17523C66.7796 5.93812 64.979 4.00262 62.747 4.00262C61.6122 4.00262 60.7307 4.43198 59.7323 5.2516V4.21693H56.64V17.9993H59.7323V14.5824ZM59.7323 7.06754C60.3786 6.61863 60.9071 6.40132 61.573 6.40132V6.40433C62.7282 6.40433 63.6473 7.32094 63.6473 9.27374C63.6473 11.7724 62.2976 12.8846 60.7903 12.8846C60.4313 12.8883 60.0747 12.8357 59.7323 12.7282V7.06754Z" fill="var(--fill-0, white)"/>
<path d="M35.6934 11.9867H40.6075L41.351 14.6809H45.0111L40.842 0.918105H36.6918L32.0521 14.6809H34.9107L35.6934 11.9867ZM38.1795 3.39725H38.2579L40.0005 9.74139H36.3404L38.1802 3.39725H38.1795Z" fill="var(--fill-0, white)"/>
<path d="M54.5648 4.2169H51.4718V14.6809H54.5648V4.2169Z" fill="var(--fill-0, white)"/>
<path d="M68.4249 9.73763C67.9159 10.2452 67.7003 10.9678 67.7003 11.8077C67.7003 13.8184 69.2657 14.8914 70.7345 14.8914C71.8317 14.8914 72.7116 14.4824 73.906 13.5846L74.1217 14.6771V14.6809H77.2148L76.8423 12.0649V7.69235C76.8423 5.31246 75.433 4.00333 72.9461 4.00333C71.3611 4.00333 70.2648 4.27628 68.2681 4.88084L68.8162 7.28179C70.6365 6.46218 71.4396 6.11102 72.2811 6.11102C73.2998 6.11102 73.7492 6.83363 73.7492 7.94651V8.02471C70.2067 8.69093 69.1096 9.05863 68.4249 9.73839V9.73763ZM73.7492 12.1423C72.9273 12.592 72.4575 12.7665 71.9093 12.7665C71.1643 12.7665 70.6953 12.2792 70.6953 11.4987C70.6953 11.2054 70.7541 10.9122 70.9894 10.6783C71.3619 10.3076 72.085 10.0347 73.7492 9.64439V12.1423Z" fill="var(--fill-0, white)"/>
<path d="M79.8766 17.9218V18H82.5979L87.8634 4.23721L87.883 4.2169H84.9671L83.128 10.5813H83.0322L80.9141 4.2169H77.4493L81.6184 14.72L79.8766 17.9218Z" fill="var(--fill-0, white)"/>
<path d="M101.199 10.8325C101.45 10.8896 101.708 10.9257 101.976 10.9257H109V9.11954C109 8.18864 108.242 7.43519 107.309 7.43519H101.975V10.9242C101.708 10.9242 101.45 10.8889 101.199 10.8325Z" fill="var(--fill-0, white)"/>
<path d="M93.147 10.925H96.7747V7.43449H91.4572V9.2399C91.4572 10.1708 92.2135 10.925 93.147 10.925Z" fill="var(--fill-0, white)"/>
<path d="M91.4562 7.43141L91.4542 7.43479H91.4562V7.43141Z" fill="var(--fill-0, white)"/>
<path d="M101.199 10.8325C101.45 10.8889 101.708 10.9249 101.975 10.9242V2.11597C101.975 1.18657 101.218 0.433125 100.286 0.433125H98.4721V7.43746C98.4736 9.0985 99.6401 10.4813 101.199 10.8325L101.199 10.8325Z" fill="var(--fill-0, white)"/>
<path d="M101.976 17.927V12.6364H98.4721V16.2419C98.4721 17.1729 99.2284 17.927 100.162 17.927H101.976Z" fill="var(--fill-0, white)"/>
<path d="M14.7521 11.2769C17.3324 12.1363 17.9176 12.1822 17.9176 12.1822V2.94385C17.9176 1.36702 16.6342 0.0894726 15.0484 0.0894726H2.86989C1.28414 0.0894726 0 1.36702 0 2.94385V15.0524C0 16.6284 1.28414 17.906 2.86989 17.906H15.0484C16.6342 17.906 17.9176 16.6277 17.9176 15.0524V14.9358C17.9176 14.9358 13.2568 13.0041 10.9035 11.8784C9.32525 13.8094 7.28934 14.9817 5.175 14.9817C1.60008 14.9817 0.386071 11.8709 2.0789 9.82336C2.44762 9.37671 3.07574 8.95036 4.05072 8.71199C5.57464 8.33978 8.00115 8.94434 10.2746 9.69026C10.6833 8.94133 11.0279 8.11645 11.2843 7.23818H4.27769V6.53211H7.89031V5.26735H3.5146V4.56127H7.89031V2.75661C7.89031 2.75661 7.89031 2.45283 8.20022 2.45283H9.96619V4.56127H14.2929V5.26735H9.96619V6.53211H13.4981C13.1603 7.90891 12.6468 9.17594 12.0029 10.2881C13.0744 10.6738 14.0365 11.0385 14.7536 11.2776L14.7521 11.2769Z" fill="var(--fill-0, white)"/>
<path d="M4.35466 9.76771C3.90676 9.81207 3.06675 10.0091 2.60679 10.4129C1.22915 11.607 2.05332 13.7906 4.84102 13.7906C6.46146 13.7906 8.08039 12.7604 9.35246 11.1114C7.54351 10.2332 6.01054 9.60529 4.35466 9.76771Z" fill="var(--fill-0, white)"/>
</g>
</g>
</svg>
