<svg preserveAspectRatio="none" width="100%" height="100%" overflow="visible" style="display: block;" viewBox="0 0 74 26" fill="none" xmlns="http://www.w3.org/2000/svg">
<g id="&#236;&#149;&#140;&#235;&#166;&#172;&#237;&#142;&#152;&#236;&#157;&#180;">
<g id="Vector">
<path d="M4.19853 0C1.87766 0 0 1.86417 0 4.16593V21.835C0 24.1346 1.87766 26 4.19853 26H22.0117C24.3308 26 26.2091 24.1346 26.2091 21.835V21.6541C26.1309 21.6218 19.3978 18.8356 15.9752 17.203C13.6662 20.0218 10.688 21.7318 7.59591 21.7318C2.36706 21.7318 0.591543 17.192 3.06726 14.2039C3.60699 13.5526 4.52539 12.93 5.95066 12.5817C8.18035 12.0383 11.7284 12.9208 15.0541 14.0098C15.6525 12.9164 16.1555 11.7125 16.5303 10.4305H6.28196V9.40091H11.5665V7.55453H5.16579V6.52431H11.5665V3.89051C11.5665 3.89051 11.5665 3.447 12.0198 3.447H14.6032V6.52431H20.9308V7.55482H14.6032V9.40121H19.7681C19.274 11.4098 18.5235 13.2588 17.5814 14.8817C19.1488 15.4441 20.556 15.9777 21.6046 16.326C25.1024 17.487 26.0827 17.629 26.2094 17.6438V4.16593C26.2091 1.86447 24.3308 0 22.0117 0H4.19853ZM7.07276 14.0868C6.84834 14.0895 6.62273 14.1017 6.39565 14.1239C5.74075 14.1891 4.51148 14.4758 3.8394 15.0655C1.82496 16.8084 3.03055 19.9942 7.10769 19.9942C9.47771 19.9942 11.8457 18.4911 13.7062 16.0844C11.3077 14.9235 9.24234 14.0616 7.07276 14.0868Z" fill="var(--fill-0, white)"/>
<path d="M71.7925 18.0746L70.6225 20.6023L69.4352 18.0746H68.2752L70.0816 21.5693V24.0072H71.1456V21.5693L71.1521 21.5557L72.9513 18.0746H71.7925ZM63.2267 19.6038L64.0518 22.0641H62.3722L63.2267 19.6038ZM64.3056 22.8118L64.7032 24.0066H65.8185L63.6225 18.0743H62.7699L60.5813 24.0066H61.6975L62.1123 22.8118H64.3056ZM55.9825 20.9106H54.798V18.881H55.9825C56.5779 18.881 56.9335 19.3989 56.9335 19.8996C56.9335 20.4004 56.6007 20.9106 55.9825 20.9106ZM56.0426 18.0743H53.7256V24.0066H54.798V21.7259H56.0426C57.1991 21.7259 58.0067 20.9746 58.0067 19.8996C58.0067 18.8247 57.1988 18.0743 56.0426 18.0743ZM48.3043 24.0066H49.3775V18.0743H48.3043V24.0066ZM40.7602 18.0743V24.0066H44.3705V23.1981H41.8329V18.074L40.7602 18.0743ZM34.6509 19.6035L35.4754 22.0638H33.7967L34.6509 19.6035ZM35.7297 22.8115L36.1273 24.0063H37.2417L35.0458 18.074H34.194L32.0055 24.0063H33.1208L33.5356 22.8115H35.7297ZM43.2794 6.47717H38.6789V4.83683H44.0134V3.81521H38.6789V1.73729H36.3005C36.0397 1.73729 35.8292 1.95489 35.8292 2.2226V3.8158H30.532V4.83742H35.8292V6.47776H31.3583V7.49849H40.2634C40.2634 7.49849 39.7702 9.41544 37.327 11.4759C35.1385 9.82752 34.4072 8.51478 34.4072 8.51478H32.0179C32.9846 10.1815 34.3577 11.5159 35.8369 12.5746C34.4782 13.4527 32.7163 14.2991 30.4384 14.9771V16.2C30.4384 16.2 33.9527 15.5404 37.3495 13.5491C40.7519 15.525 44.1685 16.2 44.1685 16.2V15.0423C41.9818 14.2505 40.2492 13.3795 38.8888 12.5393C40.8594 11.0866 42.5864 9.11542 43.2786 6.47806M58.2226 1.94244H55.828V4.43186H49.9253V5.43421H55.828V14.3845C55.807 14.5896 55.6447 14.7491 55.4413 14.7601H54.2239V15.7971H57.3279C57.8193 15.7773 58.2116 15.3717 58.2226 14.8689V5.43361H59.1946V4.43127H58.2226V1.94244ZM53.1722 7.12317C53.0846 6.94529 52.9061 6.82285 52.6982 6.82107H50.703L52.258 11.6911H54.6179L53.1722 7.12317ZM47.2787 1.82445L44.5321 8.28857H46.6395V15.9801H48.9438V5.77692H48.1086L49.8439 1.82415L47.2787 1.82445ZM73.9997 15.627L73.158 12.7981C73.1014 12.6176 72.9374 12.4871 72.742 12.4871H70.5109L71.1583 14.6599H68.5346V10.4504H73.6859V9.44864H68.5346V7.46707H73.6859V6.46531H60.8312V7.46707H65.9816V9.44835H60.8312V10.4501H65.9816V14.6596H60.8312V15.6614H74L73.9891 15.627H73.9997ZM63.5097 4.0758H71.0118V5.55368H73.6918V3.80276C73.6909 3.7992 73.6909 3.79742 73.6909 3.79268C73.6909 3.39897 73.3809 3.08057 72.9969 3.07434H68.6601V1.69637H65.8561V3.07434H60.8306V5.55398H63.5097V4.0758Z" fill="var(--fill-0, white)"/>
</g>
</g>
</svg>
