<svg preserveAspectRatio="none" width="100%" height="100%" overflow="visible" style="display: block;" viewBox="0 0 161 16" fill="none" xmlns="http://www.w3.org/2000/svg">
<g id="&#236;&#149;&#132;&#235;&#170;&#168;&#235;&#160;&#136;&#237;&#141;&#188;&#236;&#139;&#156;&#237;&#148;&#189;">
<g id="Vector">
<path d="M7.25172 2.44396C7.54753 3.16525 8.90829 6.51712 9.10268 6.98808L5.27398 6.97535C5.48105 6.50015 6.939 3.16525 7.25172 2.4482M6.4995 0.229182L0 15.041L1.85519 15.0495L4.63163 8.56642C4.63163 8.56642 9.44921 8.58339 9.70699 8.58764C9.80841 8.83372 12.3651 15.092 12.3651 15.092L14.3217 15.1004L8.1603 0.233425H6.50373L6.4995 0.229182Z" fill="var(--fill-0, white)"/>
<path d="M29.1294 0.31404C29.1294 0.31404 24.3499 11.2479 23.9907 12.071C23.6357 11.2479 18.9365 0.275854 18.9365 0.275854L16.5826 0.267368L16.5277 15.1047L18.2857 15.1132L18.3321 3.10585L23.5343 15.1301H24.4048C24.4048 15.1301 28.9815 4.61631 29.6154 3.15676L29.5689 15.1514L31.3269 15.1598L31.3819 0.322526L29.1337 0.31404H29.1294Z" fill="var(--fill-0, white)"/>
<path d="M69.0773 0.466783L69.0223 15.2999L79.4351 15.3423L79.4393 13.6961L70.7888 13.6664L70.8099 8.46884L78.6702 8.49854L78.6786 6.85655L70.8141 6.82685L70.831 2.11302L79.1561 2.14696L79.1646 0.504969L69.0773 0.466783Z" fill="var(--fill-0, white)"/>
<path d="M61.9777 8.29064C64.2935 7.90454 65.5275 6.585 65.5317 4.4466C65.5402 1.7948 63.761 0.445569 60.2324 0.43284L54.0625 0.407383L54.0371 6.75896L50.1281 6.74623C49.7013 2.74096 46.722 0.0170389 42.5933 6.73809e-05C38.1011 -0.0169041 34.9486 3.17373 34.9317 7.75179C34.9147 12.3383 38.0419 15.5502 42.5341 15.5672C46.8361 15.5841 49.8999 12.6566 50.1704 8.38822L54.0371 8.40095L54.0118 15.2447L55.7698 15.2532L55.7951 8.40944L60.1479 8.42641C60.2662 8.63007 64.1583 15.2829 64.1583 15.2829L66.1698 15.2914C66.1698 15.2914 62.2693 8.77008 61.9819 8.29064M42.5383 13.9252C39.0773 13.9124 36.6685 11.3794 36.6854 7.76028C36.6981 4.14535 39.128 1.62933 42.5848 1.64206C46.0417 1.65479 48.4462 4.19202 48.4335 7.80695C48.4209 11.4261 45.9994 13.9421 42.5383 13.9294M55.7782 6.73775L55.7951 2.02816L60.6127 2.04513C63.461 2.05362 63.7653 3.70409 63.761 4.41265C63.761 5.11697 63.4441 6.76745 60.5958 6.75472L55.7782 6.73775Z" fill="var(--fill-0, white)"/>
<path d="M85.0048 0.526183L84.9499 15.3635H85.9261L85.9557 8.12092L89.4632 8.13365C91.572 8.14214 93.8286 7.15779 93.8371 4.37447C93.8498 0.929257 90.5746 0.547398 89.1674 0.543155L85.0091 0.526183M86.2008 1.39173L89.3364 1.40446C90.9634 1.4087 92.8609 2.19363 92.8524 4.37023C92.844 6.52136 91.0691 7.28083 89.4041 7.27659L85.9599 7.26386L85.981 1.39173H86.205M99.6308 0.581341L93.1271 15.3932H94.1371C94.1371 15.3932 96.8671 9.02041 96.922 8.89737L103.198 8.92283C103.252 9.05011 105.856 15.4441 105.856 15.4441H106.976L100.806 0.585584H99.6266M99.9351 1.84572C99.9351 1.84572 100.049 1.57417 100.142 1.36627C100.315 1.80329 102.728 7.79846 102.838 8.07001L97.2939 8.04879C97.4164 7.76876 99.9351 1.84147 99.9351 1.84147M108.564 8.03182C108.548 12.6141 111.671 15.8302 116.159 15.8472C118.343 15.8557 120.106 15.0368 121.407 13.4203L121.475 13.3354L120.663 12.7117L120.6 12.7966C119.358 14.4258 117.431 14.9944 116.159 14.9901C112.25 14.9732 109.528 12.1177 109.545 8.04031C109.562 3.96291 112.3 1.12867 116.209 1.1414C117.819 1.14564 119.281 1.84572 120.224 3.05493L120.291 3.14403L121.107 2.45669L121.035 2.38032C119.848 0.997142 118.229 0.292826 116.213 0.28434C111.725 0.267368 108.577 3.45801 108.56 8.03607M148.086 8.18457C148.069 12.7669 151.192 15.983 155.68 15.9999C157.864 16.0084 159.627 15.1895 160.932 13.573L161 13.4882L160.189 12.8645L160.125 12.9493C158.883 14.5786 156.96 15.1471 155.684 15.1429C151.775 15.1259 149.053 12.2705 149.066 8.19305C149.083 4.11565 151.825 1.28141 155.734 1.29414C157.345 1.29839 158.807 1.99846 159.749 3.20768L159.817 3.29678L160.637 2.60943L160.565 2.53306C159.377 1.14989 157.754 0.445569 155.739 0.437083C151.251 0.420112 148.107 3.61075 148.086 8.18881M125.523 15.5162H126.512L126.567 0.68317H125.578L125.523 15.5162ZM130.768 0.700141L130.713 15.5375H131.697L131.727 8.29488L138.877 8.32458V7.46752L131.731 7.44206L131.752 1.56993L139.443 1.59963V0.734084L130.768 0.700141ZM143.555 15.5841H144.54L144.595 0.751056H143.61L143.555 15.5841Z" fill="var(--fill-0, white)"/>
</g>
</g>
</svg>
