<svg preserveAspectRatio="none" width="100%" height="100%" overflow="visible" style="display: block;" viewBox="0 0 95 14" fill="none" xmlns="http://www.w3.org/2000/svg">
<g id="&#236;&#191;&#160;&#236;&#191;&#160;">
<g id="Vector">
<path d="M67.8041 0C63.0387 0 59.1743 3.1211 59.1743 6.97431C59.1743 10.8275 63.0387 13.9486 67.8041 13.9486C72.5694 13.9486 76.4338 10.8275 76.4338 6.97431C76.4338 3.1211 72.5694 0 67.8041 0ZM67.8041 11.1272C64.9688 11.1272 62.6672 9.26911 62.6672 6.97431C62.6672 4.67951 64.9688 2.82141 67.8041 2.82141C70.6394 2.82141 72.9409 4.67951 72.9409 6.97431C72.9409 9.26911 70.6394 11.1272 67.8041 11.1272Z" fill="var(--fill-0, white)"/>
<path d="M86.3702 0C81.6049 0 77.7405 3.1211 77.7405 6.97431C77.7405 10.8275 81.6049 13.9486 86.3702 13.9486C91.1356 13.9486 95 10.8275 95 6.97431C95 3.1211 91.1399 0 86.3702 0ZM86.3702 11.1272C83.5349 11.1272 81.2334 9.26911 81.2334 6.97431C81.2334 4.67951 83.5349 2.82141 86.3702 2.82141C89.2055 2.82141 91.5071 4.67951 91.5071 6.97431C91.5071 9.26911 89.2055 11.1272 86.3702 11.1272Z" fill="var(--fill-0, white)"/>
<path d="M8.62976 11.1272C5.79445 11.1272 3.4929 9.26911 3.4929 6.97431C3.4929 4.67951 5.79445 2.82141 8.62976 2.82141C10.2054 2.82141 11.6145 3.39511 12.5539 4.29847L14.5053 1.87095C12.9681 0.710703 10.9014 0 8.62976 0C3.86439 0 0 3.1211 0 6.97431C0 10.8275 3.86439 13.9486 8.62976 13.9486C10.8843 13.9486 12.934 13.2508 14.4712 12.1034L12.5411 9.663C11.5974 10.5578 10.1969 11.1272 8.62976 11.1272Z" fill="var(--fill-0, white)"/>
<path d="M39.1392 11.1272C36.3039 11.1272 34.0024 9.26911 34.0024 6.97431C34.0024 4.67951 36.3039 2.82141 39.1392 2.82141C40.7149 2.82141 42.124 3.39511 43.0634 4.29847L45.0148 1.87095C43.4733 0.710703 41.4066 0 39.135 0C34.3696 0 30.5052 3.1211 30.5052 6.97431C30.5052 10.8275 34.3696 13.9486 39.135 13.9486C41.3896 13.9486 43.4392 13.2508 44.9764 12.1034L43.0463 9.663C42.1027 10.5578 40.7021 11.1272 39.135 11.1272H39.1392Z" fill="var(--fill-0, white)"/>
<path d="M26.1797 8.20306C26.1797 9.82997 24.8645 11.1443 23.2461 11.1443H21.7473C20.1247 11.1443 18.8138 9.82569 18.8138 8.20306V0H15.7736V8.16453C15.7736 11.3584 18.3569 13.9486 21.5424 13.9486H23.4468C26.6323 13.9486 29.2157 11.3584 29.2157 8.16453V0H26.1754V8.20306H26.1797Z" fill="var(--fill-0, white)"/>
<path d="M60.5151 0H56.2493L49.3959 6.39633V0H46.2916V14H49.3959V7.60367L56.2493 14H60.5151L52.8845 7L60.5151 0Z" fill="var(--fill-0, white)"/>
</g>
</g>
</svg>
