<svg preserveAspectRatio="none" width="100%" height="100%" overflow="visible" style="display: block;" viewBox="0 0 58 32" fill="none" xmlns="http://www.w3.org/2000/svg">
<g id="diesel" clip-path="url(#clip0_109_694)">
<g id="Vector">
<path fill-rule="evenodd" clip-rule="evenodd" d="M0 0H58V32H0V0Z" fill="white"/>
<path fill-rule="evenodd" clip-rule="evenodd" d="M5.57541 26.6133H4.50338V26.9786H5.19712V27.3871H4.50338V28.1264H3.86538V26.1892H5.57541V26.6133ZM7.42239 28.1522C6.81758 28.1522 6.30718 27.7589 6.30976 27.1357C6.30202 26.4708 6.82273 26.1624 7.42239 26.1624C8.02656 26.1624 8.50312 26.5432 8.5057 27.1408C8.50796 27.7547 8.02656 28.1522 7.42239 28.1522ZM7.74526 26.9059C7.73301 26.7394 7.59059 26.5539 7.40563 26.5539C7.2123 26.5539 7.08728 26.7365 7.06891 26.9059C7.05828 27.0074 7.03637 27.2682 7.06569 27.4327C7.09727 27.626 7.2268 27.7766 7.40563 27.7766C7.58092 27.7766 7.70369 27.626 7.73301 27.4279C7.7546 27.2921 7.75138 27.0222 7.74526 26.9059ZM10.0272 27.3988V28.1267H9.38601V26.1886H10.7667C11.1734 26.1886 11.3783 26.4323 11.3899 26.7672C11.3999 27.0364 11.2362 27.2831 10.9949 27.3684L11.3686 28.1267H10.6726L10.3591 27.3988H10.0272ZM10.0272 26.9909H10.487C10.5998 26.9909 10.6888 26.8994 10.6888 26.7872C10.6878 26.6767 10.5972 26.5859 10.487 26.5852H10.0276L10.0272 26.9909ZM13.8907 26.7371C13.8907 26.7856 13.9564 26.8176 14.0044 26.8238C14.182 26.8509 14.1894 26.8454 14.4159 26.8803C14.7072 26.9204 14.9331 27.0484 15.0562 27.3128C15.1216 27.4502 15.1116 27.6451 15.013 27.8022C14.8229 28.1021 14.403 28.1429 14.2303 28.1509C13.9796 28.1629 13.3877 28.1306 13.137 27.7282L13.4454 27.4912C13.4889 27.5268 13.5562 27.5876 13.6 27.6163C13.8208 27.7857 14.1462 27.7773 14.3025 27.7324C14.3457 27.7201 14.3969 27.6884 14.4082 27.6645C14.4426 27.6128 14.4233 27.532 14.3515 27.5203C14.2161 27.4912 14.1388 27.4987 13.8311 27.3968C13.6429 27.3413 13.3993 27.2498 13.2794 27.0002C13.2063 26.8438 13.2095 26.6618 13.2884 26.508C13.4064 26.281 13.7463 26.1986 13.8907 26.1776C14.2445 26.1314 14.654 26.1893 15.003 26.508L14.685 26.7494C14.4691 26.5891 14.1491 26.5755 13.968 26.646C13.9229 26.6673 13.8907 26.6886 13.8907 26.7371ZM16.937 27.6842C17.1877 27.6842 17.3072 27.5905 17.3072 27.4276V26.1886H17.8037V27.5058C17.8037 27.9244 17.5775 28.1526 16.9289 28.1526H16.8045C16.1569 28.1526 15.9303 27.9211 15.9303 27.5058V26.1883H16.5732V27.4324C16.5732 27.5821 16.684 27.6842 16.937 27.6842ZM20.6963 27.4692C20.6428 27.7825 20.3596 28.0291 20.0696 28.1092C19.9855 28.1338 19.8102 28.1529 19.6633 28.1529C19.1091 28.1529 18.6277 27.7059 18.6302 27.1334C18.6302 26.5797 19.1123 26.1624 19.6581 26.1624C19.8412 26.1624 19.9787 26.1893 20.0696 26.2128C20.3596 26.2853 20.6071 26.5025 20.6609 26.8173L20.1183 26.8745C20.1115 26.624 19.885 26.5438 19.7232 26.5539C19.4993 26.5639 19.3308 26.7491 19.3308 27.1431V27.189C19.3308 27.5853 19.4993 27.7611 19.7165 27.7779C19.9646 27.7931 20.1205 27.7324 20.1643 27.3988L20.6963 27.4692ZM23.5383 27.4692C23.4848 27.7825 23.2016 28.0291 22.9119 28.1092C22.8282 28.1338 22.6525 28.1529 22.505 28.1529C21.9514 28.1529 21.47 27.7059 21.4719 27.1334C21.4719 26.5797 21.954 26.1624 22.5008 26.1624C22.6835 26.1624 22.8211 26.1893 22.9119 26.2128C23.2019 26.2853 23.4494 26.5025 23.5026 26.8173L22.9596 26.8745C22.9532 26.624 22.7267 26.5438 22.5649 26.5539C22.3416 26.5639 22.1731 26.7491 22.1731 27.1431V27.189C22.1731 27.5853 22.3416 27.7611 22.5588 27.7779C22.8069 27.7931 22.9622 27.7324 23.006 27.3988L23.5383 27.4692ZM26.1371 28.1267H24.3455V26.1892H26.0575V26.6137H24.9861V26.9789H25.6772V27.3868H24.9861V27.7223H26.1371V28.1267ZM27.6083 26.7371C27.6083 26.7856 27.6734 26.8176 27.7214 26.8238C27.8996 26.8509 27.9064 26.8454 28.1335 26.8803C28.4242 26.9204 28.6507 27.0484 28.7741 27.3128C28.8389 27.4502 28.8289 27.6451 28.7309 27.8022C28.5402 28.1021 28.1207 28.1429 27.9476 28.1509C27.6973 28.1629 27.1047 28.1306 26.8546 27.7282L27.163 27.4912C27.2068 27.5268 27.2739 27.5876 27.317 27.6163C27.5384 27.7857 27.8638 27.7773 28.0195 27.7324C28.0633 27.7201 28.1145 27.6884 28.1268 27.6645C28.16 27.6128 28.141 27.532 28.0688 27.5203C27.9334 27.4912 27.8564 27.4987 27.5484 27.3968C27.3602 27.3413 27.1176 27.2498 26.9967 27.0002C26.9246 26.8435 26.9281 26.6618 27.0064 26.508C27.1247 26.281 27.4636 26.1986 27.6083 26.1776C27.9618 26.1314 28.372 26.1893 28.721 26.508L28.4032 26.7494C28.1867 26.5891 27.8664 26.5755 27.6853 26.646C27.6402 26.6673 27.6083 26.6886 27.6083 26.7371ZM30.2741 26.7371C30.2741 26.7856 30.3385 26.8176 30.3872 26.8238C30.5654 26.8509 30.5731 26.8454 30.7986 26.8803C31.0899 26.9204 31.3165 27.0484 31.4399 27.3128C31.5043 27.4502 31.495 27.6451 31.3964 27.8022C31.2059 28.1021 30.7864 28.1429 30.6134 28.1509C30.363 28.1629 29.7701 28.1306 29.5204 27.7282L29.8284 27.4912C29.8716 27.5268 29.9396 27.5876 29.9828 27.6163C30.2041 27.7857 30.5289 27.7773 30.6852 27.7324C30.729 27.7201 30.7803 27.6884 30.7916 27.6645C30.826 27.6128 30.8061 27.532 30.7345 27.5203C30.5992 27.4912 30.5222 27.4987 30.2141 27.3968C30.026 27.3413 29.7833 27.2498 29.6625 27.0002C29.5893 26.8438 29.5929 26.6615 29.6722 26.508C29.7894 26.281 30.1294 26.1986 30.2741 26.1776C30.6279 26.1314 31.0374 26.1893 31.3867 26.508L31.0683 26.7494C30.8525 26.5891 30.5322 26.5755 30.3511 26.646C30.3053 26.6673 30.2741 26.6886 30.2741 26.7371ZM34.0086 26.6133H32.9372V26.9786H33.631V27.3871H32.9372V28.1264H32.2989V26.1892H34.0086V26.6133ZM35.8749 27.6842C36.1256 27.6842 36.2465 27.5905 36.2465 27.4276V26.1886H36.742V27.5058C36.742 27.9244 36.5162 28.1526 35.8672 28.1526H35.7435C35.0955 28.1526 34.869 27.9211 34.869 27.5058V26.1883H35.5121V27.4324C35.5121 27.5821 35.6226 27.6842 35.8749 27.6842ZM38.2452 26.1889V27.7013H39.1722V28.1264H37.602V26.1889H38.2452ZM41.6859 26.1889V27.7013H42.6129V28.1264H41.0424V26.1889H41.6859ZM43.4401 28.1264H44.081V26.1889H43.4401V28.1264ZM45.4791 26.1889L45.9605 27.435L46.4496 26.1889H47.009L46.244 28.1264H45.5825L44.8311 26.1867L45.4791 26.1889ZM47.7988 28.1264H48.44V26.1889H47.7988V28.1264ZM50.7468 27.2372V26.1886H51.2446V28.1267H50.7126L49.7882 27.0148V28.1267H49.2945V26.1886H49.8745L50.7468 27.2372ZM53.1338 27.4841V27.1114H54.132V28.1309H53.9046L53.7451 27.924C53.5601 28.097 53.235 28.1532 53.0017 28.1532C52.4549 28.1532 52.0511 27.6722 52.0511 27.1237C52.0511 26.5671 52.5264 26.1624 53.0803 26.1624C53.2276 26.1624 53.4035 26.1808 53.4876 26.2002C53.7795 26.2781 54.0367 26.4905 54.0905 26.8079L53.5453 26.8661C53.5453 26.6767 53.3407 26.5412 53.1415 26.5412C52.9189 26.5412 52.7487 26.6644 52.7487 26.9598V27.38C52.7487 27.6499 52.9459 27.7615 53.1651 27.7615C53.3358 27.7615 53.5189 27.6208 53.5189 27.5009C53.5189 27.488 53.5147 27.4841 53.4998 27.4841H53.1338ZM52.2003 5.81495C52.2003 5.28356 52.6334 4.85042 53.1692 4.85042C53.6967 4.85042 54.1311 5.2855 54.132 5.81463C54.132 6.35604 53.7012 6.79046 53.1692 6.79046C52.6376 6.79046 52.2003 6.35184 52.2003 5.8185C52.2003 5.81721 52.2003 5.81624 52.2003 5.81495ZM52.3833 5.81495V5.82077C52.3833 6.24905 52.7349 6.6017 53.1618 6.6017H53.1718C53.5981 6.6017 53.949 6.2497 53.949 5.82206C53.949 5.81947 53.949 5.81721 53.949 5.81463C53.9471 5.38893 53.5972 5.03951 53.1728 5.03951C53.1715 5.03951 53.1705 5.03951 53.1692 5.03951C52.7326 5.03951 52.3833 5.38699 52.3833 5.81495ZM53.6503 6.36121H53.4663L53.1576 5.86117H52.9695V6.36121H52.81V5.27612H53.2804C53.3706 5.27612 53.4621 5.28194 53.5437 5.32848C53.6239 5.37503 53.6629 5.47168 53.6629 5.56218C53.6629 5.77616 53.5147 5.85632 53.3229 5.86117L53.6503 6.36121ZM53.1444 5.72703C53.2959 5.72703 53.5044 5.75451 53.5044 5.55895C53.5044 5.41834 53.3835 5.39992 53.2482 5.39992H52.9695V5.72703H53.1444ZM3.86506 4.84848H6.77956C12.4023 4.84848 12.9453 8.47192 12.9453 14.0606C12.9453 19.3907 12.5054 23.2714 7.32121 23.2714H3.86506V4.84848ZM7.21842 20.426C9.33349 20.4002 9.43724 19.6241 9.43724 14.0351C9.43724 8.47192 9.33349 7.72105 7.21842 7.69487V20.426ZM14.5023 23.2724H17.8553V4.84913H14.5023V23.2724ZM19.6533 4.84881H27.2358V7.69487H23.006V12.4044H26.1271V15.4062H23.006V20.4267H27.416V23.2721H19.6533V4.84881ZM30.9984 17.942C30.9984 18.9776 30.9984 20.7877 32.4429 20.7877C33.5514 20.7877 33.9384 19.754 33.9384 19.0035C33.9384 15.7162 27.851 14.9663 27.851 9.50658C27.851 6.73745 29.3477 4.48743 32.1845 4.48743C35.2018 4.48743 36.3628 6.78982 36.4401 10.101H33.4483C33.4483 9.06667 33.4483 7.33317 32.1072 7.33317C31.3074 7.33317 30.8434 8.00582 30.8434 9.01527C30.8434 12.1464 36.9296 13.2069 36.9296 18.5639C36.9296 21.3834 35.3313 23.6354 32.3131 23.6354C28.7284 23.6354 28.0063 20.4781 28.0063 17.942H30.9984ZM38.0686 4.84881H45.6518V7.69487H41.4217V12.4044H44.5427V15.4062H41.4217V20.4267H45.8319V23.2721H38.0686V4.84881ZM47.3274 4.84881H50.6814V20.4267H54.1337V23.2721H47.3274V4.84881Z" fill="var(--fill-0, #0B111D)"/>
</g>
</g>
<defs>
<clipPath id="clip0_109_694">
<rect width="58" height="32" fill="white"/>
</clipPath>
</defs>
</svg>
