<svg preserveAspectRatio="none" width="100%" height="100%" overflow="visible" style="display: block;" viewBox="0 0 82 28" fill="none" xmlns="http://www.w3.org/2000/svg">
<g id="HIVEX">
<g id="Vector">
<path d="M23.6252 22.081C24.4218 21.6207 25.0705 20.4917 25.0705 19.5737V8.42631C25.0705 7.50558 24.419 6.37933 23.6252 5.91897L13.9819 0.345273C13.1853 -0.115091 11.8851 -0.115091 11.0886 0.345273L1.44527 5.91897C0.648729 6.37933 0 7.50832 0 8.42631V19.5737C0 20.4944 0.651466 21.6207 1.44527 22.081L11.0886 27.6547C11.8851 28.1151 13.1853 28.1151 13.9819 27.6547L23.6252 22.081Z" fill="var(--fill-0, white)"/>
<path d="M7.82858 19.1354V15.2278C9.02203 14.3016 10.3715 13.4494 11.4609 12.978C12.2328 12.6437 12.6927 12.8136 13.1799 13.1123C13.3934 13.2411 13.7575 13.4685 14.0558 13.6795C14.6033 13.422 15.5996 12.7643 15.961 12.4711L12.2109 10.3172L7.83132 12.8492V8.8649C7.83132 8.68952 8.00377 8.54977 8.20359 8.53606C8.40614 8.52236 9.59411 8.43742 9.59411 8.43742V7.14675H3.03292V8.43742C3.03292 8.43742 4.19625 8.5251 4.37965 8.53606C4.56304 8.54703 4.75191 8.70322 4.75191 8.8649V19.1327C4.75191 19.2806 4.58494 19.4341 4.37965 19.4533C4.17435 19.4725 3.03292 19.5629 3.03292 19.5629V20.8535H9.59411V19.5629C9.59411 19.5629 8.37877 19.4725 8.20359 19.4533C8.0284 19.4341 7.83132 19.3053 7.83132 19.1327L7.82858 19.1354ZM20.6937 8.53606C20.8771 8.52236 22.0404 8.43742 22.0404 8.43742V7.14675H15.4792V8.43742C15.4792 8.43742 16.6699 8.52236 16.8697 8.53606C17.0723 8.54977 17.242 8.68952 17.242 8.8649V12.7725C16.0486 13.6987 14.6991 14.5509 13.6097 15.0223C12.8378 15.3566 12.3779 15.1867 11.8907 14.888C11.6772 14.7592 11.3131 14.5318 11.0147 14.3208C10.4673 14.5783 9.47093 15.236 9.10962 15.5292L12.8597 17.6831L17.2393 15.1511V19.1354C17.2393 19.308 17.0422 19.4341 16.867 19.456C16.6918 19.4752 15.4765 19.5656 15.4765 19.5656V20.8563H22.0377V19.5656C22.0377 19.5656 20.899 19.4725 20.6909 19.456C20.4856 19.4396 20.3187 19.2861 20.3187 19.1354V8.86764C20.3187 8.70596 20.5103 8.55251 20.6909 8.5388L20.6937 8.53606Z" fill="#0B111D"/>
<path d="M31.4239 20.3053V7.6919H34.4075V12.6162H38.6037V7.6919H41.5873V20.3053H38.6037V15.329H34.4075V20.3053H31.4239Z" fill="var(--fill-0, white)"/>
<path d="M43.3989 20.3053V7.6919H46.3825V20.3053H43.3989Z" fill="var(--fill-0, white)"/>
<path d="M47.0778 7.6919H50.2366L53.2011 16.5046L56.2422 7.6919H59.3818C59.3818 7.6919 55.6673 17.7487 55.3005 18.7461C54.9337 19.7436 54.2221 20.3053 53.2394 20.3053C52.2567 20.3053 51.5286 19.7436 51.1591 18.7461C50.7895 17.7487 47.0778 7.6919 47.0778 7.6919Z" fill="var(--fill-0, white)"/>
<path d="M60.0747 17.6775V10.424C60.0747 10.2322 60.0939 10.0376 60.1322 9.86224C60.3813 8.42634 61.3448 7.68921 62.9625 7.68921H69.124V10.4048H63.7536C63.6769 10.4213 63.6194 10.4213 63.562 10.4569C63.2526 10.561 63.061 10.8241 63.061 11.2104V12.6107H69.1268V15.3263H63.061V16.7266C63.061 17.3212 63.2718 17.5322 63.8302 17.5843H69.124V20.2999H63.3868C61.1532 20.2999 60.0747 19.3545 60.0747 17.672V17.6775Z" fill="var(--fill-0, white)"/>
<path d="M69.6824 20.3054L74.2262 13.8575L69.9123 7.68921H73.4543L75.7645 11.2296L78.2281 7.68921H81.7701L77.4562 13.8575L82 20.3054H78.458L75.7426 16.4334L73.2216 20.3054H69.6796H69.6824Z" fill="var(--fill-0, white)"/>
</g>
</g>
</svg>
