<svg preserveAspectRatio="none" width="100%" height="100%" overflow="visible" style="display: block;" viewBox="0 0 65 24" fill="none" xmlns="http://www.w3.org/2000/svg">
<g id="kakao pay">
<g id="Vector">
<path fill-rule="evenodd" clip-rule="evenodd" d="M11.9327 0H53.0673C59.6633 0 65 5.36684 65 12C65 18.6332 59.6633 24 53.0673 24H11.9327C5.33672 23.9397 0 18.5729 0 12C0 5.36684 5.33672 0 11.9327 0Z" fill="white"/>
<path fill-rule="evenodd" clip-rule="evenodd" d="M14.751 16.8241C13.6716 17.5477 12.5923 18.2111 11.5729 18.8744H11.2731C11.513 17.9096 11.7528 17.005 11.9927 16.1005C11.8128 15.7387 11.453 15.6181 11.1532 15.4372C7.55541 13.0251 7.49545 8.80403 11.0333 6.33167C14.0314 4.22111 18.7085 4.28142 21.6467 6.51257C24.8248 8.86433 24.8248 12.8442 21.6467 15.196C19.7879 16.5226 17.7491 17.005 15.5905 16.8844C15.2907 16.8844 14.9908 16.8241 14.751 16.8241Z" fill="var(--fill-0, #0B111D)"/>
<path fill-rule="evenodd" clip-rule="evenodd" d="M31.9604 9.22609V14.2311C33.6393 14.5929 34.6587 13.9296 34.8986 12.3015C34.9585 11.8794 34.9585 11.4572 34.9585 10.9748C34.8386 9.10549 33.8192 8.50247 31.9604 9.22609ZM31.8404 15.9196V19.0552C31.1209 19.2361 30.4613 19.1155 29.6818 19.1155V7.47735C30.0415 7.23614 30.5213 7.41705 30.8211 7.35675C31.3008 7.41705 31.2408 7.89946 31.6006 7.95976C31.8404 7.83916 32.0803 7.65825 32.3201 7.47735C34.239 6.51253 36.3377 7.35675 36.9373 9.3467C37.2971 10.613 37.2971 11.8794 36.9973 13.1457C36.3976 15.1959 34.7786 16.2814 32.62 16.0402C32.3801 16.0402 32.2002 15.9799 31.8404 15.9196Z" fill="var(--fill-0, #0B111D)"/>
<path fill-rule="evenodd" clip-rule="evenodd" d="M49.2897 19.4774C48.81 19.0553 48.4502 18.6935 47.9705 18.2713C48.6301 17.5477 49.3496 16.8844 49.8293 15.8593C48.8699 13.206 47.8506 10.4924 46.8312 7.71858C47.4908 7.35677 48.2103 7.29647 48.9899 6.99496C49.6495 9.16582 50.2491 11.2764 50.8487 13.3869H51.0886C51.6882 11.2764 52.3478 9.16582 52.9474 6.99496C53.7269 7.17587 54.3865 7.41707 55.1061 7.59798C53.9068 10.6734 52.9474 13.809 51.5683 16.7638C51.1485 17.8492 50.429 18.8141 49.2897 19.4774Z" fill="var(--fill-0, #0B111D)"/>
<path fill-rule="evenodd" clip-rule="evenodd" d="M43.4732 13.6884C43.4732 13.1457 43.5932 12.6633 43.4133 12.1809C42.5138 12.1809 41.5544 11.9397 40.8948 12.7236C40.535 13.1457 40.595 13.6281 41.0147 14.1708C41.8542 14.5326 42.6937 14.2311 43.4732 13.6884ZM45.6919 15.799H44.1928C43.9529 15.7387 44.0129 15.3166 43.6531 15.2563C43.0535 15.6181 42.3339 15.9799 41.5544 16.1005C40.1153 16.2814 39.036 15.5578 38.7362 14.2311C38.3764 12.6633 38.976 11.4573 40.3552 10.9749C40.9548 10.794 41.5544 10.7337 42.154 10.7337C42.5738 10.7337 43.0535 10.794 43.4732 10.6733C43.6531 9.52762 43.1135 8.98491 41.9742 8.98491C41.6144 8.98491 41.2546 9.04521 40.8948 9.16581C40.535 9.22611 40.1753 9.34672 39.8155 9.46732C39.4557 9.10551 39.3957 8.5628 39.1559 8.08039C40.655 7.23616 42.214 6.87435 43.833 7.41707C44.9723 7.77888 45.512 8.6231 45.6319 9.76883C45.8118 11.6985 45.6319 13.6884 45.6919 15.799Z" fill="var(--fill-0, #0B111D)"/>
</g>
</g>
</svg>
