<svg preserveAspectRatio="none" width="100%" height="100%" overflow="visible" style="display: block;" viewBox="0 0 102 20" fill="none" xmlns="http://www.w3.org/2000/svg">
<g id="lg&#236;&#131;&#157;&#237;&#153;&#156;&#234;&#177;&#180;&#234;&#176;&#149;">
<g id="Vector">
<path d="M9.99071 19.9964C15.5102 19.9964 19.985 15.519 19.985 9.99638C19.985 4.47378 15.5102 0 9.99071 0C4.47124 0 0 4.4774 0 10C0 15.5226 4.47486 20 9.99071 20" fill="var(--fill-0, white)"/>
<path d="M9.59313 5.61303V14.3761H12.38V13.5949H10.3919V5.61303H9.59313Z" fill="#0B111D"/>
<path d="M6.80265 8.00362C7.46412 8.00362 7.99908 7.46474 7.99908 6.8029C7.99908 6.14105 7.46412 5.60579 6.80265 5.60579C6.14118 5.60579 5.60623 6.14105 5.60623 6.8029C5.60623 7.46474 6.14118 8.00362 6.80265 8.00362Z" fill="#0B111D"/>
<path d="M10.3919 1.63472C10.2871 1.62749 10.0883 1.62749 9.99072 1.62749C5.38212 1.62749 1.63018 5.38517 1.63018 9.99638C1.63018 12.2315 2.5013 14.3327 4.08087 15.9132C5.66044 17.4937 7.76413 18.3653 9.99433 18.3653C12.2245 18.3653 14.3318 17.4973 15.9114 15.9132C17.4874 14.3327 18.3585 12.2315 18.3585 9.99638V9.61302H12.3836V10.3906H17.5597V10.5063C17.2922 14.4521 14.0029 17.5805 9.99072 17.5805C7.97017 17.5805 6.06528 16.7884 4.6339 15.3562C3.19891 13.9241 2.41093 12.0181 2.41093 9.99277C2.41093 7.96745 3.19891 6.06148 4.6339 4.62568C6.06528 3.19349 7.97017 2.40506 9.99072 2.40506C10.0811 2.40506 10.298 2.40506 10.3919 2.4123V1.6311V1.63472Z" fill="#0B111D"/>
<path d="M27.554 3.35987H24.5467V16.3834H33.7819V13.8481H27.554V3.35987Z" fill="var(--fill-0, white)"/>
<path d="M40.4002 11.4177H42.8509V13.6962C42.3991 13.8662 41.5207 14.0398 40.6822 14.0398C37.9748 14.0398 37.0712 12.6655 37.0712 9.8698C37.0712 7.07414 37.9314 5.63472 40.6352 5.63472C42.1388 5.63472 42.9991 6.10488 43.7076 7.00904L45.5763 5.29114C44.4377 3.65642 42.4388 3.16456 40.5701 3.16456C36.3591 3.16456 34.147 5.46474 34.147 9.8481C34.147 14.2315 36.1458 16.575 40.552 16.575C42.569 16.575 44.5461 16.0579 45.6197 15.3056V8.98734H40.4002V11.4177Z" fill="var(--fill-0, white)"/>
<path d="M99.7951 5.8915V3.16456H97.4998V10.4268H99.6216C99.7662 9.76492 99.7915 8.97649 99.7915 8.36166V7.80108H102V5.8915H99.7915H99.7951Z" fill="var(--fill-0, white)"/>
<path d="M58.5346 5.5009H57.5876V3.1754H55.4369V10.1193H57.3599C57.5189 9.66003 57.5876 8.7848 57.5876 8.26762V7.32007H58.5346V10.604H60.4973C60.6853 10.0868 60.7431 9.04158 60.7431 8.37974V3.15732H58.5346V5.5009Z" fill="var(--fill-0, white)"/>
<path d="M56.0984 10.7016C52.7151 10.7016 51.703 12.1049 51.703 13.7034C51.703 15.302 52.7151 16.7052 56.0984 16.7052C59.4816 16.7052 60.5841 15.3454 60.5841 13.7034C60.5841 12.0615 59.5395 10.7016 56.0984 10.7016ZM56.1165 15.0054C54.7357 15.0054 54.1248 14.5244 54.1248 13.7034C54.1248 12.9439 54.7321 12.4304 56.1165 12.4304C57.5008 12.4304 58.1226 12.9439 58.1226 13.7034C58.1226 14.5244 57.5298 15.0054 56.1165 15.0054Z" fill="var(--fill-0, white)"/>
<path d="M68.3338 4.49911V2.97289H66.8192C66.0674 2.97289 64.936 2.79929 64.2167 2.54251L63.9023 4.16638C64.7625 4.42316 65.7529 4.49549 66.6566 4.49549H68.3338V4.49911Z" fill="var(--fill-0, white)"/>
<path d="M54.2044 10.2676L55.3068 8.47378C53.485 7.67089 52.7947 6.62206 52.7947 4.44123V3.39241H50.5428V4.4557C50.5428 6.92224 50.1669 8.0434 48.1897 8.99458L48.9921 10.528C50.1813 10.1121 51.291 9.33454 51.8621 8.31465C52.2922 9.18987 53.3115 9.9783 54.2007 10.2676" fill="var(--fill-0, white)"/>
<path d="M95.4793 5.83365V3.40689H89.067V5.24414H93.1117V6.04703C93.1117 7.30924 91.749 8.45571 88.6513 9.736L89.4249 11.3563C93.7154 9.57687 95.4793 8.2134 95.4793 5.83004" fill="var(--fill-0, white)"/>
<path d="M80.8041 14.3725V11.3815H78.4076V15.349C78.4076 16.1664 78.8233 16.5533 79.6402 16.5533H87.7405V14.6148H81.0463C80.8583 14.6148 80.8041 14.5714 80.8041 14.3725Z" fill="var(--fill-0, white)"/>
<path d="M82.0728 7.81193H84.968V12.7631H87.0898C87.2633 12.0615 87.3609 10.8391 87.3609 10.0072V3.16094H84.968V5.88788H82.5571V3.36347H76.1015V5.20072H80.2185V6.09041C80.2185 7.32368 78.7473 8.57142 75.7039 9.83363L76.5063 11.4105C79.4667 10.1627 81.2739 9.19349 82.0692 7.80831" fill="var(--fill-0, white)"/>
<path d="M66.9096 14.8571V14.5642H72.9134C73.1592 14.1917 73.2134 13.443 73.2134 12.7378V11.3092H64.6288V12.7306H70.9326V13.226H64.6288V15.7034C64.6288 16.293 64.8999 16.5931 65.6337 16.5931H73.6291V15.0561H67.1518C66.9638 15.0561 66.9096 15.0271 66.9096 14.8535" fill="var(--fill-0, white)"/>
<path d="M95.5914 10.5823C92.4503 10.5823 91.4743 12.0181 91.4743 13.6528C91.4743 15.2875 92.4503 16.7089 95.5914 16.7089C98.7324 16.7089 99.7915 15.3309 99.7915 13.6528C99.7915 11.9747 98.8011 10.5823 95.5914 10.5823ZM95.6058 15.0452C94.4311 15.0452 93.813 14.557 93.813 13.6528C93.813 12.8065 94.4311 12.2749 95.6058 12.2749C96.7806 12.2749 97.4131 12.8065 97.4131 13.6528C97.4131 14.557 96.8095 15.0452 95.6058 15.0452Z" fill="var(--fill-0, white)"/>
<path d="M73.2134 3.16456H70.9326V8.74503C69.9856 9.21881 68.6337 9.37794 67.5024 9.37794V9.01989C68.7097 8.78119 69.2518 8.14828 69.2518 7.24774C69.2518 7.00181 69.194 6.77758 69.082 6.57143H70.4121V5.03436H62.0697V6.57143H63.5119C63.4034 6.77396 63.342 7.00181 63.342 7.24774C63.342 8.1736 63.9276 8.81374 65.1927 9.03798V9.37794H62.0697V10.8861H66.8337C68.4096 10.8861 70.1013 10.7125 70.9362 10.2532V10.7848H73.217V8.06148H75.2701V6.13743H73.217V3.16817L73.2134 3.16456ZM65.3951 7.16817C65.3951 6.73779 65.6879 6.52441 66.2843 6.52441C66.8807 6.52441 67.1445 6.73779 67.1445 7.16817C67.1445 7.59855 66.8228 7.83002 66.2373 7.83002C65.6517 7.83002 65.3915 7.59855 65.3915 7.16817" fill="var(--fill-0, white)"/>
</g>
</g>
</svg>
