<svg preserveAspectRatio="none" width="100%" height="100%" overflow="visible" style="display: block;" viewBox="0 0 56 20" fill="none" xmlns="http://www.w3.org/2000/svg">
<g id="nike">
<path id="Vector" fill-rule="evenodd" clip-rule="evenodd" d="M7.17331 0.886873C3.52927 5.1335 0.0353198 10.3997 0.000284446 14.336C-0.0133609 15.817 0.46312 17.11 1.60601 18.0893C3.25083 19.4997 5.06308 19.9971 6.86647 20C9.50187 20.0036 12.1188 18.9486 14.1678 18.135C17.6186 16.7656 55.764 0.327682 55.764 0.327682C56.1321 0.144701 56.0631 -0.0832923 55.6025 0.030522C55.4166 0.0766332 14.0753 11.1942 14.0753 11.1942C13.2922 11.414 12.483 11.5289 11.6693 11.536C8.49211 11.5547 5.66495 9.80464 5.68781 6.11684C5.69666 4.67385 6.1418 2.9337 7.17331 0.886873Z" fill="var(--fill-0, white)"/>
</g>
</svg>
