<svg preserveAspectRatio="none" width="100%" height="100%" overflow="visible" style="display: block;" viewBox="0 0 59 20" fill="none" xmlns="http://www.w3.org/2000/svg">
<g id="paypal-logo 2" clip-path="url(#clip0_109_731)">
<path id="Vector" d="M59 0V14.9344H55.637V0H59ZM54.398 5.04172V14.9642H51.4067V14.1061C51.0291 14.4815 50.5984 14.7616 50.1205 14.9642C49.6367 15.1728 49.1175 15.2801 48.557 15.2801C47.8549 15.2801 47.2 15.149 46.6041 14.8868C46.0023 14.6067 45.4831 14.2312 45.0406 13.7604C44.5922 13.2837 44.2441 12.7294 43.9845 12.0977C43.7367 11.4541 43.6128 10.7569 43.6128 10.0119C43.6128 9.26698 43.7367 8.58164 43.9845 7.94994C44.2441 7.30632 44.5981 6.74017 45.0406 6.26341C45.4831 5.78665 46.0141 5.4112 46.6041 5.15495C47.2059 4.87485 47.8549 4.73778 48.557 4.73778C49.1175 4.73778 49.6367 4.84505 50.1205 5.05364C50.6043 5.25626 51.035 5.53635 51.4067 5.9118V5.04768H54.398V5.04172ZM49.0939 12.2586C49.7075 12.2586 50.209 12.0501 50.5984 11.621C51.0055 11.1979 51.2061 10.6555 51.2061 9.99404C51.2061 9.33254 51.0055 8.79023 50.5984 8.3671C50.209 7.94398 49.7016 7.72944 49.0939 7.72944C48.4862 7.72944 47.9729 7.93802 47.5658 8.3671C47.1764 8.79023 46.9817 9.33254 46.9817 9.99404C46.9817 10.6555 47.1823 11.1979 47.5658 11.621C47.9729 12.0441 48.4862 12.2586 49.0939 12.2586ZM38.8102 0C39.6952 0 40.4563 0.125149 41.0817 0.375447C41.7071 0.625745 42.2322 0.977354 42.6688 1.42431C43.1113 1.88915 43.4594 2.41359 43.7072 3.00954C43.955 3.60548 44.0789 4.24911 44.0789 4.93445C44.0789 5.61979 43.955 6.26341 43.7072 6.85936C43.4653 7.44934 43.1113 7.9857 42.6688 8.44458C42.2381 8.8975 41.7071 9.24315 41.0817 9.49344C40.4563 9.74374 39.7011 9.86889 38.8102 9.86889H37.1877V14.9583H33.7657V0H38.8102ZM38.3205 6.80572C38.7807 6.80572 39.1288 6.75805 39.3766 6.66269C39.6362 6.55542 39.8545 6.42431 40.0197 6.26937C40.3737 5.93564 40.5448 5.49464 40.5448 4.94041C40.5448 4.38617 40.3678 3.94517 40.0197 3.61144C39.8486 3.45054 39.6362 3.32539 39.3766 3.236C39.1288 3.12872 38.7748 3.07509 38.3205 3.07509H37.1877V6.80572H38.3205ZM21.1515 5.04172H24.8685L27.3878 9.79738H27.4291L29.677 5.04172H33.1167L25.7417 20H22.3197L25.6827 13.1585L21.1515 5.04172ZM20.4907 5.04172V14.9642H17.4994V14.1061C17.1218 14.4815 16.6911 14.7616 16.2132 14.9642C15.7294 15.1728 15.2102 15.2801 14.6497 15.2801C13.9476 15.2801 13.2927 15.149 12.6968 14.8868C12.095 14.6067 11.5758 14.2312 11.1333 13.7604C10.6908 13.2837 10.3368 12.7294 10.0772 12.0977C9.8294 11.4541 9.7055 10.7569 9.7055 10.0119C9.7055 9.26698 9.8294 8.58164 10.0772 7.94994C10.3368 7.30632 10.6908 6.74017 11.1333 6.26341C11.5699 5.78665 12.1068 5.4112 12.6968 5.15495C13.2986 4.87485 13.9476 4.73778 14.6497 4.73778C15.2102 4.73778 15.7294 4.84505 16.2132 5.05364C16.697 5.25626 17.1277 5.53635 17.4994 5.9118V5.04768H20.4907V5.04172ZM15.1925 12.2586C15.8061 12.2586 16.3076 12.0501 16.7029 11.621C17.11 11.1979 17.3106 10.6555 17.3106 9.99404C17.3106 9.33254 17.11 8.79023 16.7029 8.3671C16.3135 7.94398 15.8061 7.72944 15.1925 7.72944C14.5789 7.72944 14.0715 7.93802 13.6644 8.3671C13.275 8.79023 13.0803 9.33254 13.0803 9.99404C13.0803 10.6555 13.2809 11.1979 13.6644 11.621C14.0715 12.0441 14.5789 12.2586 15.1925 12.2586ZM5.0445 0C5.9295 0 6.6906 0.125149 7.316 0.375447C7.9414 0.625745 8.4665 0.977354 8.9031 1.42431C9.3456 1.88915 9.6937 2.41359 9.9415 3.00954C10.1893 3.60548 10.3132 4.24911 10.3132 4.93445C10.3132 5.61979 10.1893 6.26341 9.9415 6.85936C9.6996 7.44934 9.3456 7.9857 8.9031 8.44458C8.4724 8.8975 7.9414 9.24315 7.316 9.49344C6.6906 9.74374 5.9354 9.86889 5.0445 9.86889H3.422V14.9583H0V0H5.0445ZM4.5607 6.80572C5.0209 6.80572 5.369 6.75805 5.6168 6.66269C5.8764 6.55542 6.0947 6.42431 6.2599 6.26937C6.6139 5.93564 6.785 5.49464 6.785 4.94041C6.785 4.38617 6.608 3.94517 6.2599 3.61144C6.0888 3.45054 5.8764 3.32539 5.6168 3.236C5.369 3.12872 5.015 3.07509 4.5607 3.07509H3.422V6.80572H4.5607Z" fill="var(--fill-0, white)"/>
</g>
<defs>
<clipPath id="clip0_109_731">
<rect width="59" height="20" fill="white"/>
</clipPath>
</defs>
</svg>
