<svg preserveAspectRatio="none" width="100%" height="100%" overflow="visible" style="display: block;" viewBox="0 0 157 14" fill="none" xmlns="http://www.w3.org/2000/svg">
<g id="public beacon">
<g id="Vector">
<path d="M145.217 0.306131H146.829L155.003 10.8503H155.041V0.306131H156.293V12.3469H154.681L146.506 1.80272H146.468V12.3469H145.217V0.306131Z" fill="var(--fill-0, white)"/>
<path d="M127.578 6.32649C127.578 5.40813 127.749 4.56347 128.091 3.7925C128.432 3.02152 128.906 2.35826 129.513 1.80271C130.12 1.23582 130.847 0.793646 131.694 0.476188C132.554 0.158729 133.496 0 134.52 0C135.544 0 136.48 0.158729 137.327 0.476188C138.187 0.793646 138.92 1.23582 139.527 1.80271C140.134 2.35826 140.608 3.02152 140.95 3.7925C141.291 4.56347 141.462 5.40813 141.462 6.32649C141.462 7.24486 141.291 8.09519 140.95 8.8775C140.608 9.64847 140.134 10.3174 139.527 10.8843C138.92 11.4398 138.187 11.8763 137.327 12.1938C136.48 12.4999 135.544 12.653 134.52 12.653C133.496 12.653 132.554 12.4999 131.694 12.1938C130.847 11.8763 130.12 11.4398 129.513 10.8843C128.906 10.3174 128.432 9.64847 128.091 8.8775C127.749 8.09519 127.578 7.24486 127.578 6.32649ZM128.83 6.32649C128.83 7.07479 128.963 7.77207 129.229 8.41832C129.494 9.06457 129.873 9.6258 130.367 10.102C130.86 10.5782 131.454 10.9523 132.149 11.2244C132.857 11.4965 133.648 11.6326 134.52 11.6326C135.393 11.6326 136.176 11.4965 136.872 11.2244C137.58 10.9523 138.181 10.5782 138.674 10.102C139.167 9.6258 139.546 9.06457 139.812 8.41832C140.077 7.77207 140.21 7.07479 140.21 6.32649C140.21 5.5782 140.077 4.88092 139.812 4.23467C139.546 3.58841 139.167 3.02719 138.674 2.55101C138.181 2.07482 137.58 1.70067 136.872 1.42856C136.176 1.15646 135.393 1.0204 134.52 1.0204C133.648 1.0204 132.857 1.15646 132.149 1.42856C131.454 1.70067 130.86 2.07482 130.367 2.55101C129.873 3.02719 129.494 3.58841 129.229 4.23467C128.963 4.88092 128.83 5.5782 128.83 6.32649Z" fill="var(--fill-0, white)"/>
<path d="M125.206 10.4591C124.561 11.2414 123.815 11.8027 122.968 12.1428C122.121 12.4829 121.204 12.653 120.218 12.653C119.194 12.653 118.252 12.4999 117.392 12.1938C116.545 11.8763 115.818 11.4398 115.211 10.8843C114.604 10.3174 114.13 9.64847 113.788 8.8775C113.447 8.09519 113.276 7.24486 113.276 6.32649C113.276 5.40813 113.447 4.56347 113.788 3.7925C114.13 3.02152 114.604 2.35826 115.211 1.80271C115.818 1.23582 116.545 0.793646 117.392 0.476188C118.252 0.158729 119.194 0 120.218 0C121.128 0 121.975 0.147391 122.759 0.442174C123.556 0.725619 124.251 1.20748 124.845 1.88774L123.821 2.65305C123.404 2.08616 122.867 1.67233 122.209 1.41156C121.564 1.15079 120.9 1.0204 120.218 1.0204C119.345 1.0204 118.555 1.15646 117.847 1.42856C117.152 1.70067 116.557 2.07482 116.064 2.55101C115.571 3.02719 115.192 3.58841 114.926 4.23467C114.661 4.88092 114.528 5.5782 114.528 6.32649C114.528 7.07479 114.661 7.77207 114.926 8.41832C115.192 9.06457 115.571 9.6258 116.064 10.102C116.557 10.5782 117.152 10.9523 117.847 11.2244C118.555 11.4965 119.345 11.6326 120.218 11.6326C120.559 11.6326 120.913 11.5986 121.28 11.5305C121.647 11.4512 122.001 11.3378 122.342 11.1904C122.696 11.0317 123.031 10.8389 123.347 10.6122C123.663 10.3741 123.941 10.0906 124.182 9.76185L125.206 10.4591Z" fill="var(--fill-0, white)"/>
<path d="M104.332 0.306131H105.622L111.274 12.3469H109.87L108.41 9.14962H101.298L99.7803 12.3469H98.4717L104.332 0.306131ZM104.92 1.53061L101.791 8.12922H107.955L104.92 1.53061Z" fill="var(--fill-0, white)"/>
<path d="M88.0257 0.306131H96.238V1.32653H89.2774V5.61222H95.8018V6.63263H89.2774V11.3265H96.5414V12.3469H88.0257V0.306131Z" fill="var(--fill-0, white)"/>
<path d="M75.1309 0.306131H79C79.5058 0.306131 80.0179 0.345813 80.5363 0.425178C81.0547 0.493204 81.5162 0.646265 81.9208 0.884359C82.338 1.11111 82.6731 1.43424 82.926 1.85374C83.1915 2.2619 83.3243 2.80612 83.3243 3.48639C83.3243 4.09863 83.122 4.6315 82.7174 5.08502C82.3128 5.53853 81.7122 5.83898 80.9156 5.98637V6.02038C81.3581 6.0544 81.7627 6.15077 82.1294 6.3095C82.4961 6.45689 82.8122 6.66097 83.0777 6.92174C83.3433 7.17117 83.5456 7.47162 83.6846 7.8231C83.8364 8.17457 83.9122 8.56005 83.9122 8.97955C83.9122 9.67116 83.7605 10.238 83.457 10.6802C83.1662 11.1111 82.7932 11.4512 82.338 11.7006C81.8955 11.9501 81.4087 12.1201 80.8777 12.2108C80.3593 12.3015 79.8725 12.3469 79.4173 12.3469H75.1309V0.306131ZM76.3827 5.51018H78.9811C79.6259 5.51018 80.1506 5.44216 80.5552 5.3061C80.9599 5.15871 81.2759 4.98298 81.5035 4.7789C81.7311 4.57481 81.8829 4.3594 81.9587 4.13264C82.0346 3.89455 82.0725 3.67913 82.0725 3.48639C82.0725 3.06689 81.9903 2.72108 81.826 2.44898C81.6742 2.16553 81.4656 1.94444 81.2001 1.78571C80.9346 1.61565 80.6248 1.4966 80.2708 1.42857C79.9167 1.36055 79.5437 1.32653 79.1518 1.32653H76.3827V5.51018ZM76.3827 11.3265H79.2466C79.9799 11.3265 80.5679 11.2471 81.0104 11.0884C81.4656 10.9297 81.8133 10.7312 82.0536 10.4931C82.2938 10.2551 82.4518 10.0056 82.5277 9.74485C82.6162 9.47275 82.6605 9.22898 82.6605 9.01357C82.6605 8.57139 82.5656 8.19157 82.376 7.87412C82.1863 7.55666 81.9398 7.30156 81.6363 7.10881C81.3328 6.90473 80.9851 6.75734 80.5932 6.66664C80.2139 6.57594 79.8282 6.53059 79.4362 6.53059H76.3827V11.3265Z" fill="var(--fill-0, white)"/>
<path d="M66.0108 10.4591C65.366 11.2414 64.62 11.8027 63.7728 12.1428C62.9257 12.4829 62.009 12.653 61.0228 12.653C59.9986 12.653 59.0566 12.4999 58.1968 12.1938C57.3497 11.8763 56.6226 11.4398 56.0157 10.8843C55.4088 10.3174 54.9346 9.64847 54.5932 8.8775C54.2519 8.09519 54.0812 7.24486 54.0812 6.32649C54.0812 5.40813 54.2519 4.56347 54.5932 3.7925C54.9346 3.02152 55.4088 2.35826 56.0157 1.80271C56.6226 1.23582 57.3497 0.793646 58.1968 0.476188C59.0566 0.158729 59.9986 0 61.0228 0C61.9331 0 62.7803 0.147391 63.5642 0.442174C64.3608 0.725619 65.0562 1.20748 65.6505 1.88774L64.6263 2.65305C64.2091 2.08616 63.6717 1.67233 63.0142 1.41156C62.3694 1.15079 61.7055 1.0204 61.0228 1.0204C60.1503 1.0204 59.3601 1.15646 58.652 1.42856C57.9566 1.70067 57.3623 2.07482 56.8692 2.55101C56.3761 3.02719 55.9967 3.58841 55.7312 4.23467C55.4657 4.88092 55.3329 5.5782 55.3329 6.32649C55.3329 7.07479 55.4657 7.77207 55.7312 8.41832C55.9967 9.06457 56.3761 9.6258 56.8692 10.102C57.3623 10.5782 57.9566 10.9523 58.652 11.2244C59.3601 11.4965 60.1503 11.6326 61.0228 11.6326C61.3641 11.6326 61.7182 11.5986 62.0849 11.5305C62.4515 11.4512 62.8056 11.3378 63.147 11.1904C63.501 11.0317 63.8361 10.8389 64.1522 10.6122C64.4683 10.3741 64.7464 10.0906 64.9867 9.76185L66.0108 10.4591Z" fill="var(--fill-0, white)"/>
<path d="M49.0785 0.306131H50.3302V12.3469H49.0785V0.306131Z" fill="var(--fill-0, white)"/>
<path d="M38.6471 0.306131H39.8989V11.3265H46.1577V12.3469H38.6471V0.306131Z" fill="var(--fill-0, white)"/>
<path d="M25.7524 0.306131H29.6215C30.1273 0.306131 30.6393 0.345813 31.1577 0.425178C31.6761 0.493204 32.1377 0.646265 32.5423 0.884359C32.9595 1.11111 33.2946 1.43424 33.5475 1.85374C33.813 2.2619 33.9458 2.80612 33.9458 3.48639C33.9458 4.09863 33.7435 4.6315 33.3388 5.08502C32.9342 5.53853 32.3336 5.83898 31.5371 5.98637V6.02038C31.9796 6.0544 32.3842 6.15077 32.7509 6.3095C33.1176 6.45689 33.4337 6.66097 33.6992 6.92174C33.9647 7.17117 34.167 7.47162 34.3061 7.8231C34.4578 8.17457 34.5337 8.56005 34.5337 8.97955C34.5337 9.67116 34.382 10.238 34.0785 10.6802C33.7877 11.1111 33.4147 11.4512 32.9595 11.7006C32.517 11.9501 32.0302 12.1201 31.4991 12.2108C30.9807 12.3015 30.4939 12.3469 30.0387 12.3469H25.7524V0.306131ZM27.0042 5.51018H29.6025C30.2474 5.51018 30.7721 5.44216 31.1767 5.3061C31.5813 5.15871 31.8974 4.98298 32.125 4.7789C32.3526 4.57481 32.5043 4.3594 32.5802 4.13264C32.6561 3.89455 32.694 3.67913 32.694 3.48639C32.694 3.06689 32.6118 2.72108 32.4474 2.44898C32.2957 2.16553 32.0871 1.94444 31.8216 1.78571C31.556 1.61565 31.2463 1.4966 30.8922 1.42857C30.5382 1.36055 30.1652 1.32653 29.7732 1.32653H27.0042V5.51018ZM27.0042 11.3265H29.8681C30.6014 11.3265 31.1894 11.2471 31.6319 11.0884C32.0871 10.9297 32.4348 10.7312 32.675 10.4931C32.9153 10.2551 33.0733 10.0056 33.1492 9.74485C33.2377 9.47275 33.2819 9.22898 33.2819 9.01357C33.2819 8.57139 33.1871 8.19157 32.9975 7.87412C32.8078 7.55666 32.5612 7.30156 32.2578 7.10881C31.9543 6.90473 31.6066 6.75734 31.2146 6.66664C30.8353 6.57594 30.4497 6.53059 30.0577 6.53059H27.0042V11.3265Z" fill="var(--fill-0, white)"/>
<path d="M21.379 7.73806C21.379 8.38432 21.2968 9.00223 21.1324 9.59179C20.9681 10.1814 20.6899 10.7029 20.2979 11.1564C19.9186 11.6099 19.4129 11.9727 18.7807 12.2448C18.1611 12.5169 17.3961 12.653 16.4858 12.653C15.5754 12.653 14.8041 12.5169 14.1719 12.2448C13.5523 11.9727 13.0466 11.6099 12.6546 11.1564C12.2753 10.7029 12.0034 10.1814 11.8391 9.59179C11.6747 9.00223 11.5925 8.38432 11.5925 7.73806V0.306131H12.8443V7.44895C12.8443 7.87978 12.8885 8.33897 12.977 8.82649C13.0655 9.31402 13.2362 9.76753 13.4891 10.187C13.7546 10.6065 14.1213 10.9523 14.5891 11.2244C15.0696 11.4965 15.7018 11.6326 16.4858 11.6326C17.2697 11.6326 17.8956 11.4965 18.3634 11.2244C18.8439 10.9523 19.2106 10.6065 19.4634 10.187C19.729 9.76753 19.906 9.31402 19.9945 8.82649C20.083 8.33897 20.1272 7.87978 20.1272 7.44895V0.306131H21.379V7.73806Z" fill="var(--fill-0, white)"/>
<path d="M0 0.306131H3.86908C4.33691 0.306131 4.82371 0.357151 5.32947 0.459191C5.84788 0.549893 6.31571 0.714292 6.73296 0.952386C7.16286 1.19048 7.51058 1.51928 7.7761 1.93877C8.05427 2.34694 8.19335 2.86281 8.19335 3.48639C8.19335 4.0306 8.07956 4.50112 7.85196 4.89794C7.63702 5.29477 7.33988 5.62356 6.96056 5.88433C6.59388 6.13376 6.16398 6.32084 5.67086 6.44555C5.19039 6.57027 4.68463 6.63263 4.15358 6.63263H1.25176V12.3469H0V0.306131ZM1.25176 5.61222H4.09668C4.45071 5.61222 4.79842 5.57821 5.13981 5.51018C5.4812 5.43082 5.78466 5.31177 6.05019 5.15304C6.31571 4.98298 6.53066 4.76189 6.69503 4.48978C6.85941 4.21767 6.94159 3.88321 6.94159 3.48639C6.94159 3.1009 6.85308 2.7721 6.67607 2.5C6.51169 2.22789 6.29042 2.0068 6.01225 1.83673C5.74673 1.65533 5.43695 1.52494 5.08291 1.44558C4.72888 1.36622 4.37485 1.32653 4.02081 1.32653H1.25176V5.61222Z" fill="var(--fill-0, white)"/>
</g>
</g>
</svg>
