<svg preserveAspectRatio="none" width="100%" height="100%" overflow="visible" style="display: block;" viewBox="0 0 98 22" fill="none" xmlns="http://www.w3.org/2000/svg">
<g id="&#236;&#139;&#160;&#236;&#132;&#184;&#234;&#179;&#132;">
<path id="Vector" opacity="0.2" d="M47.3352 15.363H0V22H47.3352V15.363Z" fill="var(--fill-0, white)"/>
<path id="Vector_2" opacity="0.2" d="M98 15.363H50.6648V22H98V15.363Z" fill="var(--fill-0, white)"/>
<path id="Vector_3" d="M3.77957 4.95826C4.46502 5.34867 5.17006 5.73909 5.71842 6.3052C6.3647 6.9689 6.69764 7.73022 6.69764 8.62817C6.69764 10.385 5.3659 11.6734 3.54457 11.6734C2.34992 11.6734 1.40989 11.3611 0.469849 10.6974L0.371922 10.6193V8.70626L0.744028 9.07714C1.54698 9.85797 2.44784 10.2679 3.32914 10.2679C4.58253 10.2679 5.24839 9.50661 5.24839 8.78434C5.24839 7.65214 4.17125 7.00794 3.01578 6.3052C1.68405 5.50485 0.293568 4.66545 0.293568 3.00618C0.293568 2.10823 0.626511 1.36645 1.25321 0.800343C1.86032 0.273283 2.72202 0 3.72082 0C4.52377 0 5.36592 0.25376 6.12971 0.722258L6.2276 0.780818V2.51816L5.8751 2.24488C5.1309 1.67877 4.3671 1.38597 3.60332 1.38597C2.5066 1.38597 1.74282 1.97159 1.74282 2.81098C1.74282 3.78702 2.74162 4.33361 3.79917 4.93875L3.77957 4.95826ZM48.3338 4.95826C47.2958 4.37264 46.2971 3.82606 46.2971 2.81098C46.2971 1.99111 47.0608 1.38597 48.1576 1.38597C48.9213 1.38597 49.6851 1.67877 50.4293 2.24488L50.7818 2.51816V0.800343L50.6839 0.741783C49.9397 0.273285 49.0976 0.01951 48.2751 0.01951C47.2763 0.01951 46.4146 0.312329 45.8075 0.819868C45.1808 1.34693 44.8478 2.12775 44.8478 3.02571C44.8478 4.66545 46.2187 5.50485 47.57 6.32472C48.7059 7.02747 49.8222 7.69117 49.8222 8.80385C49.8222 9.52612 49.1564 10.2874 47.903 10.2874C46.9825 10.2874 46.1012 9.8775 45.3178 9.09667L44.9457 8.72577V10.6388L45.0241 10.7169C45.9641 11.4001 46.9042 11.6929 48.0988 11.6929C49.9397 11.6929 51.2519 10.4046 51.2519 8.6477C51.2519 7.74974 50.9385 6.98843 50.2727 6.32472C49.7047 5.75862 49.0193 5.3682 48.3142 4.97778L48.3338 4.95826ZM18.1545 5.19251H12.2204V0.214715H10.7124V11.5172H12.2204V6.53945H18.1545V11.5172H19.6624V0.214715H18.1545V5.19251ZM24.6172 11.4977H26.1252V0.195205H24.6172V11.4977ZM55.9913 6.51993H60.574V5.19251H55.9913V1.52262H60.7503V0.195205H54.5029V11.4977H60.9069V10.1703H56.0109V6.51993H55.9913ZM92.1047 10.1703V6.51993H96.6874V5.19251H92.1047V1.52262H96.8637V0.195205H90.6163V11.4977H97.0203V10.1703H92.1243H92.1047ZM85.2306 6.79322L83.4093 2.42057L81.7054 6.79322H85.2306ZM83.9772 0.17568L88.7362 11.4977H87.1891L85.7986 8.14015H81.2158L79.9037 11.4977H78.3369V11.4196L82.9001 0.11712H83.9772V0.156155V0.17568ZM71.0516 6.46137H73.3038V9.77989C72.6183 10.1508 71.7175 10.3069 70.8753 10.2679C69.6807 10.1703 66.8606 9.54564 66.8606 5.89526C66.8606 3.10379 68.5056 1.42501 71.267 1.42501C71.267 1.42501 73.1275 1.44453 74.6159 2.4596L74.6943 2.51816V0.936988H74.6747C73.813 0.546573 72.54 0.0780699 71.4041 0.0780699C69.4849 0.0780699 68.0748 0.546581 66.9781 1.6007C65.9205 2.59626 65.333 4.1384 65.333 5.85623C65.333 8.66722 66.8018 11.6734 70.9341 11.6734C72.3637 11.6734 73.7738 11.3025 74.6943 10.6974L74.7726 10.6388V5.21204H71.0712V6.48089L71.0516 6.46137ZM38.9725 8.80385L32.2356 0.214715H30.8255V11.5172H32.2356V2.65481L39.1292 11.4977H40.3826V0.195205H38.9725V8.80385Z" fill="var(--fill-0, white)"/>
<path id="Vector_4" d="M2.25198 16.6513H3.3683C4.75878 16.6513 5.54215 17.5298 5.54215 18.701C5.54215 19.8723 4.66087 20.7507 3.40747 20.7507H2.25198V16.6513ZM3.03537 17.3541V20.0089H3.30955C4.19084 20.0089 4.75876 19.4233 4.75876 18.6815C4.75876 17.9397 4.28874 17.3541 3.28994 17.3541H3.03537ZM16.7835 19.3061C16.7835 20.2822 17.4102 20.7702 18.2719 20.7702C19.1336 20.7702 19.7603 20.2822 19.7603 19.3061V16.6318H18.977V19.3452C18.977 19.7356 18.6636 20.0479 18.2523 20.0479C17.8411 20.0479 17.5669 19.7356 17.5669 19.3452V16.6318H16.7835V19.3061ZM30.14 20.7507H30.9234V17.3931H32.0201V16.6513H29.0629V17.3931H30.1596V20.7507H30.14ZM42.4585 20.7507H43.2419V18.8181L44.5736 16.6513H43.7119L42.8698 18.0568L42.0277 16.6513H41.166L42.4781 18.8181V20.7507H42.4585ZM53.8566 20.7702H54.6399V19.0914H56.1871V18.3496H54.6399V17.4126H56.1871V16.6709H53.8566V20.7702ZM66.2143 20.7702H66.9976V17.4126H67.4089C67.9964 17.4126 68.2119 17.6469 68.2119 18.0568C68.2119 18.3496 67.9964 18.7596 67.4089 18.7596H67.0172L68.251 20.7702H69.1519L68.2119 19.2671C68.7602 19.0524 69.0148 18.5644 69.0148 18.0373C69.0148 17.276 68.4469 16.6709 67.5068 16.6709H66.2143V20.7702ZM79.2182 20.7702H81.6467V20.0284H80.0016V19.0914H81.6467V18.3496H80.0016V17.4126H81.6467V16.6709H79.2182V20.7702ZM91.7326 20.7702H94.161V20.0284H92.516V19.0914H94.161V18.3496H92.516V17.4126H94.161V16.6709H91.7326V20.7702Z" fill="var(--fill-0, white)"/>
</g>
</svg>
