<svg preserveAspectRatio="none" width="100%" height="100%" overflow="visible" style="display: block;" viewBox="0 0 86 26" fill="none" xmlns="http://www.w3.org/2000/svg">
<g id="Thai QR">
<g id="Vector">
<path d="M25.5141 18.0208L25.5292 6.79738C25.5292 3.0511 22.541 0 18.8625 0H6.67431C2.99585 0 0 3.0511 0 6.79738V19.2026C0 22.9489 2.99585 26 6.67431 26H33.3564L25.5141 18.0285V18.0208Z" fill="var(--fill-0, white)"/>
<path d="M6.67431 2.93522C4.581 2.93522 2.88208 4.66546 2.88208 6.79737V11.5246H7.5541V9.16101C7.5541 8.34996 8.19878 7.69339 8.99514 7.69339H11.3084V2.93522H6.67431Z" fill="#0B111D"/>
<path d="M18.8625 2.93522H14.2132V7.69339H16.5417C17.2849 7.69339 17.8841 8.26499 17.9675 8.9988V11.5246H22.6396V7.69339H22.6547V6.79737C22.6547 4.66546 20.9558 2.93522 18.8625 2.93522Z" fill="#0B111D"/>
<path d="M8.91172 18.2989C8.15327 18.2525 7.5541 17.6191 7.5541 16.839V14.4753H2.88208V19.1949C2.88208 21.3268 4.581 23.057 6.67431 23.057H11.3084V18.2989H8.91172Z" fill="#0B111D"/>
<path d="M17.96 14.4753V17.0012C17.8841 17.7118 17.3153 18.2602 16.6175 18.2989H14.2057V23.057H17.96L22.632 23.0647H26.3939L17.96 14.4753Z" fill="#0B111D"/>
<path d="M39.0371 4.51871H36.2536V3.06654H43.4058V4.51871H40.6299V12.1117H39.0371V4.51871Z" fill="var(--fill-0, white)"/>
<path d="M44.68 3.06654H46.2727V6.84373H50.1635V3.06654H51.7562V12.1117H50.1635V8.33452H46.2727V12.1117H44.68V3.06654Z" fill="var(--fill-0, white)"/>
<path d="M56.5269 3.06654H57.7176L61.252 12.104H59.5303L58.8477 10.142H55.3968L54.7066 12.104H52.9698L56.5269 3.06654ZM58.3092 8.75163L57.126 5.45335L55.9429 8.75163H58.3092Z" fill="var(--fill-0, white)"/>
<path d="M64.0658 3.06654H62.4731V12.104H64.0658V3.06654Z" fill="var(--fill-0, white)"/>
<path d="M75.4804 11.571C74.8357 12.0035 74.0393 12.2353 73.0989 12.2353C70.1637 12.2353 68.8137 10.0493 68.8137 7.58525C68.8137 5.1212 70.1637 2.93522 73.0989 2.93522C76.034 2.93522 77.3841 5.13665 77.3841 7.6007C77.3841 8.75934 77.0731 9.85619 76.5119 10.6595L77.7785 11.8877L76.7546 12.8764L75.4804 11.5787V11.571ZM74.3503 10.4432L73.1368 9.31549L74.1683 8.35768L75.3514 9.46998C75.6624 8.90611 75.7913 8.29589 75.7913 7.58525C75.7913 5.8859 75.0026 4.47236 73.1064 4.47236C71.2103 4.47236 70.4216 5.8859 70.4216 7.58525C70.4216 9.2846 71.2028 10.7059 73.1064 10.7059C73.607 10.7059 74.0318 10.5977 74.3579 10.4432" fill="var(--fill-0, white)"/>
<path d="M79.3181 3.06654H82.1926C83.8536 3.06654 85.2643 4.03208 85.2643 5.7237C85.2643 6.8669 84.5362 7.7243 83.5275 8.07962L85.9924 12.1194H84.1646L81.9803 8.24183H80.9108V12.1194H79.3181V3.06654ZM82.3291 6.92097C83.1786 6.88235 83.6792 6.43434 83.6792 5.7546C83.6792 5.00535 83.1103 4.51871 82.1926 4.51871H80.9184V6.92097H82.3291Z" fill="var(--fill-0, white)"/>
<path d="M36.2536 15.1319H38.6958C40.281 15.1319 41.449 15.9816 41.449 17.4801C41.449 18.9786 40.2886 19.7742 38.6958 19.7742H37.6416V23.0648H36.2536V15.1319ZM38.6958 18.4456C39.6591 18.4456 40.061 18.1058 40.061 17.4801C40.061 16.8544 39.6515 16.4605 38.6958 16.4605H37.6416V18.4456H38.6958Z" fill="var(--fill-0, white)"/>
<path d="M44.2249 15.1319H45.2715L48.3736 23.0648H46.8643L46.2651 21.3422H43.2389L42.6322 23.0648H41.1077L44.2325 15.1319H44.2249ZM45.7873 20.1218L44.7482 17.2252L43.7092 20.1218H45.7873Z" fill="var(--fill-0, white)"/>
<path d="M50.4517 19.975L47.5317 15.1319H49.223L51.1647 18.6078L53.1214 15.1319H54.8204L51.9079 19.975V23.0648H50.4517V19.975Z" fill="var(--fill-0, white)"/>
<path d="M55.8139 15.1319H57.7024L59.7654 20.7784L61.836 15.1319H63.7245V23.0648H62.3745V17.1325L60.448 22.3773H59.0904L57.1639 17.1325V23.0648H55.8139V15.1319Z" fill="var(--fill-0, white)"/>
<path d="M65.7268 15.1319H70.9145V16.445H67.1299V18.4456H70.6491V19.7588H67.1299V21.7207H70.9145V23.0648H65.7268V15.1319Z" fill="var(--fill-0, white)"/>
<path d="M72.5907 15.1319H73.9787L77.2551 20.6857V15.1319H78.6052V23.0648H77.2021L73.9407 17.5033V23.0648H72.5907V15.1319Z" fill="var(--fill-0, white)"/>
<path d="M82.1547 16.4064H79.7125V15.1319H86V16.4064H83.5578V23.0725H82.1547V16.4064Z" fill="var(--fill-0, white)"/>
</g>
</g>
</svg>
