<svg preserveAspectRatio="none" width="100%" height="100%" overflow="visible" style="display: block;" viewBox="0 0 118 26" fill="none" xmlns="http://www.w3.org/2000/svg">
<g id="union pay">
<g id="Vector">
<path fill-rule="evenodd" clip-rule="evenodd" d="M15.6525 0.0013452C14.1652 0.999149 13.8828 2.55588 13.5482 4.09446C13.2658 5.38989 12.9553 6.68129 12.6518 7.99387C13.1523 8.20977 13.307 7.95452 13.4015 7.5328C13.7452 6.0033 14.1069 4.47684 14.4557 2.95037C14.8948 1.04253 16.1811 0.00235355 18.1186 0.00235355C21.0861 0.00235355 24.0566 0.00235355 27.1668 0.00235355C26.9256 0.198081 26.7839 0.312088 26.6432 0.427103C25.9659 0.976954 25.4786 1.65897 25.2746 2.51856C24.8434 4.34064 24.4244 6.16473 23.9893 8.03725C24.1832 8.07862 24.3631 8.11696 24.5932 8.1674C24.9952 6.44117 25.3931 4.74823 25.784 3.05529C26.2634 0.975945 27.4844 0.00235355 29.6218 0.00235355C32.7481 0.00235355 35.8754 0.000335746 39.0007 0.00235355C40.7442 0.00336245 41.6014 1.06877 41.2085 2.77179C39.6328 9.60206 38.051 16.4303 36.4613 23.2575C36.0854 24.8758 34.6715 25.9907 33.0084 25.9947C29.7736 26.0018 26.5387 26.0018 23.3039 25.9947C21.6197 25.9907 20.7595 24.9101 21.1032 23.2475C21.2087 22.739 21.3313 22.2335 21.4991 21.5011C21.1655 21.6675 20.8459 21.7311 20.8147 21.8592C20.6399 22.6189 20.3957 23.4008 20.4389 24.1595C20.4741 24.7729 20.8821 25.3651 21.1373 25.9957C21.0469 25.9957 20.86 25.9957 20.6751 25.9957C17.7869 25.9957 14.9008 25.9987 12.0127 25.9947C10.2471 25.9927 9.37882 24.9142 9.77275 23.1778C10.427 20.2904 11.1063 17.4079 11.7725 14.5245C11.8017 14.4034 11.8188 14.2793 11.8409 14.1532C11.4188 13.9797 11.2299 14.0987 11.1334 14.5245C10.4722 17.4311 9.79385 20.3348 9.11654 23.2384C8.87335 24.2816 9.15875 25.1624 10.0461 25.9957C9.69437 25.9957 9.48937 25.9957 9.28537 25.9957C7.00421 25.9957 4.72507 25.9977 2.44492 25.9957C0.534574 25.9947 -0.318598 24.9465 0.107486 23.0961C1.67616 16.3072 3.24985 9.52236 4.82656 2.73648C5.21145 1.08289 6.58014 0.00437191 8.26538 0.0013452C10.5435 -0.0016815 12.8227 0.0013452 15.1028 0.0013452C15.2837 0.0013452 15.4676 0.0013452 15.6525 0.0013452ZM30.9141 15.1298C30.9805 15.15 31.0488 15.1722 31.1161 15.1934C31.2679 16.0278 31.901 15.8572 32.4094 15.8028C32.6114 15.7816 32.7823 15.4618 32.8958 15.3498C32.6315 14.9755 32.4677 14.7404 32.2406 14.4196C31.2628 14.472 30.2057 14.5225 29.1485 14.5971C28.9365 14.6113 28.8048 14.8201 28.5536 14.5003C28.2752 14.1492 27.4854 14.4942 27.3487 14.9523C26.9477 16.286 26.5689 17.6259 26.1358 18.9495C25.9921 19.3914 25.7127 19.7879 25.4956 20.2046C25.5248 20.2651 25.5539 20.3247 25.5831 20.3872C26.8231 19.8979 28.031 20.9179 29.3153 20.3913C30.5051 21.0612 31.1784 20.253 31.8035 19.2805C32.118 20.4528 32.2225 20.5396 32.8838 20.5688C33.4636 20.5951 33.3722 20.1491 33.4214 20.0159C33.2254 19.6174 33.1028 19.3581 32.9672 19.1049C32.8385 18.8678 32.6958 18.6378 32.5019 18.3059C32.7692 18.2938 33.1169 18.2453 33.4566 18.2716C33.9831 18.3089 34.15 18.0698 34.1027 17.5653C33.7168 17.5472 33.3531 17.529 32.9833 17.5108C32.9089 16.8349 33.344 16.8369 33.7651 16.8853C34.355 16.9519 34.5961 16.7047 34.5519 16.0812C33.4787 16.0812 32.4165 16.1135 31.3573 16.0681C30.7674 16.0429 30.5936 16.2961 30.6167 16.8762C31.0367 16.8762 31.4447 16.8762 31.8447 16.8762C31.91 17.6228 31.4287 17.5603 30.9945 17.5351C30.5202 17.5078 30.1072 17.529 30.1846 18.2221C30.5242 18.2504 30.8689 18.2786 31.287 18.3149C30.9734 18.7639 30.7493 19.1675 30.4408 19.4933C30.273 19.6749 29.9665 19.7244 29.7233 19.8313C29.6469 19.5418 29.452 19.2189 29.5163 18.9637C29.7906 17.8912 30.1243 16.8298 30.472 15.7765C30.5494 15.5364 30.7624 15.3427 30.9141 15.1298ZM9.30044 6.67826C9.01203 7.98176 8.75678 9.23986 8.44928 10.4849C8.35884 10.8501 8.2081 11.298 7.93376 11.4968C7.62927 11.7147 7.12983 11.8095 6.75399 11.7409C6.27967 11.6542 6.30982 11.1618 6.37011 10.7643C6.42538 10.3769 6.50477 9.99351 6.59622 9.61316C6.82936 8.64461 7.07657 7.68212 7.32478 6.68633C6.72686 6.68633 6.19325 6.68633 5.62848 6.68633C5.34409 7.96057 5.04563 9.20657 4.78938 10.4616C4.40952 12.316 5.04764 13.0132 6.95296 12.8659C7.19113 12.8457 7.4303 12.8255 7.66344 12.7751C8.41511 12.6096 9.13262 12.2807 9.38083 11.527C9.90138 9.95013 10.3094 8.33488 10.7797 6.67826C10.2179 6.67826 9.78883 6.67826 9.30044 6.67826ZM26.2222 6.66414C25.7418 8.70514 25.2655 10.734 24.7791 12.8043C25.3027 12.8043 25.7891 12.8043 26.2795 12.8043C26.3739 12.3806 26.4594 11.9992 26.5448 11.6168C26.7638 10.6392 26.7638 10.6392 27.7788 10.5867C29.3173 10.504 30.264 9.72514 30.5483 8.30865C30.7383 7.36532 30.3303 6.73678 29.3676 6.68028C28.3335 6.61773 27.2914 6.66414 26.2222 6.66414ZM21.5031 19.7213C21.6629 19.1675 21.8177 18.6781 21.9372 18.1808C22.0206 17.8286 22.1885 17.6793 22.5663 17.6945C23.1512 17.7187 23.7461 17.7429 24.3209 17.6551C24.6465 17.6047 25.1027 17.4089 25.2173 17.1527C25.5901 16.3113 25.8343 15.4123 26.188 14.353C24.9892 14.4821 23.9762 14.5921 22.9874 14.697C22.8196 14.6274 22.6266 14.5053 22.4216 14.469C22.1111 14.4186 21.8528 14.4518 21.7363 14.8655C21.3413 16.2689 20.9042 17.6581 20.4831 19.0545C20.0199 20.5971 20.0229 20.6031 21.6177 20.589C22.3392 20.583 22.3814 20.5345 22.3472 19.7224C22.099 19.7213 21.8478 19.7213 21.5031 19.7213ZM32.8697 15.7402C34.1892 15.9249 34.3791 15.8431 34.9107 14.9129C35.7166 13.4964 36.5115 12.0719 37.3114 10.6533C37.5647 10.2054 37.8239 9.76248 38.0752 9.32159C36.7256 8.94325 36.4693 10.0258 35.9367 10.9792C35.8774 10.275 35.8352 9.76247 35.786 9.19345C35.3076 9.28123 34.8735 9.36295 34.4374 9.44265C34.563 10.4808 34.7308 11.4494 34.78 12.424C34.8343 13.5015 34.0806 14.2349 33.4948 15.0229C33.3249 15.2489 33.1249 15.4507 32.8697 15.7402ZM33.8214 9.25903C33.0245 9.34983 32.325 9.62224 31.6156 9.27719C31.4809 9.21161 31.2387 9.32461 31.0629 9.39826C30.1363 9.77862 29.4671 11.0216 29.6359 12.0133C29.7344 12.5965 30.1162 12.8992 30.6559 12.9304C31.4457 12.9748 32.2396 12.9425 33.0214 12.9425C33.2968 11.6733 33.55 10.5141 33.8214 9.25903ZM13.6135 12.8063C13.6979 12.3715 13.7693 11.9901 13.8487 11.6088C13.9341 11.2032 14.0316 10.8016 14.115 10.3961C14.313 9.39927 13.8668 8.98865 12.884 9.2671C12.6991 9.32058 12.3815 9.47393 12.3564 9.43559C11.9936 8.86052 11.5625 9.4144 11.1766 9.3569C11.0741 9.34378 10.856 9.56372 10.8239 9.70597C10.6028 10.7229 10.4159 11.748 10.2139 12.7831C10.6601 12.7831 11.1023 12.7831 11.5374 12.7831C11.6921 12.0476 11.8077 11.3586 11.9966 10.6897C12.0499 10.5 12.3172 10.3708 12.487 10.2124C12.5544 10.4082 12.7041 10.616 12.678 10.7996C12.5825 11.4594 12.4267 12.1132 12.286 12.8063C12.7342 12.8063 13.1392 12.8063 13.6135 12.8063ZM21.8438 12.8003C21.9955 12.0749 22.1151 11.3697 22.305 10.6836C22.3593 10.4939 22.6316 10.3678 22.8015 10.2114C22.8728 10.4092 23.0235 10.618 22.9974 10.8016C22.8999 11.4615 22.7392 12.1122 22.5985 12.7922C23.0708 12.7922 23.4918 12.7922 23.9179 12.7922C24.0847 12.0083 24.2827 11.2698 24.3802 10.5202C24.4304 10.1448 24.4355 9.5617 24.2204 9.40633C23.942 9.20354 23.4235 9.31452 23.0095 9.33066C22.8376 9.33672 22.6266 9.62325 22.5693 9.21767C22.088 9.3569 21.2861 9.38212 21.1896 9.65755C20.8409 10.6493 20.7293 11.7228 20.5233 12.8013C20.9655 12.8003 21.3876 12.8003 21.8438 12.8003ZM18.0844 12.9244C19.5526 12.9395 20.6741 11.6057 20.4037 10.161C20.3083 9.65049 19.9857 9.37102 19.4923 9.26105C18.0693 8.94526 16.9438 9.7423 16.6835 11.2526C16.4926 12.3533 16.9629 12.9123 18.0844 12.9244ZM18.7175 19.7375C18.8743 18.6025 18.8743 18.5712 19.9093 18.5732C20.5133 18.5742 20.4319 18.1686 20.5434 17.756C20.0982 17.756 19.7114 17.756 19.3174 17.756C19.2672 17.1012 19.647 17.0387 20.0932 17.0932C20.6509 17.1597 20.9524 16.965 20.9122 16.3577C20.8369 16.3425 20.7725 16.3213 20.7092 16.3213C19.9083 16.3193 19.1044 16.3526 18.3035 16.3103C17.7618 16.284 17.5488 16.4858 17.593 17.0306C17.797 17.075 17.996 17.1174 18.3447 17.19C18.1055 17.4332 17.9377 17.7409 17.7859 17.7318C17.1639 17.6995 17.178 18.1152 17.0915 18.5359C17.3197 18.5641 17.5066 18.5873 17.7216 18.6126C17.7065 18.7467 17.7086 18.8547 17.6804 18.9546C17.2533 20.6142 17.2533 20.586 18.9557 20.6031C19.6119 20.6092 19.6671 20.2561 19.7103 19.7375C19.3546 19.7375 19.0401 19.7375 18.7175 19.7375ZM22.5573 17.868C22.5573 18.44 22.5673 18.8749 22.5553 19.3077C22.5161 20.5769 22.5131 20.5476 23.7692 20.5769C24.3661 20.59 24.5229 20.3388 24.4817 19.8031C24.1993 19.7799 23.9501 19.7567 23.6978 19.7335C23.6978 19.4631 23.6978 19.2391 23.6978 19.0212C25.0183 18.8517 25.1067 18.781 25.0987 17.9013C24.746 17.8902 24.3701 17.7429 24.1802 18.2443C24.1581 18.3038 23.7612 18.3059 23.7521 18.2756C23.5622 17.5704 23.0406 18.0526 22.5573 17.868ZM16.2615 9.96728C15.8887 10.0208 15.558 10.0399 15.2485 10.1237C15.0948 10.166 14.8827 10.3063 14.8506 10.4394C14.6596 11.2123 14.5129 11.9972 14.3481 12.7932C14.8144 12.7932 15.2576 12.7932 15.7058 12.7932C15.9078 11.9044 16.0987 11.0569 16.2866 10.2074C16.2987 10.1499 16.2756 10.0853 16.2615 9.96728ZM21.2006 14.9018C20.8057 14.9018 20.4429 14.9018 20.048 14.9018C20.0359 14.7333 20.0289 14.5991 20.0209 14.47C19.3536 14.3873 18.7175 14.2894 18.4522 15.1137C18.422 15.2095 18.2492 15.2539 18.1588 15.3407C17.9578 15.5374 17.7689 15.7463 17.5759 15.9521C17.6262 16.0126 17.6754 16.0732 17.7256 16.1357C18.0412 16.0964 18.42 16.1549 18.6602 15.9965C19.2189 15.6373 19.8128 15.6595 20.4068 15.7039C20.9705 15.7453 21.2077 15.5243 21.2006 14.9018ZM15.8444 8.62948C15.4967 8.94728 15.2234 9.19951 14.9481 9.45072C15.1571 9.58491 15.4133 9.87043 15.5601 9.822C15.9078 9.71203 16.2022 9.43862 16.5177 9.2328C16.3348 9.06734 16.1519 8.90289 15.8444 8.62948Z" fill="var(--fill-0, white)"/>
<path fill-rule="evenodd" clip-rule="evenodd" d="M48.5966 4.21456C49.5131 4.21456 50.3974 4.21456 51.348 4.21456C50.9722 5.86209 50.6064 7.46927 50.2386 9.07847C50.0206 10.0319 49.7985 10.9883 49.5814 11.9407C49.291 13.217 49.4538 13.79 50.2034 14.1694C51.127 14.6385 52.4595 14.463 53.0665 13.6559C53.4584 13.1343 53.7528 12.4876 53.9096 11.8509C54.5346 9.33877 55.0863 6.80844 55.6772 4.23675C56.5656 4.23675 57.4599 4.23675 58.4367 4.23675C58.2438 5.07918 58.0599 5.88025 57.878 6.68334C57.472 8.46506 57.0761 10.2488 56.66 12.0275C55.7707 15.8159 51.96 17.6501 48.4268 16.0005C47.04 15.3518 46.3938 14.1865 46.7214 12.5632C47.2178 10.0894 47.8228 7.63776 48.3815 5.17503C48.4519 4.85924 48.5232 4.54346 48.5966 4.21456Z" fill="var(--fill-0, white)"/>
<path fill-rule="evenodd" clip-rule="evenodd" d="M104.46 25.4822C103.942 25.4822 103.512 25.4822 102.988 25.4822C103.1 24.9717 103.203 24.4945 103.313 24.0223C103.691 22.4131 104.102 20.808 104.438 19.1917C104.564 18.5844 104.851 18.4098 105.421 18.435C106.18 18.4683 106.94 18.429 107.701 18.4482C109.033 18.4835 110.149 17.5129 109.967 15.9299C109.656 13.2069 109.453 10.4718 109.202 7.67611C110.11 7.67611 110.983 7.67611 111.946 7.67611C112.029 9.60513 112.108 11.5442 112.19 13.4823C112.228 13.4914 112.264 13.5005 112.3 13.5096C112.399 13.331 112.503 13.1544 112.594 12.9718C113.399 11.3576 114.22 9.74839 114.995 8.11801C115.188 7.71546 115.421 7.58732 115.846 7.60851C116.536 7.6408 117.227 7.61759 118 7.61759C117.9 7.8567 117.858 7.99795 117.788 8.12204C115.976 11.3203 114.137 14.5044 112.357 17.7197C111.256 19.7083 109.658 20.7242 107.373 20.5941C107.135 20.581 106.895 20.5911 106.658 20.5931C105.47 20.5991 105.643 20.5023 105.385 21.5828C105.08 22.8702 104.774 24.1585 104.46 25.4822Z" fill="var(--fill-0, white)"/>
<path fill-rule="evenodd" clip-rule="evenodd" d="M92.7616 12.1273C92.441 13.5377 92.1355 14.8967 91.819 16.286C90.9206 16.286 90.0413 16.286 89.0816 16.286C89.1489 15.9107 89.1982 15.5545 89.2796 15.2065C90.0865 11.753 90.9085 8.30154 91.7004 4.84303C91.8049 4.39104 91.9778 4.24979 92.434 4.25988C93.7796 4.29217 95.1272 4.25988 96.4737 4.27502C98.9217 4.29923 100.221 5.96291 99.6754 8.353C99.178 10.5363 97.2254 12.0486 94.7955 12.1253C94.1464 12.1445 93.4962 12.1273 92.7616 12.1273ZM93.1847 10.2396C93.8971 10.1539 94.5071 10.1488 95.0779 9.99751C96.1542 9.70896 96.8184 8.98962 96.9903 7.85763C97.1028 7.11407 96.8596 6.58137 96.1451 6.38867C95.5733 6.23431 94.9513 6.25852 94.3524 6.23128C94.2619 6.22623 94.1041 6.34932 94.08 6.43911C93.7826 7.65585 93.5012 8.87561 93.1847 10.2396Z" fill="var(--fill-0, white)"/>
<path fill-rule="evenodd" clip-rule="evenodd" d="M108.367 7.90908C108.024 9.34575 107.671 10.737 107.362 12.1394C107.057 13.5145 106.798 14.9018 106.518 16.2971C104.822 16.4888 104.627 16.3859 104.169 14.9018C104.002 15.1177 103.889 15.2963 103.743 15.4456C102.872 16.3395 101.802 16.6472 100.589 16.4636C99.5156 16.3011 98.7479 15.4668 98.6172 14.3287C98.4846 13.1715 98.6966 12.0718 99.2322 11.0387C100.802 8.02308 104.689 6.57531 108.367 7.90908ZM105.424 9.29531C105.086 9.29531 104.805 9.26101 104.538 9.30036C102.655 9.5778 100.956 12.0537 101.36 13.9151C101.502 14.5769 102.129 14.9068 102.773 14.5285C103.258 14.242 103.703 13.8101 104.032 13.345C104.867 12.1636 105.072 10.7421 105.424 9.29531Z" fill="var(--fill-0, white)"/>
<path fill-rule="evenodd" clip-rule="evenodd" d="M74.2712 16.506C72.3809 16.505 70.974 15.6666 70.7108 14.1815C70.3359 12.0628 70.9459 10.1782 72.5839 8.76166C74.1657 7.39258 76.0328 7.06469 78.0095 7.76285C79.2787 8.20878 79.9067 9.23282 79.9087 10.5928C79.9128 13.9807 77.507 16.506 74.2712 16.506ZM73.3266 13.0596C73.3195 13.673 73.3768 14.2763 74.03 14.5467C74.6741 14.8151 75.2912 14.6577 75.7725 14.1825C76.8046 13.1655 77.2889 11.9054 77.1623 10.4596C77.0839 9.55264 76.3353 9.05424 75.4821 9.3559C75.0409 9.51228 74.5988 9.84119 74.3003 10.2094C73.6411 11.0236 73.3708 12.0123 73.3266 13.0596Z" fill="var(--fill-0, white)"/>
<path fill-rule="evenodd" clip-rule="evenodd" d="M82.4632 16.3163C81.5819 16.3163 80.7629 16.3163 79.8605 16.3163C80.5057 13.4087 81.1438 10.5373 81.793 7.62262C82.3507 7.62262 82.9506 7.62262 83.6068 7.62262C83.6862 7.98583 83.7686 8.35609 83.8661 8.79396C84.041 8.63758 84.1666 8.53164 84.2841 8.41865C85.1604 7.55704 86.2337 7.31289 87.4074 7.47532C88.5912 7.63675 89.2806 8.43176 89.2213 9.62933C89.1881 10.3174 89.0183 11.0024 88.8696 11.6794C88.5359 13.2109 88.1782 14.7354 87.8214 16.2962C86.9411 16.2962 86.088 16.2962 85.1675 16.2962C85.5533 14.6466 85.9312 13.0404 86.308 11.4343C86.3583 11.2224 86.4276 11.0135 86.4578 10.8007C86.5301 10.3093 86.708 9.75645 86.1663 9.43864C85.5915 9.10268 84.9524 9.23283 84.5545 9.69692C84.1465 10.1711 83.8038 10.7714 83.638 11.3737C83.1918 12.988 82.8572 14.6305 82.4632 16.3163Z" fill="var(--fill-0, white)"/>
<path fill-rule="evenodd" clip-rule="evenodd" d="M56.8952 16.2911C57.5423 13.3824 58.1805 10.5191 58.8226 7.61956C59.3823 7.61956 59.9843 7.61956 60.6324 7.61956C60.7159 7.98882 60.7983 8.35706 60.9088 8.84436C61.7549 7.84656 62.7538 7.38549 63.9818 7.4309C65.6017 7.4884 66.5142 8.48015 66.2198 10.0793C65.8349 12.1526 65.3324 14.2026 64.8722 16.2971C63.9627 16.2971 63.0875 16.2971 62.181 16.2971C62.587 14.5951 62.985 12.9264 63.3819 11.2556C63.4372 11.0226 63.5005 10.7905 63.5397 10.5555C63.7025 9.55968 63.1126 9.05422 62.1438 9.36698C61.2756 9.64745 60.9088 10.3618 60.7058 11.1669C60.334 12.6419 60.0084 14.131 59.6627 15.6141C59.6135 15.825 59.5572 16.0348 59.4949 16.2911C58.6618 16.2911 57.8257 16.2911 56.8952 16.2911Z" fill="var(--fill-0, white)"/>
<path fill-rule="evenodd" clip-rule="evenodd" d="M70.6364 7.6095C69.9671 10.5363 69.3079 13.4167 68.6426 16.3194C67.7453 16.3194 66.8861 16.3194 65.9525 16.3194C66.6419 13.3905 67.3232 10.499 68.0025 7.6095C68.8989 7.6095 69.737 7.6095 70.6364 7.6095Z" fill="var(--fill-0, white)"/>
<path fill-rule="evenodd" clip-rule="evenodd" d="M87.5993 25.6516C85.7613 25.6506 84.8388 24.2594 85.5443 22.5473C86.2095 20.933 88.2103 19.9816 89.7941 20.5254C90.7919 20.8674 91.2994 21.725 91.1216 22.7732C90.8422 24.4339 89.3499 25.6537 87.5993 25.6516ZM86.8959 23.5077C86.9079 24.5005 87.6425 24.9353 88.4284 24.4732C89.16 24.0414 89.5438 23.3544 89.5016 22.516C89.4866 22.1719 89.2815 21.6766 89.0203 21.5474C88.7178 21.4011 88.1872 21.4667 87.8747 21.6473C87.1582 22.0569 86.9562 22.8136 86.8959 23.5077Z" fill="var(--fill-0, white)"/>
<path fill-rule="evenodd" clip-rule="evenodd" d="M102.758 20.5385C102.389 22.2173 102.028 23.8457 101.659 25.5225C101.109 25.6597 100.585 25.6637 100.474 25.0221C99.9035 25.239 99.3558 25.5558 98.776 25.6385C98.0866 25.7374 97.557 25.2501 97.4666 24.5509C97.2787 23.1102 97.7992 21.9338 98.9388 21.0621C100.098 20.1753 101.382 20.0714 102.758 20.5385ZM101.153 21.3245C100.754 21.4344 100.424 21.4586 100.168 21.6069C99.397 22.0539 99.0252 22.7914 98.9358 23.6459C98.9076 23.9244 99.1056 24.224 99.1991 24.5126C99.4995 24.3986 99.8884 24.3633 100.085 24.1514C100.776 23.4088 100.938 22.4353 101.153 21.3245Z" fill="var(--fill-0, white)"/>
<path fill-rule="evenodd" clip-rule="evenodd" d="M93.6057 20.5547C93.6439 20.7181 93.6861 20.8987 93.6941 20.936C94.3664 20.7474 95.0015 20.4568 95.6527 20.4154C96.528 20.362 97.0556 20.9966 96.8898 21.8572C96.6486 23.1122 96.3079 24.3481 96.0075 25.5951C95.4538 25.5951 94.9654 25.5951 94.4106 25.5951C94.68 24.563 94.9483 23.5804 95.1844 22.5896C95.2688 22.2335 95.509 21.7694 95.0045 21.5555C94.474 21.3285 94.0197 21.6231 93.8328 22.0932C93.5384 22.8368 93.3434 23.6227 93.1425 24.3996C92.7917 25.7525 92.8028 25.7545 91.2894 25.5689C91.4863 24.7467 91.6813 23.9294 91.8803 23.1132C92.026 22.522 92.1888 21.9348 92.3214 21.3396C92.5365 20.3963 92.5274 20.3942 93.6057 20.5547Z" fill="var(--fill-0, white)"/>
<path fill-rule="evenodd" clip-rule="evenodd" d="M49.6709 25.6517C49.9573 24.5439 50.2447 23.5421 50.4597 22.5231C50.52 22.2355 50.3673 21.8996 50.311 21.5868C49.9432 21.7008 49.4719 21.715 49.2368 21.9581C48.9594 22.2436 48.8549 22.7198 48.7323 23.1304C48.5464 23.7539 48.3635 24.3855 48.258 25.0252C48.1725 25.5478 47.9334 25.7223 47.4319 25.6587C47.1596 25.6224 46.8792 25.6527 46.5426 25.6527C46.9606 23.9295 47.3586 22.286 47.7716 20.5799C48.0841 20.5799 48.4399 20.5799 48.8328 20.5799C48.8911 20.7393 48.9594 20.933 48.9704 20.9633C49.6327 20.7736 50.2507 20.48 50.8808 20.4427C51.7953 20.3892 52.3078 21.0087 52.1369 21.9177C51.9239 23.0699 51.6164 24.2039 51.3179 25.3379C51.2838 25.4681 51.0697 25.6194 50.923 25.6376C50.5391 25.6799 50.1492 25.6517 49.6709 25.6517Z" fill="var(--fill-0, white)"/>
<path fill-rule="evenodd" clip-rule="evenodd" d="M76.7634 25.5387C76.2177 25.6174 75.67 25.691 75.5645 24.8345C75.3072 25.0474 75.1163 25.2391 74.8912 25.3853C74.3636 25.7253 73.7898 25.796 73.223 25.5074C72.6734 25.2269 72.5387 24.7023 72.5297 24.1293C72.4925 21.8431 74.5234 20.0301 76.8257 20.3055C77.1633 20.3459 77.4959 20.4337 77.8708 20.5073C77.498 22.2013 77.1392 23.8276 76.7634 25.5387ZM76.2589 21.3396C75.88 21.4345 75.5715 21.4486 75.3293 21.5828C74.5264 22.0247 74.1315 22.7693 74.042 23.65C74.0109 23.9285 74.2069 24.2291 74.3013 24.5207C74.6018 24.4047 74.9897 24.3694 75.1877 24.1585C75.879 23.415 76.0368 22.4393 76.2589 21.3396Z" fill="var(--fill-0, white)"/>
<path fill-rule="evenodd" clip-rule="evenodd" d="M66.4761 25.6537C66.9011 23.9093 67.3011 22.2638 67.7131 20.5698C68.0266 20.5698 68.3653 20.5698 68.7542 20.5698C68.8155 20.7292 68.8889 20.9239 68.913 20.9865C69.526 20.7928 70.1179 20.4911 70.7319 20.4407C71.7107 20.3589 72.2503 20.9935 72.0674 21.9681C71.8574 23.1011 71.5499 24.217 71.2584 25.3318C71.2223 25.464 71.0092 25.6204 70.8655 25.6385C70.4827 25.6809 70.0907 25.6526 69.6164 25.6526C69.8807 24.6084 70.1359 23.6308 70.3751 22.6481C70.4686 22.2668 70.7349 21.7855 70.1741 21.5817C69.6506 21.3921 69.1893 21.6725 69.0105 22.1639C68.709 22.9972 68.51 23.8699 68.2608 24.7265C67.9563 25.7798 68.2497 25.6375 67.088 25.6537C66.9172 25.6557 66.7454 25.6537 66.4761 25.6537Z" fill="var(--fill-0, white)"/>
<path fill-rule="evenodd" clip-rule="evenodd" d="M61.6746 23.3483C60.7661 23.3483 59.8788 23.3291 58.9924 23.3594C58.7533 23.3675 58.5161 23.5158 58.279 23.5995C58.4428 23.9274 58.5302 24.4329 58.7854 24.5418C59.2145 24.7224 59.7481 24.6619 60.2395 24.673C60.4244 24.676 60.6124 24.5993 60.7932 24.558C61.0807 25.2955 61.0475 25.4498 60.339 25.5598C59.6205 25.6708 58.8698 25.7394 58.1503 25.6546C57.2389 25.5467 56.7595 24.905 56.6982 23.994C56.5957 22.4534 57.875 20.8059 59.3974 20.5224C61.2183 20.1813 62.167 21.2952 61.6746 23.3483ZM58.6005 22.4282C59.2165 22.4282 59.7451 22.4282 60.2998 22.4282C60.3591 21.9701 60.3229 21.5635 59.8185 21.4949C59.1864 21.4062 58.8417 21.8027 58.6005 22.4282Z" fill="var(--fill-0, white)"/>
<path fill-rule="evenodd" clip-rule="evenodd" d="M79.2405 21.4475C78.9692 21.4284 78.7621 21.4153 78.4828 21.3971C78.5541 21.0924 78.6154 20.8281 78.6888 20.5103C79.4224 20.7141 79.6656 20.2409 79.8816 19.7122C79.9791 19.4721 80.1499 19.2582 80.2283 19.012C80.4202 18.4178 80.8172 18.3381 81.385 18.5147C81.2614 19.1493 81.1378 19.7818 81.0011 20.476C81.4513 20.5002 81.8512 20.5224 82.2422 20.5415C82.2984 21.2417 82.012 21.5393 81.3327 21.4193C80.9267 21.3477 80.6986 21.4899 80.6293 21.9419C80.5398 22.521 80.369 23.088 80.2394 23.6611C80.0404 24.5227 80.1409 24.6609 81.0031 24.7426C81.1307 24.7557 81.2573 24.7699 81.387 24.786C81.5467 25.3974 81.3257 25.6163 80.7237 25.6557C78.6667 25.7858 78.326 25.4014 78.7983 23.3846C78.946 22.7591 79.0857 22.1275 79.2405 21.4475Z" fill="var(--fill-0, white)"/>
<path fill-rule="evenodd" clip-rule="evenodd" d="M56.7424 20.6243C56.7656 21.2902 56.5143 21.5767 55.8993 21.4667C55.3848 21.3749 55.1708 21.608 55.0974 22.1144C55.015 22.6724 54.8422 23.2141 54.7175 23.765C54.5357 24.5681 54.6864 24.7648 55.5215 24.8284C55.6471 24.8375 55.7747 24.8445 55.8983 24.8546C56.0491 25.5235 55.7305 25.7061 55.1497 25.7435C53.2011 25.8696 52.8233 25.4368 53.2664 23.5319C53.4182 22.8832 53.5649 22.2325 53.7217 21.5495C53.4463 21.5041 53.2413 21.4677 53.0082 21.4294C53.0544 20.9693 53.0223 20.5173 53.6945 20.5728C53.8292 20.5839 54.0302 20.4084 54.1146 20.2671C54.3397 19.8969 54.5537 19.5115 54.7025 19.1059C54.9095 18.5409 55.2713 18.4007 55.8752 18.5974C55.7526 19.2159 55.63 19.8424 55.4913 20.5456C55.9184 20.5708 56.3144 20.596 56.7424 20.6243Z" fill="var(--fill-0, white)"/>
<path fill-rule="evenodd" clip-rule="evenodd" d="M43.5108 25.6517C44.1348 23.1617 44.7257 20.7787 45.3407 18.4007C45.3799 18.2484 45.598 18.0557 45.7527 18.0365C46.1527 17.985 46.5647 18.0193 47.0239 18.0193C46.4411 20.4861 45.8824 22.8802 45.2945 25.2653C45.2553 25.4217 45 25.6103 44.8242 25.6335C44.4212 25.69 44.0072 25.6517 43.5108 25.6517Z" fill="var(--fill-0, white)"/>
<path fill-rule="evenodd" clip-rule="evenodd" d="M64.7124 20.5466C64.7124 20.7585 64.7124 20.927 64.7124 21.1671C65.4219 20.6727 66.0801 20.1088 66.9865 20.704C66.6107 21.1802 66.4821 21.8511 65.5927 21.6625C65.0139 21.5404 64.4964 22.066 64.3557 22.6562C64.1758 23.419 63.9638 24.1746 63.8271 24.9434C63.7346 25.466 63.5286 25.7203 62.9739 25.6224C62.7448 25.5841 62.5036 25.6164 62.173 25.6164C62.3589 24.8042 62.5267 24.0556 62.7016 23.304C62.8594 22.626 63.0704 21.9581 63.1739 21.272C63.2643 20.6717 63.5266 20.4417 64.1145 20.5406C64.3014 20.5739 64.4964 20.5466 64.7124 20.5466Z" fill="var(--fill-0, white)"/>
<path fill-rule="evenodd" clip-rule="evenodd" d="M71.6624 4.83906C71.6574 5.88125 70.7389 6.77312 69.6797 6.76404C68.8858 6.75698 68.3723 6.23537 68.3874 5.45347C68.4075 4.42944 69.2938 3.56481 70.3279 3.55977C71.1208 3.55472 71.6654 4.07733 71.6624 4.83906Z" fill="var(--fill-0, white)"/>
<path fill-rule="evenodd" clip-rule="evenodd" d="M83.5274 20.5346C84.0379 20.5346 84.468 20.5346 84.9856 20.5346C84.9102 20.917 84.8479 21.2681 84.7665 21.6131C84.5163 22.6946 84.2228 23.7651 84.0138 24.8557C83.9013 25.4449 83.643 25.677 83.0571 25.5791C82.8501 25.5418 82.6331 25.573 82.3326 25.573C82.7406 23.8539 83.1295 22.2134 83.5274 20.5346Z" fill="var(--fill-0, white)"/>
<path fill-rule="evenodd" clip-rule="evenodd" d="M84.3314 20.0149C83.9334 19.9907 83.643 19.7617 83.6541 19.2502C83.6661 18.6822 84.1887 18.1767 84.7595 18.1908C85.2418 18.2029 85.5292 18.4441 85.5182 18.9566C85.5051 19.5357 85.0006 20.0159 84.3314 20.0149Z" fill="var(--fill-0, white)"/>
<path fill-rule="evenodd" clip-rule="evenodd" d="M27.7376 17.9245C28.2813 17.7147 28.9827 17.7793 28.8732 16.9298C27.8964 16.8037 27.8753 16.8218 27.7376 17.9245ZM29.3656 15.3337C28.3526 15.1995 28.2581 15.2802 28.2672 16.2821C28.7566 16.1095 29.458 16.1842 29.3656 15.3337ZM28.3948 18.6025C27.4351 18.4623 27.4351 18.4623 27.2583 19.4107C28.2019 19.5751 28.2109 19.5691 28.3948 18.6025Z" fill="var(--fill-0, white)"/>
<path fill-rule="evenodd" clip-rule="evenodd" d="M22.6115 16.288C23.1873 15.5192 24.145 16.1034 24.6264 15.4012C24.2204 15.3033 23.8335 15.3437 23.4587 15.2953C22.8336 15.2085 22.6166 15.5061 22.6115 16.288ZM24.345 16.7218C23.2386 16.4212 22.4538 16.5362 22.4658 17.0114C23.0457 16.8369 23.6938 17.1859 24.345 16.7218Z" fill="var(--fill-0, white)"/>
<path fill-rule="evenodd" clip-rule="evenodd" d="M28.8732 16.9298C27.8964 16.8037 27.8753 16.8218 27.7376 17.9245C28.2813 17.7147 28.9827 17.7793 28.8732 16.9298Z" fill="var(--fill-0, white)"/>
<path fill-rule="evenodd" clip-rule="evenodd" d="M28.2672 16.2821C28.7566 16.1095 29.458 16.1842 29.3656 15.3337C28.3526 15.2005 28.2591 15.2812 28.2672 16.2821Z" fill="var(--fill-0, white)"/>
<path fill-rule="evenodd" clip-rule="evenodd" d="M27.2583 19.4107C28.2019 19.5751 28.2109 19.5691 28.3948 18.6025C27.4351 18.4623 27.4351 18.4623 27.2583 19.4107Z" fill="var(--fill-0, white)"/>
<path fill-rule="evenodd" clip-rule="evenodd" d="M27.005 9.67468C27.1779 8.9069 27.3256 8.25515 27.4763 7.58625C27.61 7.57515 27.7155 7.55094 27.82 7.56002C28.2973 7.60239 28.8742 7.4783 28.9716 8.20168C29.052 8.81005 28.5928 9.44566 27.9466 9.59295C27.6803 9.65349 27.3979 9.64542 27.005 9.67468Z" fill="var(--fill-0, white)"/>
<path fill-rule="evenodd" clip-rule="evenodd" d="M22.6115 16.288C22.6166 15.5071 22.8326 15.2095 23.4587 15.2953C23.8335 15.3447 24.2194 15.3043 24.6264 15.4012C24.145 16.1034 23.1873 15.5192 22.6115 16.288Z" fill="var(--fill-0, white)"/>
<path fill-rule="evenodd" clip-rule="evenodd" d="M22.4658 17.0114C23.0457 16.8369 23.6938 17.1859 24.345 16.7218C23.2386 16.4212 22.4538 16.5362 22.4658 17.0114Z" fill="var(--fill-0, white)"/>
<path fill-rule="evenodd" clip-rule="evenodd" d="M32.2115 10.5939C32.0597 11.0771 31.9793 11.4918 31.7914 11.8459C31.708 12.0043 31.4075 12.0477 31.2036 12.1435C31.1292 11.9599 30.9774 11.7682 30.9975 11.5967C31.0418 11.2133 31.1302 10.8219 31.29 10.4738C31.3684 10.3033 31.6538 10.1086 31.8186 10.1308C31.9733 10.15 32.0929 10.4415 32.2115 10.5939Z" fill="var(--fill-0, white)"/>
<path fill-rule="evenodd" clip-rule="evenodd" d="M19.1295 10.5968C18.9727 11.0438 18.8572 11.4625 18.6703 11.8469C18.608 11.971 18.3517 12.0547 18.1909 12.0446C18.1135 12.0406 17.9759 11.7651 17.997 11.633C18.0653 11.2082 18.1547 10.7754 18.3216 10.3829C18.3889 10.2225 18.6783 10.1559 18.8682 10.049C18.9526 10.2256 19.0391 10.4051 19.1295 10.5968Z" fill="var(--fill-0, white)"/>
</g>
</g>
</svg>
