<svg preserveAspectRatio="none" width="100%" height="100%" overflow="visible" style="display: block;" viewBox="0 0 89 28" fill="none" xmlns="http://www.w3.org/2000/svg">
<g id="wechat pay">
<g id="Vector">
<path d="M43.6837 22.1038L43.5292 22.6538C43.3994 23.1132 43.284 23.5191 43.1851 23.9208C43.0594 23.3296 42.8842 22.6683 42.7276 22.0853L41.6685 18.0907H40.9864L39.8222 22.112C39.6141 22.7919 39.4286 23.4058 39.2988 23.9435C39.1999 23.5191 39.0783 23.0453 38.9526 22.5488L37.8234 18.1628L37.8049 18.0928H37.0157L38.9259 25.3258H39.5976L40.8154 21.2221C41.0277 20.5216 41.1884 19.9737 41.3038 19.4916C41.4068 19.9984 41.551 20.5567 41.7303 21.2159L42.7812 25.2557L42.7997 25.3258H43.4818L45.6145 18.2143L45.6516 18.0928H44.8603L43.6858 22.1059L43.6837 22.1038Z" fill="var(--fill-0, white)"/>
<path d="M47.9842 19.8768C46.5686 19.8768 45.6166 21.0099 45.6166 22.6971C45.6166 24.2669 46.6015 25.3217 48.0666 25.3217C48.9877 25.3217 49.5111 25.0848 49.6924 24.9838L49.8057 24.922L49.474 24.3472L49.3957 24.3823C49.1361 24.5018 48.7837 24.6254 48.1284 24.6254C47.0549 24.6254 46.4182 23.9208 46.3769 22.6868H50.0056L50.0304 22.5797C50.053 22.4726 50.053 22.3943 50.053 22.2501C50.053 22.0564 50.0262 21.3807 49.6759 20.7936C49.3133 20.1817 48.7445 19.8727 47.9842 19.8727M46.4182 22.0214C46.6098 20.944 47.3166 20.5587 47.9224 20.5587C48.3077 20.5587 48.6168 20.6741 48.8414 20.9028C49.1731 21.2406 49.2494 21.7289 49.2618 22.0214H46.4182Z" fill="var(--fill-0, white)"/>
<path d="M56.0142 24.3679C55.6351 24.543 55.1014 24.648 54.5883 24.648C52.8822 24.648 51.8642 23.5685 51.8642 21.7639C51.8642 19.9592 52.9131 18.7685 54.6687 18.7685C55.155 18.7685 55.6166 18.8592 55.9689 19.026L56.0452 19.061L56.3893 18.4657L56.2862 18.4101C56.1502 18.3359 55.633 18.0928 54.6584 18.0928C52.5277 18.0928 51.0977 19.5637 51.0977 21.7536C51.0977 24.3885 52.8925 25.3237 54.4276 25.3237C55.293 25.3237 55.9689 25.1404 56.311 24.9694L56.4222 24.9138L56.0884 24.3349L56.0122 24.3699L56.0142 24.3679Z" fill="var(--fill-0, white)"/>
<path d="M59.9665 19.9798C59.5791 19.9798 59.2082 20.087 58.897 20.2868C58.7178 20.3898 58.5509 20.532 58.4087 20.7009V17.9754H57.6401V25.3217H58.4087V22.1594C58.4087 21.9699 58.4169 21.8484 58.4643 21.7083C58.6786 21.1047 59.2432 20.6844 59.8346 20.6844C60.904 20.6844 61.0627 21.6671 61.0627 22.2521V25.3217H61.8313V22.2006C61.8313 20.0849 60.2797 19.9778 59.9706 19.9778" fill="var(--fill-0, white)"/>
<path d="M69.1257 18.9807H68.3572V20.1426H67.5206V20.7689H68.3572V23.7622C68.3572 24.3576 68.4684 24.7758 68.6951 25.0333C68.9011 25.297 69.2308 25.437 69.6491 25.437C69.9397 25.437 70.1911 25.3917 70.3971 25.3011L70.5208 25.2475L70.1972 24.6892L70.1313 24.7037C70.0139 24.7284 69.8737 24.7407 69.713 24.7407C69.3009 24.7407 69.1257 24.475 69.1257 23.8549V20.7689H70.5414V20.1426H69.1257V18.9807Z" fill="var(--fill-0, white)"/>
<path d="M66.8818 24.0094V22.0688C66.8818 20.7029 66.2409 19.9798 65.0314 19.9798C64.4956 19.9798 63.9228 20.1467 63.5004 20.4248L63.4221 20.4722L63.7559 21.049L63.8404 20.9934C64.1515 20.7812 64.5554 20.6659 64.9819 20.6659H65.0005C65.3425 20.6659 65.6083 20.7565 65.7897 20.9378C66.0101 21.1562 66.1173 21.4981 66.1173 21.9823C64.9304 21.9864 64.0753 22.2398 63.5704 22.7383C63.251 23.0535 63.0903 23.4573 63.0903 23.9352C63.0903 24.6583 63.589 25.435 64.6831 25.435C65.4455 25.435 65.9339 25.0662 66.1915 24.7963L66.243 25.3217H66.9807L66.956 25.1651C66.8941 24.7819 66.8859 24.3843 66.8859 24.0094M64.1577 23.1544C64.4915 22.831 65.12 22.6662 66.0225 22.6662H66.1152V23.5974C66.1152 23.6633 66.107 23.7601 66.0699 23.8528C65.9215 24.2875 65.4929 24.7531 64.7326 24.7531C64.337 24.7531 63.8774 24.5182 63.8774 23.8569C63.8774 23.5706 63.9702 23.3357 64.1556 23.1565" fill="var(--fill-0, white)"/>
<path d="M76.7437 18.0392C76.2347 18.0392 75.7216 18.0845 75.223 18.1752L75.1117 18.1958V25.3237H75.8803V22.384C76.0864 22.4231 76.3171 22.4313 76.5912 22.4313C77.5123 22.4313 78.2747 22.1409 78.7363 21.6135C79.0866 21.2282 79.2576 20.7441 79.2576 20.1282C79.2576 19.5122 79.0577 19.0219 78.6786 18.6675C78.2582 18.2576 77.5906 18.0413 76.7457 18.0413M75.8803 18.785C76.0307 18.7603 76.313 18.7252 76.7251 18.7252C77.8461 18.7252 78.489 19.2547 78.489 20.1797C78.489 21.1767 77.8111 21.7474 76.6324 21.7474C76.4037 21.7474 76.1152 21.7391 75.8803 21.6794V18.785Z" fill="var(--fill-0, white)"/>
<path d="M88.1758 20.0932L86.9353 23.3914C86.8364 23.651 86.7478 23.9085 86.6736 24.1268C86.5953 23.8858 86.5088 23.6407 86.4243 23.4202L85.122 20.1776L85.089 20.0911H84.2689L86.1832 24.8747C86.2347 25.0044 86.2347 25.0415 86.2347 25.0415C86.2347 25.0745 86.2079 25.1445 86.1832 25.2063C85.9359 25.7914 85.6145 26.1849 85.3878 26.4115C85.0767 26.7102 84.7408 26.8647 84.5677 26.9286L84.4276 26.9801L84.7902 27.6084L84.8644 27.5796C84.9942 27.5301 85.3404 27.3797 85.7257 27.0563C86.3872 26.4795 86.8034 25.6039 87.436 23.9785L89 20.0932H88.1758Z" fill="var(--fill-0, white)"/>
<path d="M83.3767 24.0094V22.0688C83.3767 20.703 82.7379 19.9799 81.5263 19.9799C81.0215 19.9799 80.4713 20.1323 80.0551 20.3898L79.9768 20.4372L80.3064 21.0078L80.3889 20.9563C80.6918 20.7689 81.0771 20.6638 81.4727 20.6638H81.4913C81.8313 20.6638 82.0971 20.7545 82.2805 20.9357C82.501 21.1541 82.6081 21.4961 82.6081 21.9823C81.4233 21.9864 80.5661 22.2398 80.0633 22.7383C79.7439 23.0535 79.5832 23.4573 79.5832 23.9352C79.5832 24.6583 80.0818 25.435 81.176 25.435C81.9405 25.435 82.4288 25.0662 82.6844 24.7964L82.7379 25.3217H83.4756L83.4509 25.1631C83.3891 24.7799 83.3788 24.3823 83.3788 24.0073M82.6102 23.5953C82.6102 23.6612 82.6019 23.7581 82.5669 23.8508C82.4185 24.2855 81.9879 24.751 81.2296 24.751C80.834 24.751 80.3724 24.5162 80.3724 23.8549C80.3724 23.5685 80.4651 23.3337 80.6506 23.1545C80.9844 22.831 81.6129 22.6662 82.5154 22.6662H82.6102V23.5974V23.5953Z" fill="var(--fill-0, white)"/>
<path d="M61.8168 5.94646H54.5801V6.66132H61.8168V5.94646Z" fill="var(--fill-0, white)"/>
<path d="M61.8168 7.95301H54.5801V8.71731H61.8168V7.95301Z" fill="var(--fill-0, white)"/>
<path d="M61.6355 10.009H54.7634V13.9582H61.6355V10.009ZM60.871 13.2433H55.5258V10.7238H60.871V13.2433Z" fill="var(--fill-0, white)"/>
<path d="M52.6864 5.41292C53.0923 4.53738 53.4488 3.60621 53.7455 2.64209L53.7538 2.61531L53.047 2.20741L53.0346 2.25273C52.4 4.48999 51.4851 6.48829 50.3167 8.18993L50.3044 8.20847L50.7268 8.93362L50.7577 8.88624C51.1451 8.31353 51.5448 7.6543 51.9219 6.97447V14.362H52.6864V5.41292Z" fill="var(--fill-0, white)"/>
<path d="M58.8331 3.67419L58.8125 3.62681C58.7631 3.51144 58.6394 3.25393 58.4849 2.92638C58.3592 2.66063 58.2191 2.36603 58.1511 2.21771L58.1264 2.16002L57.4216 2.56586L57.4464 2.61324C57.673 3.03968 57.8688 3.43316 58.046 3.81634C58.0584 3.84312 58.0687 3.86578 58.0769 3.88638H53.8774V4.65068H62.569V3.88638H58.4581L58.8311 3.67213L58.8331 3.67419Z" fill="var(--fill-0, white)"/>
<path d="M44.85 3.36311H44.1371V5.62098H42.9935V2.40929H42.2805V5.62098H41.0874V3.36311H40.3724V6.33377H44.85V3.36311Z" fill="var(--fill-0, white)"/>
<path d="M44.5492 7.52657H40.5744V8.24142H44.5492V7.52657Z" fill="var(--fill-0, white)"/>
<path d="M43.1686 12.4152L43.148 12.444L43.5746 13.1836L43.6261 13.1424C43.9723 12.8643 44.5636 12.3575 45.3817 11.6385L45.4167 11.6076L45.0582 10.9875L44.098 11.8095V9.43217H40.7248V10.4457C40.8175 11.7683 40.4899 12.7118 39.7501 13.2516L39.7089 13.2804L40.0819 13.9294L40.1149 13.987L40.1664 13.9458C41.1122 13.1671 41.5573 12.0732 41.4893 10.6929V10.147H43.385V11.5417C43.3603 12.0341 43.3376 12.1824 43.1707 12.4152" fill="var(--fill-0, white)"/>
<path d="M37.6483 6.17928C38.6456 5.18013 39.5049 3.97085 40.1354 2.67711L40.1498 2.64621L39.4884 2.26303L39.4719 2.29805C38.8579 3.55265 38.0748 4.6445 37.2115 5.45412L37.1909 5.47266L37.6174 6.21018L37.6504 6.17722L37.6483 6.17928Z" fill="var(--fill-0, white)"/>
<path d="M37.4258 10.2212L37.4773 10.1614C37.8338 9.74322 38.1841 9.30649 38.5179 8.85739V14.3599H39.2329V7.69755C39.5235 7.18047 39.8017 6.6057 40.0654 5.98561L40.084 5.94029L39.3998 5.54681L39.3751 5.60655C38.7817 7.08776 37.9986 8.3918 37.0446 9.48365L37.0178 9.51455L37.3867 10.1552L37.4279 10.2232L37.4258 10.2212Z" fill="var(--fill-0, white)"/>
<path d="M44.7161 7.28347L45.1653 8.06219L45.4909 7.40914C45.5753 7.25875 45.6495 7.1269 45.7093 7.01566C45.9112 8.68846 46.2553 10.0419 46.7334 11.039C46.2636 11.8466 45.5424 12.685 44.5924 13.5317L44.5595 13.5626L44.9798 14.2899L45.0313 14.2425C46.0245 13.3134 46.719 12.4955 47.1002 11.8095C47.5288 12.5553 48.2355 13.4514 49.0495 14.2775L49.101 14.329L49.5275 13.5915L49.4966 13.5606C48.6126 12.7159 47.91 11.8404 47.5143 11.0905C48.2355 9.76177 48.6889 7.82322 48.8578 5.32844H49.5626V4.61359H46.7251C46.9477 3.94406 47.2403 3.04791 47.3371 2.29804L47.3413 2.25684H46.6015L46.5953 2.28568C46.177 4.24689 45.5485 5.92175 44.7264 7.26287L44.714 7.28141L44.7161 7.28347ZM46.2533 5.88261C46.3151 5.70132 46.3913 5.51591 46.482 5.3305H48.1428C48.0109 7.35763 47.6792 8.99335 47.1537 10.1944C46.7478 9.1149 46.4449 7.66459 46.2533 5.88261Z" fill="var(--fill-0, white)"/>
<path d="M69.9335 2.15587H69.1608V3.89253H63.7332V4.64859H69.1608V6.85907H65.6413V7.52036L65.6434 7.53478C65.6496 7.54714 66.1997 8.7729 67.2815 10.0831C67.7967 10.7053 68.3015 11.2141 68.8702 11.6859C67.364 12.6067 65.8165 13.198 64.0073 13.5503L63.9578 13.5606L64.3864 14.3043L64.3988 14.3269L64.4235 14.3207C64.4482 14.3166 66.9848 13.7625 69.4802 12.1515C69.5152 12.1741 69.5605 12.2071 69.6162 12.2442C70.1828 12.6376 71.685 13.68 74.2875 14.3001L74.337 14.3104L74.6543 13.7068L74.611 13.6945C74.611 13.6945 73.8466 13.4926 72.7215 13.0579C72.0394 12.7942 71.0256 12.343 70.0345 11.6797C71.5675 10.5384 72.7441 9.00157 73.4406 7.23401L73.453 7.20517L72.8554 6.86113L72.8472 6.85701H69.9273V4.64653H75.4023V3.89047H69.9273V2.15381L69.9335 2.15587ZM72.5443 7.53272C72.4206 7.84792 71.6335 9.64844 69.474 11.1976C68.1841 10.2088 67.1043 8.91093 66.4305 7.53272H72.5443Z" fill="var(--fill-0, white)"/>
<path d="M79.5049 2.25063C78.8702 4.48789 77.9553 6.48619 76.787 8.18783L76.7746 8.20637L77.197 8.93152L77.23 8.88414C77.6174 8.31143 78.0172 7.65426 78.3942 6.97237V14.3578H79.1587V5.41081C79.5626 4.53733 79.9191 3.60617 80.2179 2.63999L80.2261 2.6132L79.5193 2.20531L79.507 2.25063H79.5049Z" fill="var(--fill-0, white)"/>
<path d="M86.7746 2.27942H86.0081V5.24595H80.2941V6.00819H86.0081V12.4089C86.0081 13.0764 85.6104 13.3998 84.7944 13.3998C84.6522 13.3998 84.5203 13.3998 84.3946 13.3978H84.3576V14.1621H84.3926C84.6687 14.1621 84.8665 14.16 84.9984 14.16C85.6537 14.16 86.0493 14.0302 86.3646 13.715C86.6551 13.4245 86.7932 12.9857 86.7746 12.4089V6.01025H88.6353V5.24802H86.7746V2.27942Z" fill="var(--fill-0, white)"/>
<path d="M82.4927 7.76135L82.4762 7.72633L81.7859 8.12805L81.8003 8.15895C82.2207 8.98298 82.6967 9.99037 83.2098 11.1584L83.2263 11.1955L83.9784 10.7567L83.9639 10.7279C83.5745 9.93475 83.0655 8.90882 82.4927 7.76135Z" fill="var(--fill-0, white)"/>
<path d="M11.539 17.7099C11.3965 17.782 11.2347 17.8243 11.0624 17.8243C10.6668 17.8243 10.3204 17.6062 10.1392 17.2826L10.0707 17.1313L7.18328 10.793C7.15162 10.7245 7.13228 10.6471 7.13228 10.5697C7.13228 10.2777 7.36967 10.0403 7.66158 10.0403C7.77939 10.0403 7.89017 10.079 7.9781 10.1458L11.386 12.5728C11.6357 12.7364 11.9329 12.8314 12.2529 12.8314C12.4446 12.8314 12.6257 12.7962 12.7963 12.7346L28.8228 5.59965C25.9495 2.21242 21.2175 0 15.863 0C7.10239 0 0 5.91973 0 13.2218C0 17.2052 2.13652 20.7912 5.48109 23.2164C5.75014 23.4081 5.92598 23.7229 5.92598 24.0781C5.92598 24.196 5.90136 24.3032 5.86971 24.4158C5.60243 25.413 5.17512 27.0081 5.15402 27.0837C5.12061 27.2086 5.06962 27.3387 5.06962 27.4706C5.06962 27.7626 5.30701 28 5.59891 28C5.71321 28 5.80641 27.9578 5.90488 27.9015L9.37783 25.8966C9.63983 25.7454 9.91591 25.6522 10.2201 25.6522C10.3819 25.6522 10.5384 25.6768 10.6861 25.7225C12.3056 26.1886 14.0535 26.4471 15.8648 26.4471C24.6254 26.4471 31.7277 20.5274 31.7277 13.2253C31.7277 11.0129 31.0736 8.93059 29.9218 7.09805L11.6568 17.6449L11.5407 17.7117L11.539 17.7099Z" fill="var(--fill-0, white)"/>
</g>
</g>
</svg>
