<svg preserveAspectRatio="none" width="100%" height="100%" overflow="visible" style="display: block;" viewBox="0 0 159 18" fill="none" xmlns="http://www.w3.org/2000/svg">
<g id="western union">
<g id="Vector">
<path d="M135.203 1.88496C134.418 1.88496 133.805 2.49558 133.805 3.27213C133.805 4.04867 134.431 4.63938 135.203 4.63938C135.974 4.63938 136.58 4.02876 136.58 3.27213C136.58 2.51549 135.961 1.88496 135.203 1.88496Z" fill="var(--fill-0, white)"/>
<path d="M135.203 1.88496C134.418 1.88496 133.805 2.49558 133.805 3.27213C133.805 4.04867 134.431 4.63938 135.203 4.63938C135.974 4.63938 136.58 4.02876 136.58 3.27213C136.58 2.51549 135.961 1.88496 135.203 1.88496Z" fill="var(--fill-0, white)"/>
<path d="M9.08383 15.8628C10.7187 18.7102 13.395 18.7102 15.0298 15.8628L15.9461 14.2699L7.76542 0H0L9.09042 15.8562L9.08383 15.8628Z" fill="var(--fill-0, white)"/>
<path d="M26.3153 9.76991C25.7155 10.8053 24.3114 10.8053 23.7181 9.76991L18.1149 0.00663484H10.3494L19.453 15.8695C21.0879 18.7102 23.7576 18.7102 25.3925 15.8695L31.4835 5.24336L28.4841 0.00663484H20.7253L26.3219 9.76991H26.3153Z" fill="var(--fill-0, white)"/>
<path d="M39.7961 15.9358H42.4461L42.4659 15.8496C44.1007 9.74337 44.7731 7.13496 45.0434 5.52212C45.3071 7.13496 45.9465 9.77655 47.5088 15.8496L47.5286 15.9358H50.2379L54.0086 1.97788H51.5431L51.5234 2.06416C49.8885 8.40266 49.2623 10.9712 48.9788 12.604C48.6492 10.8451 47.9373 7.94469 46.4079 2.06416L46.3882 1.97788H43.8107L43.7909 2.06416C42.1956 8.34292 41.5298 11.0243 41.2398 12.7699C40.93 11.0708 40.2246 8.25 38.6293 2.06416L38.6096 1.97788H36.0518L39.7763 15.8562L39.7961 15.9425V15.9358Z" fill="var(--fill-0, white)"/>
<path d="M58.0428 7.48009C59.4996 7.48009 60.6137 8.41593 60.7258 9.73009H55.3137C55.4785 8.41593 56.6057 7.48009 58.0428 7.48009ZM58.1944 16.1283C60.1984 16.1283 62.0903 15.0266 62.8484 13.3938L61.0224 12.458H60.9828L60.9499 12.5243C60.7258 12.9889 59.9149 14.0642 58.2142 14.0642C56.6651 14.0642 55.4917 13.0752 55.3137 11.6416H63.1846V11.5288C63.2373 9.5708 62.71 7.96461 61.6618 6.88938C60.7521 5.95354 59.5062 5.45576 58.0428 5.45576C56.5794 5.45576 55.2873 6 54.3447 6.99558C53.4086 7.97788 52.8944 9.33186 52.8944 10.812C52.8944 13.9447 55.0698 16.1283 58.1878 16.1283" fill="var(--fill-0, white)"/>
<path d="M68.1682 16.1283C70.7457 16.1283 72.3476 14.9204 72.3476 12.9757C72.3476 10.6726 70.2711 10.1283 68.5967 9.69027C67.4431 9.3916 66.4477 9.12611 66.4477 8.38938C66.4477 7.79204 67.0674 7.38053 67.9639 7.38053C68.9395 7.38053 69.6119 7.89823 69.724 8.73451L69.7899 9.15929H69.836L71.8861 8.7677C71.8861 6.82965 70.1854 5.47566 67.9771 5.47566C65.7687 5.47566 64.1207 6.73673 64.1207 8.54867C64.1207 10.7323 66.1379 11.2766 67.7595 11.7146C68.9329 12.0332 69.9481 12.3053 69.9481 13.0752C69.9481 13.7456 69.2955 14.1637 68.2473 14.1637C66.9817 14.1637 66.1379 13.573 66.0324 12.6173L66.0126 12.458L63.8439 12.8695C63.8439 14.9867 66.1972 16.1217 68.1748 16.1217" fill="var(--fill-0, white)"/>
<path d="M74.1802 14.031C74.1802 15.1858 74.9053 16.1217 76.1116 16.1217C77.6014 16.1217 78.0431 15.9292 78.0431 15.9292V13.9845C78.0431 13.9845 77.5948 14.0575 77.0543 14.0575C76.7049 14.0575 76.4544 13.8451 76.4544 13.5199V7.63275H78.0299L78.0101 5.66814H76.4544V2.74779L74.1867 3.31859V5.66814H73.0002V7.63275H74.1867V14.031H74.1802Z" fill="var(--fill-0, white)"/>
<path d="M91.9589 6.96903V5.66815H89.9615V15.9359H92.361L92.3412 9.65709C92.3742 9.02655 92.5851 8.54204 92.9675 8.21682C93.4685 7.79204 94.2595 7.65266 95.3011 7.7854L95.4263 7.79868L95.4461 5.65487L95.3472 5.6416C93.9101 5.44248 92.6049 5.88717 91.9589 6.95576" fill="var(--fill-0, white)"/>
<path d="M101.959 5.45576C100.515 5.45576 99.164 6.03319 98.4916 7.13496V5.66814H96.4151V15.9358H98.8343V10.427C98.8343 8.65487 99.7572 7.59956 101.293 7.59956C102.348 7.59956 103.6 8.06416 103.6 10.2743V15.9358H106.02V9.94248C106.02 6.63717 103.917 5.45576 101.952 5.45576" fill="var(--fill-0, white)"/>
<path d="M119.026 10.1549C119.026 12.5243 117.912 13.8319 115.881 13.8319C113.851 13.8319 112.757 12.5243 112.757 10.1549V1.97788H110.318V10.0951C110.318 13.8717 112.394 16.1283 115.881 16.1283C119.369 16.1283 121.445 13.8717 121.445 10.0951V1.97788H119.026V10.1549Z" fill="var(--fill-0, white)"/>
<path d="M128.426 5.45576C126.982 5.45576 125.631 6.03319 124.965 7.13496V5.66814H122.889V15.9358H125.308V10.427C125.308 8.65487 126.231 7.59956 127.767 7.59956C128.822 7.59956 130.074 8.06416 130.074 10.2743V15.9358H132.493V9.94248C132.493 6.63717 130.391 5.45576 128.426 5.45576Z" fill="var(--fill-0, white)"/>
<path d="M136.389 5.66815H133.99V15.9359H136.389V5.66815Z" fill="var(--fill-0, white)"/>
<path d="M142.882 13.9049C141.155 13.9049 139.857 12.5642 139.857 10.7854C139.857 9.00664 141.162 7.66594 142.882 7.66594C144.603 7.66594 145.948 9.00664 145.948 10.7854C145.948 12.5642 144.629 13.9049 142.882 13.9049ZM142.882 5.44912C141.393 5.44912 140.028 5.98673 139.039 6.96903C138.057 7.95133 137.51 9.30532 137.51 10.7854C137.51 13.8783 139.771 16.1217 142.882 16.1217C145.994 16.1217 148.275 13.8783 148.275 10.7854C148.275 9.30532 147.734 7.95133 146.745 6.96903C145.757 5.98673 144.385 5.44912 142.882 5.44912Z" fill="var(--fill-0, white)"/>
<path d="M154.933 5.45576C153.489 5.45576 152.138 6.03319 151.472 7.13496V5.66814H149.395V15.9358H151.815V10.427C151.815 8.65487 152.738 7.59956 154.274 7.59956C155.328 7.59956 156.581 8.06416 156.581 10.2743V15.9358H159V9.94248C159 6.63717 156.897 5.45576 154.933 5.45576Z" fill="var(--fill-0, white)"/>
<path d="M81.0557 9.73009C81.2205 8.41593 82.3477 7.48009 83.7848 7.48009C85.2219 7.48009 86.3491 8.41593 86.4678 9.73009H81.0557ZM83.7848 5.45576C82.3411 5.45576 81.0293 6 80.0867 6.99558C79.1506 7.97788 78.6364 9.33186 78.6364 10.812C78.6364 13.9447 80.8118 16.1283 83.9298 16.1283C85.9338 16.1283 87.8257 15.0266 88.5838 13.3938L86.7578 12.458H86.7183L86.6853 12.5243C86.4612 12.9889 85.6503 14.0642 83.9496 14.0642C82.4071 14.0642 81.2271 13.0752 81.0491 11.6416H88.92V11.5288C88.9727 9.5708 88.4454 7.96461 87.3973 6.88938C86.4875 5.95354 85.2417 5.45576 83.7782 5.45576" fill="var(--fill-0, white)"/>
<path d="M9.08383 15.8628C10.7187 18.7102 13.395 18.7102 15.0298 15.8628L15.9461 14.2699L7.76542 0H0L9.09042 15.8562L9.08383 15.8628Z" fill="var(--fill-0, white)"/>
<path d="M26.3153 9.76991C25.7155 10.8053 24.3114 10.8053 23.7181 9.76991L18.1149 0.00663484H10.3494L19.453 15.8695C21.0879 18.7102 23.7576 18.7102 25.3925 15.8695L31.4835 5.24336L28.4841 0.00663484H20.7253L26.3219 9.76991H26.3153Z" fill="var(--fill-0, white)"/>
<path d="M39.7961 15.9358H42.4461L42.4659 15.8496C44.1007 9.74337 44.7731 7.13496 45.0434 5.52212C45.3071 7.13496 45.9465 9.77655 47.5088 15.8496L47.5286 15.9358H50.2379L54.0086 1.97788H51.5431L51.5234 2.06416C49.8885 8.40266 49.2623 10.9712 48.9788 12.604C48.6492 10.8451 47.9373 7.94469 46.4079 2.06416L46.3882 1.97788H43.8107L43.7909 2.06416C42.1956 8.34292 41.5298 11.0243 41.2398 12.7699C40.93 11.0708 40.2246 8.25 38.6293 2.06416L38.6096 1.97788H36.0518L39.7763 15.8562L39.7961 15.9425V15.9358Z" fill="var(--fill-0, white)"/>
<path d="M58.0428 7.48009C59.4996 7.48009 60.6137 8.41593 60.7258 9.73009H55.3137C55.4785 8.41593 56.6057 7.48009 58.0428 7.48009ZM58.1944 16.1283C60.1984 16.1283 62.0903 15.0266 62.8484 13.3938L61.0224 12.458H60.9828L60.9499 12.5243C60.7258 12.9889 59.9149 14.0642 58.2142 14.0642C56.6651 14.0642 55.4917 13.0752 55.3137 11.6416H63.1846V11.5288C63.2373 9.5708 62.71 7.96461 61.6618 6.88938C60.7521 5.95354 59.5062 5.45576 58.0428 5.45576C56.5794 5.45576 55.2873 6 54.3447 6.99558C53.4086 7.97788 52.8944 9.33186 52.8944 10.812C52.8944 13.9447 55.0698 16.1283 58.1878 16.1283" fill="var(--fill-0, white)"/>
<path d="M68.1682 16.1283C70.7457 16.1283 72.3476 14.9204 72.3476 12.9757C72.3476 10.6726 70.2711 10.1283 68.5967 9.69027C67.4431 9.3916 66.4477 9.12611 66.4477 8.38938C66.4477 7.79204 67.0674 7.38053 67.9639 7.38053C68.9395 7.38053 69.6119 7.89823 69.724 8.73451L69.7899 9.15929H69.836L71.8861 8.7677C71.8861 6.82965 70.1854 5.47566 67.9771 5.47566C65.7687 5.47566 64.1207 6.73673 64.1207 8.54867C64.1207 10.7323 66.1379 11.2766 67.7595 11.7146C68.9329 12.0332 69.9481 12.3053 69.9481 13.0752C69.9481 13.7456 69.2955 14.1637 68.2473 14.1637C66.9817 14.1637 66.1379 13.573 66.0324 12.6173L66.0126 12.458L63.8439 12.8695C63.8439 14.9867 66.1972 16.1217 68.1748 16.1217" fill="var(--fill-0, white)"/>
<path d="M74.1802 14.031C74.1802 15.1858 74.9053 16.1217 76.1116 16.1217C77.6014 16.1217 78.0431 15.9292 78.0431 15.9292V13.9845C78.0431 13.9845 77.5948 14.0575 77.0543 14.0575C76.7049 14.0575 76.4544 13.8451 76.4544 13.5199V7.63275H78.0299L78.0101 5.66814H76.4544V2.74779L74.1867 3.31859V5.66814H73.0002V7.63275H74.1867V14.031H74.1802Z" fill="var(--fill-0, white)"/>
<path d="M91.9589 6.96903V5.66815H89.9615V15.9359H92.361L92.3412 9.65709C92.3742 9.02655 92.5851 8.54204 92.9675 8.21682C93.4685 7.79204 94.2595 7.65266 95.3011 7.7854L95.4263 7.79868L95.4461 5.65487L95.3472 5.6416C93.9101 5.44248 92.6049 5.88717 91.9589 6.95576" fill="var(--fill-0, white)"/>
<path d="M101.959 5.45576C100.515 5.45576 99.164 6.03319 98.4916 7.13496V5.66814H96.4151V15.9358H98.8343V10.427C98.8343 8.65487 99.7572 7.59956 101.293 7.59956C102.348 7.59956 103.6 8.06416 103.6 10.2743V15.9358H106.02V9.94248C106.02 6.63717 103.917 5.45576 101.952 5.45576" fill="var(--fill-0, white)"/>
<path d="M119.026 10.1549C119.026 12.5243 117.912 13.8319 115.881 13.8319C113.851 13.8319 112.757 12.5243 112.757 10.1549V1.97788H110.318V10.0951C110.318 13.8717 112.394 16.1283 115.881 16.1283C119.369 16.1283 121.445 13.8717 121.445 10.0951V1.97788H119.026V10.1549Z" fill="var(--fill-0, white)"/>
<path d="M128.426 5.45576C126.982 5.45576 125.631 6.03319 124.965 7.13496V5.66814H122.889V15.9358H125.308V10.427C125.308 8.65487 126.231 7.59956 127.767 7.59956C128.822 7.59956 130.074 8.06416 130.074 10.2743V15.9358H132.493V9.94248C132.493 6.63717 130.391 5.45576 128.426 5.45576Z" fill="var(--fill-0, white)"/>
<path d="M136.389 5.66815H133.99V15.9359H136.389V5.66815Z" fill="var(--fill-0, white)"/>
<path d="M142.882 13.9049C141.155 13.9049 139.857 12.5642 139.857 10.7854C139.857 9.00664 141.162 7.66594 142.882 7.66594C144.603 7.66594 145.948 9.00664 145.948 10.7854C145.948 12.5642 144.629 13.9049 142.882 13.9049ZM142.882 5.44912C141.393 5.44912 140.028 5.98673 139.039 6.96903C138.057 7.95133 137.51 9.30532 137.51 10.7854C137.51 13.8783 139.771 16.1217 142.882 16.1217C145.994 16.1217 148.275 13.8783 148.275 10.7854C148.275 9.30532 147.734 7.95133 146.745 6.96903C145.757 5.98673 144.385 5.44912 142.882 5.44912Z" fill="var(--fill-0, white)"/>
<path d="M154.933 5.45576C153.489 5.45576 152.138 6.03319 151.472 7.13496V5.66814H149.395V15.9358H151.815V10.427C151.815 8.65487 152.738 7.59956 154.274 7.59956C155.328 7.59956 156.581 8.06416 156.581 10.2743V15.9358H159V9.94248C159 6.63717 156.897 5.45576 154.933 5.45576Z" fill="var(--fill-0, white)"/>
<path d="M81.0557 9.73009C81.2205 8.41593 82.3477 7.48009 83.7848 7.48009C85.2219 7.48009 86.3491 8.41593 86.4678 9.73009H81.0557ZM83.7848 5.45576C82.3411 5.45576 81.0293 6 80.0867 6.99558C79.1506 7.97788 78.6364 9.33186 78.6364 10.812C78.6364 13.9447 80.8118 16.1283 83.9298 16.1283C85.9338 16.1283 87.8257 15.0266 88.5838 13.3938L86.7578 12.458H86.7183L86.6853 12.5243C86.4612 12.9889 85.6503 14.0642 83.9496 14.0642C82.4071 14.0642 81.2271 13.0752 81.0491 11.6416H88.92V11.5288C88.9727 9.5708 88.4454 7.96461 87.3973 6.88938C86.4875 5.95354 85.2417 5.45576 83.7782 5.45576" fill="var(--fill-0, white)"/>
</g>
</g>
</svg>
