<svg preserveAspectRatio="none" width="100%" height="100%" overflow="visible" style="display: block;" viewBox="0 0 52 28" fill="none" xmlns="http://www.w3.org/2000/svg">
<g id="xnap">
<g id="Vector">
<path d="M38.5542 28C45.9801 28 52 21.732 52 14C52 6.26801 45.9801 0 38.5542 0C31.1282 0 25.1083 6.26801 25.1083 14C25.1083 21.732 31.1282 28 38.5542 28Z" fill="white"/>
<path d="M3.60258 18.9336L5.64424 15.3077L7.60478 18.9336H11.2675L7.56422 13.3289L11.2269 7.82746H7.62431L5.72387 11.3079L3.80239 7.82746H0.139716L3.7423 13.307L0 18.9336H3.60258Z" fill="white"/>
<path d="M17.2181 18.9279V13.9129C17.2181 11.152 18.1149 10.0148 19.3243 10.0148C20.5337 10.0148 21.0986 10.7047 21.1767 11.8012C21.2158 12.3487 21.2158 12.8977 21.2158 13.3029V18.9263H24.2775V12.8148C24.2925 12.1438 24.2595 11.4712 24.1798 10.8048C23.9455 8.91674 22.679 7.8202 20.4946 7.8202C19.5196 7.8202 18.779 8.02355 18.0759 8.51003L17.2181 9.80992V8.10489H14.1563V18.9263H17.2181V18.9279Z" fill="white"/>
<path d="M30.3124 19.24C29.4531 19.2603 28.6148 18.9678 27.9403 18.4125C27.2642 17.8212 26.8841 16.9406 26.9112 16.0224C26.9022 15.4624 27.0329 14.9117 27.2898 14.419C27.5587 13.931 27.9418 13.5211 28.403 13.2255C28.9619 12.8704 29.5763 12.6201 30.2163 12.4809C31.0321 12.301 31.8643 12.215 32.6981 12.2244H33.3742V12.0382C33.3787 11.7222 33.3667 11.4047 33.3351 11.0903C33.3126 10.7634 33.1654 10.4583 32.928 10.244C32.6245 9.99845 32.2474 9.87487 31.8643 9.89364C31.4437 9.86861 31.0321 10.0313 30.7331 10.3395C30.4687 10.6304 30.3124 11.0559 30.2734 11.6065H27.2898C27.2913 10.4599 27.8096 9.38057 28.6899 8.69074C29.1346 8.34504 29.6349 8.08537 30.1682 7.92582C30.7586 7.7475 31.3701 7.6599 31.983 7.66459C32.6561 7.65364 33.3276 7.73811 33.9796 7.918C34.4679 8.05409 34.9246 8.29342 35.3197 8.62191C35.6562 8.91129 35.9221 9.27889 36.1009 9.69342C36.2797 10.1236 36.3879 10.5819 36.4194 11.0496C36.4585 11.5564 36.4795 12.1696 36.4795 12.825V16.2429C36.484 17.1502 36.5501 18.0559 36.6778 18.9538H33.6341L33.4147 17.3441L32.937 18.5205C32.1453 19.0163 31.2349 19.2666 30.3124 19.2431V19.24ZM32.7072 14.2344C31.935 14.2344 31.3265 14.3643 30.8984 14.6224C30.4687 14.8554 30.2028 15.3231 30.2163 15.8268C30.2013 16.1757 30.3425 16.5135 30.5994 16.7388C30.8893 16.9578 31.2439 17.0673 31.6014 17.0501C32.0581 17.0548 32.4968 16.8733 32.8258 16.5433C33.1969 16.1428 33.3937 15.6016 33.3712 15.0447V14.2626C33.1413 14.2438 32.9175 14.2329 32.7072 14.2329V14.2344Z" fill="var(--fill-0, #0B111D)"/>
<path d="M42.2259 23.151H39.0815V7.95751H42.2259V9.625L43.0266 8.3955C43.4518 8.09047 43.9355 7.88556 44.4433 7.79796V8.4174H45.5701V7.66969C45.6347 7.66813 45.7023 7.66656 45.7699 7.66656C46.2416 7.66343 46.7103 7.72913 47.164 7.86053C47.5907 7.98567 47.9948 8.17807 48.3644 8.43305H48.0639V9.60623H49.1907V9.18545L49.2027 9.19952L49.2282 9.23081L49.2372 9.24176C49.6579 9.76422 49.9749 10.3665 50.1717 11.0156C50.394 11.7446 50.5022 12.5063 50.4962 13.2713C50.4962 15.1546 49.9719 16.7251 48.9819 17.8154C48.5267 18.316 47.9753 18.7101 47.3624 18.9698C46.7419 19.231 46.0779 19.3624 45.4093 19.3577C44.4854 19.3577 43.4413 19.1122 42.926 18.7743L42.2244 17.6073V23.151H42.2259ZM44.6597 10.0114C43.877 10.0114 43.2595 10.2726 42.8253 10.7888C42.3341 11.3723 42.0862 12.2748 42.0862 13.4746V13.9752C42.0772 14.4898 42.1508 15.0029 42.301 15.4925C42.4182 15.8648 42.6105 16.2058 42.8659 16.492C43.0882 16.7345 43.3586 16.9222 43.6591 17.0411C43.9461 17.1537 44.251 17.21 44.559 17.2085C45.2921 17.2319 45.9937 16.8956 46.4534 16.3012C46.7043 15.9649 46.8906 15.5785 46.9988 15.1671C47.1355 14.6494 47.2016 14.116 47.1941 13.5794C47.1941 12.5142 46.9507 11.6132 46.4895 10.9749C46.2792 10.6762 46.0042 10.4322 45.6888 10.2617C45.3703 10.0943 45.0172 10.0082 44.6597 10.0129V10.0114ZM48.2307 11.0751V12.2482H49.3574V11.0751H48.2307Z" fill="var(--fill-0, #0B111D)"/>
<path d="M50.0094 7.27386H48.8827V8.44705H50.0094V7.27386Z" fill="var(--fill-0, #0B111D)"/>
<path d="M51.5494 5.19385H50.4226V6.36703H51.5494V5.19385Z" fill="var(--fill-0, #0B111D)"/>
<path d="M47.9888 6.38189H46.8621V7.55507H47.9888V6.38189Z" fill="var(--fill-0, #0B111D)"/>
</g>
</g>
</svg>
