<svg preserveAspectRatio="none" width="100%" height="100%" overflow="visible" style="display: block;" viewBox="0 0 95 20" fill="none" xmlns="http://www.w3.org/2000/svg">
<g id="yoomoney 1" clip-path="url(#clip0_109_734)">
<g id="Vector">
<path d="M18.0506 0C12.5159 0 8.11333 4.49368 8.11333 10C8.11333 15.5696 12.5788 20 18.0506 20C23.5223 20 27.9878 15.5063 27.9878 10C28.0507 4.49368 23.5223 0 18.0506 0ZM18.0506 13.7342C16.038 13.7342 14.3398 12.0253 14.3398 10C14.3398 7.97468 16.038 6.26584 18.0506 6.26584C20.0632 6.26584 21.7613 7.97468 21.7613 10C21.7613 12.0253 20.1261 13.7342 18.0506 13.7342Z" fill="var(--fill-0, white)"/>
<path d="M8.11332 2.91146V17.4684H4.52836L0 2.91146H8.11332Z" fill="var(--fill-0, white)"/>
<path d="M91.9509 5.50635L89.7496 10.9494C89.6868 11.0127 89.6868 11.1392 89.6868 11.2025L89.6236 11.3291L89.5608 11.2025C89.5608 11.1392 89.498 11.0127 89.498 10.9494L87.2967 5.50635H84.4665L88.1771 14.8101L86.605 18.3544H89.4351L94.6554 5.50635H91.9509Z" fill="var(--fill-0, white)"/>
<path d="M71.07 6.01266C70.5667 5.6329 69.9379 5.37974 69.1831 5.31646C67.9254 5.18986 66.7306 5.6329 65.9129 6.4557V5.44306H63.334V14.7469H65.9129V9.87342C65.9129 8.79746 66.1014 8.48102 66.2902 8.22786C66.6046 7.72154 67.1706 7.46838 67.8626 7.46838C68.5543 7.46838 69.1831 7.78482 69.4979 8.29114C69.6863 8.6709 69.7491 9.17722 69.7491 9.43038C69.7491 10.2532 69.7491 14.7469 69.7491 14.7469H72.328V9.11394C72.328 7.65822 71.8876 6.64558 71.07 6.01266Z" fill="var(--fill-0, white)"/>
<path d="M58.4282 5.56963C57.1705 5.12659 55.7869 5.18991 54.5288 5.75951C53.7112 6.13927 52.9567 6.77215 52.5163 7.59495C52.0759 8.29115 51.8875 9.17723 51.8875 10.1266C51.8875 11.0759 52.0759 11.962 52.5163 12.6582C52.9567 13.3544 53.5228 13.9873 54.2772 14.3671C55.032 14.7469 55.9125 15 56.7301 15C57.1705 15 57.6106 14.9367 58.051 14.8101C58.4282 14.6835 58.8058 14.557 59.183 14.3671C59.9379 13.9241 60.5667 13.3544 60.9443 12.6582C61.3843 11.962 61.5731 11.0759 61.5731 10.1266C61.6359 8.03799 60.4411 6.26583 58.4282 5.56963ZM59.183 10.2532C59.1202 11.0759 58.8686 11.7721 58.3654 12.2152C57.9882 12.5317 57.4221 12.7215 56.7301 12.7848C56.0385 12.7848 55.5353 12.5949 55.0948 12.2152C54.592 11.7721 54.3404 11.0759 54.2772 10.2532C54.2144 9.30383 54.592 8.54431 55.2837 8.03799C55.6609 7.78483 56.1641 7.59495 56.6673 7.59495C57.2333 7.59495 57.6738 7.78483 58.1138 8.03799C58.8686 8.48103 59.2458 9.30383 59.183 10.2532Z" fill="var(--fill-0, white)"/>
<path d="M48.9314 6.01269C48.4282 5.63297 47.7993 5.37981 47.0445 5.31649C46.9189 5.31649 46.7301 5.31649 46.6045 5.31649C45.598 5.31649 44.7176 5.75953 43.9628 6.64561L43.8372 6.83549H43.5855C43.3967 6.51905 43.1451 6.26589 42.8935 6.07601C42.3903 5.69625 41.7615 5.44309 41.0066 5.37981C39.8118 5.25321 38.8684 5.63297 38.0508 6.51905V5.56969H35.4721V14.8734H38.0508V9.87345C38.0508 8.86081 38.1766 8.60765 38.3652 8.29121C38.6797 7.78485 39.2458 7.46841 39.8746 7.53169C40.5038 7.53169 41.0698 7.84817 41.3842 8.35449C41.6359 8.73421 41.6359 9.17725 41.6359 9.62029V14.8102H44.2144V9.81017C44.2144 8.86081 44.34 8.54437 44.5288 8.22789C44.8432 7.72157 45.4092 7.46841 46.0384 7.46841C46.6673 7.46841 47.1705 7.78485 47.4849 8.29121C47.6737 8.60765 47.7365 8.98741 47.7365 9.24057C47.7365 9.36713 47.7365 9.49373 47.7365 9.55701V14.7469H50.315V9.05069C50.315 8.54437 50.2522 8.03801 50.1262 7.59497C49.875 6.96209 49.4974 6.39245 48.9314 6.01269Z" fill="var(--fill-0, white)"/>
<path d="M82.0136 11.9621C81.6364 12.3418 80.7555 13.038 79.5607 13.1013C78.5542 13.1646 77.7998 12.8481 77.2338 12.2785C76.9822 12.0253 76.7934 11.6456 76.6677 11.2659H83.7745V11.2026C83.8377 10.8228 83.9005 10.5064 83.9005 10.1266C83.9005 9.81017 83.8377 9.36713 83.7117 8.79749C83.3972 7.72153 82.7684 6.89877 81.9508 6.26585C81.0071 5.56965 80.1267 5.37977 79.8751 5.37977C78.0514 5.06333 75.9757 5.88609 74.9065 7.59497C74.1516 8.79749 74.2148 10 74.2148 10.3798C74.2148 10.8228 74.2776 12.2152 75.4097 13.4811C76.7305 14.9367 78.5542 15 79.1203 15.0633C81.6364 15.1266 83.3344 13.5443 83.7117 13.2279L82.0136 11.9621ZM77.611 8.03801C77.9882 7.78485 78.4286 7.59497 78.9947 7.59497C79.5607 7.59497 80.0011 7.78485 80.4411 8.03801C80.8187 8.35445 81.1331 8.73421 81.3216 9.17725H76.7934C76.8562 8.73421 77.1706 8.29117 77.611 8.03801Z" fill="var(--fill-0, white)"/>
</g>
</g>
<defs>
<clipPath id="clip0_109_734">
<rect width="95" height="20" fill="white"/>
</clipPath>
</defs>
</svg>
